<svg xmlns="http://www.w3.org/2000/svg" xmlns:xlink="http://www.w3.org/1999/xlink" viewBox="0 0 1054.73 864.06">
  <defs>
    <clipPath id="a" transform="translate(27.13 -68.07)">
      <path d="M883.2 75.8c-164 46-391 18-391 18h-3.7s-425 449-355 551c32.9 47.9 354 281 354 281h5.7zM474.4 545.3l-.2 157.7-.3 98.3-.5 94.4c-62.6-37.5-289.8-232.6-316-270.8-21.4-31.1-31.9-102.6-36.5-182.9l43.9 12.3 44.3 12.6 88.6 25.5 88.4 26 44.2 13.1 42.1 12.8.9.3.9.3v.4zm.1-33.5l-1-.3-1-.3-42.5-11.3-44.5-12.1-88.8-24.5-88.7-25-44.3-12.7-44.2-12.8c-5.8-144.8 4.9-305 4.9-305 122 34.2 297.1 15.7 349 9.1l.5 94.7.3 98.3.2 196.6zM859.7 442c-4.6 80.2-15.2 151.7-36.5 182.9-26.2 38.1-253.4 233.3-316 270.7l-.5-94.4-.3-98.3-.2-157.7v-.4l.9-.3.9-.3 42.1-12.8 44.2-13.1 88.4-26 88.6-25.5 44.3-12.6 44.1-12.2zm1.4-29.1l-44.2 12.8-44.3 12.7-88.7 25-88.8 24.5-44.4 12.1-42.5 11.4-1 .3-1 .3v-5.4l.2-196.6.3-98.3.5-94.7c51.9 6.6 227 25.1 349-9.1 0-.1 10.8 160.1 4.9 305z" fill="none"/>
    </clipPath>
  </defs>
  <path d="M661.33 223.13c20.9-8.6 45.9.7 67.5-12.1-13 6.5-28.6 5-45 4.7 10.2-5.5 20.8-13 34-15.6-17.2 2.2-29.9 13.3-57 17.8l.9-.3a3.09 3.09 0 01-.8.2c-.2.1-.3.1-.4.2a.35.35 0 00-.2.1c-.1 0-.2.1-.3.1s-.4.1-.5.2c-.1 0-.1 0-.2.1a.31.31 0 00-.2.1c-.1 0-.1.1-.2.1s-.1 0-.2.1a6.31 6.31 0 00-.9.4c-.1 0-.1 0-.2.1h-.3c24.2-17 50.1-38.7 82.3-39.6 0 0-.6-.1-1.8-.2-8.6-.4-18.6 2.4-28.7 5.1 4.5-1.4 8.3-5.6 12.9-8.9-5.4 3.4-11.9 6.8-19 10.5-15.9 4.6-30.9 15.7-45.9 26.1 12.8-29.5 43-23.7 40.9-34.1-1.2 7.1-28.2 9.4-33.2 17.4 3.5-12.3.5-27.2 26.4-27.4-29.8.2-19.8 7.3-34.3 35.4 1.6-4.4-.1-10.2-4.4-15.3 8.5-12.1 18.5-28 33.7-31-8.6-.7-27 14.7-34.5 26.5a11.64 11.64 0 011.6-5.1c-.6.8-1.5 1.7-2.2 5.7-3.3 4.2-8.9 8.1-14.1 12 10.8-35.7 15.2-70.6 52.6-81.1-28.2 5.5-39.9 26-49.9 50.7-1.7-11.4.3-29.3-.9-42.2-2.5 23.4 1.2 49.8-10.4 72.4-3.3-10.9-.9-23.3-2.7-36.2-1.6 22.3 5.2 48.2-15 66.5-3.5-14 4.8-22.3 5.7-35.6-1.4 8-8.8 9.5-10 40.1a108.63 108.63 0 01-22.6 17 30.19 30.19 0 003.1-15.2c12.3-15.4.2-43.2 11.4-60.4-9.8 7.8-4.9 43-12.4 53.6-7-23.1-6.8-52.3 10.6-72.1-20.3 21.3-21.5 47.8-16 76.2a18.68 18.68 0 01-1.5-3.3c-4.4-21-14.4-13.5-10.9-48.1-1.5 7.1-3.8 14.9-2.7 23-6.8-8.6-13.6-22.2-15.6-34 .9 15.5 10.8 32.4 20.2 46.4a36.29 36.29 0 00-12.4-6.5 10.52 10.52 0 012.2-2.9c-.8.5-.8.2-2.5 2.8-2.4-.6-.3.3-7.1-1.6a90.45 90.45 0 008.6-8.8 96 96 0 01-9.6 8.5 16.34 16.34 0 01-2.7-1.1c3.3-14.5-1-31.4 6-46.7a77.56 77.56 0 00-7.1 34.8c-3.3-6-6-13.5-9-20.9-.5-1.1-.9-2.2-1.4-3.3v3.4c.5 1.3.9 2.7 1.4 4 2.5 7.6 5.1 15.6 7.9 23.3-.2.9-.3 1.4-1 3.8a36.9 36.9 0 01-6.9-5.6l-1.2-1.2c-1.3-1.4-2.6-2.8-3.8-4.3-.8-1-1.5-2-2.2-3 .7 1.1 1.4 2.2 2.2 3.4a51.64 51.64 0 003.8 5.1c.4.5.8.9 1.2 1.4a37.17 37.17 0 006.5 5.8 107.51 107.51 0 01-4 10.2c-.1-3.1-1.2-5.5-2.5-8.6-.1-.2-.2-.5-.3-.7.1.4.2.8.3 1.3a30.68 30.68 0 010 12.8 27.19 27.19 0 01-1.1 3.8v17.9a12.13 12.13 0 011-1.4c2.5-3.4 6.8-7.7 15.6-16.1 1.4.7 3.2-5 12-6.6-2.8.2-8.5 1.9-11.5 5.8 2-3 3.4-7.7 4.5-12.6 5.6 1.6 10.7 6.4 15.9 10.8-.3 8.1 11.3 16.6 4.1 25.1-7.4 12.6-25.4 16.1-40.6 18.8a2.92 2.92 0 00-.9.2v18.7c.3-.1.6-.1.9-.2a191.92 191.92 0 0030.7-10.6c2.6-.1 5.3-.4 8.2-.8 12.4-.9 16.5 6.2 22.7 13.4a.1.1 0 00-.1-.1c.2.2.4.3.6.5-.1 0-.1 0-.2-.1 4.6 5.3 10.5 10.7 21.7 13.1-5.6-1.5-12.3-3.8-16.5-10.8 4.1 1.6 5.4 1.4 13.3.8-1-1.6-12.6 5.8-23.3-13 8.7 4 20.8 5.7 30.9 10.9-1 1.4-4.2 3.5-6.3 5.7 2-2 2.5-1.2 7.1-5.5a23.28 23.28 0 004.5.2 16.47 16.47 0 01-4.2-.5c.6 0 .2-2.1 5.7-5.8-.6.7.2.5-1.5 6.2h.2c.8-1.8 1.6-4.1 3.1-7.5.3-.8 1 .4 3.1-4.5 1.3 2.4 2.6 8 9.1 6.8 5.7 1.9 6.3 10.3 13.7 11.3-7.3-1.8-3.7-5-11.7-11.5 3.5-.7 6.6 1.1 15.5 4.5-9.7-8.7-26 1.4-26.1-21.6 14.5 3.8 29 12.9 46 11.8-13.8.2-28.9-9.1-42.5-14.3 16.5 2.2 31.8 2.8 50.6 6.3 15.6 4.2 8.8 7.5 22.4 2.7-11.2 1.9-22.5-6.3-34.8-8a171.9 171.9 0 0024.2-8.1c-14 4.4-31.8 9.8-48.8 4.7 20.5-2.6 25.5-.2 37.8-17.2-16.1 19.9-49.2 14.1-73 12.3a159.36 159.36 0 0016-11.4c10.8-3.2 23.1-7.4 35.5-14.4 5.4-4.4 5.5-10.8 18.7-7.1-15.5-6-9.4 4.6-35.5 11.7 1.8-1.9 2-1.9 8.2-10.7zm-115.4-16.8c.4.3 0 0 1.4.7l-2.1 1.8c.2-.8.5-1.7.7-2.5zm-.6 21.1c3.4-3.6 5.4-10.3 6.6-16.3a42 42 0 01-15.9 23.8l-.2.2c.1-.2.1-.4.2-.6 1.2-3.3 2.5-6.7 3.7-10 1.1-2.9 3-7.8 4.5-12.5a50 50 0 014.2-4.3c2.1.8 1.3.8 7.7 2.4-1.7 5.5-4.3 12.7-10.8 17.3zm82.5 34.1c1.1.4 2.1 1 5.7 2.4 0 2.5.1 4.3 1.4 9.3-2 5.9-5.2 4.8-10.7 13.4-8.7-5.4-21.1-8.4-31.1-13.6 11.3 5.1 21.8-4.9 34-1.5-9.8-6-9.4 5.5-40-2.3 12-5.3 25.4-9.8 40.7-7.7zm8.1-31.3a5.5 5.5 0 01-.9.7l-.2.2a2.19 2.19 0 01-.5.3c-.7.5-1.6 1.2-3.3 2.5a142.05 142.05 0 01-27 15.7c34-32.3 16.8-35.2 47.7-60.7 4.2 6.8 5.4 8.6 1.4 19.8-5.9 7.1-8 15.9-17.2 21.5zm5 7.3c2.5-2.3 6-5.5 9.5-9.1l.3-.3c.1 0 .1 0 .2-.1h.4c.1 0 .1-.1.2-.1a41.8 41.8 0 006.2-2.9c.5-.3 1-.5 2.9-1.4-4.3 5.5-10.8 12.4-19.7 13.9zm-419.4 131.4l-.7-.2a43.36 43.36 0 007.7 4.5l.5-.7a36.88 36.88 0 01-7.5-3.6zm0 0l-.7-.2a43.36 43.36 0 007.7 4.5l.5-.7a36.88 36.88 0 01-7.5-3.6zm235.4 355.5c-33.8-44.5-53-38.6-84.3-41.4a145.34 145.34 0 01-24.4-4.2c-13.5-3.6-29.1-10-48.2-21.7-6.6-3.9-12.7-7.4-19.1-9.8 76.2 67.7 175.9 149.7 217.2 175.8l.5-89.9v-.3c-18.2.5-30.5-2.9-41.7-8.5zm0 0c-33.8-44.5-53-38.6-84.3-41.4a145.34 145.34 0 01-24.4-4.2c-13.5-3.6-29.1-10-48.2-21.7-6.6-3.9-12.7-7.4-19.1-9.8 76.2 67.7 175.9 149.7 217.2 175.8l.5-89.9v-.3c-18.2.5-30.5-2.9-41.7-8.5zm0 0c-33.8-44.5-53-38.6-84.3-41.4a145.34 145.34 0 01-24.4-4.2c-13.5-3.6-29.1-10-48.2-21.7-6.6-3.9-12.7-7.4-19.1-9.8 76.2 67.7 175.9 149.7 217.2 175.8l.5-89.9v-.3c-18.2.5-30.5-2.9-41.7-8.5zm0 0c-33.8-44.5-53-38.6-84.3-41.4a145.34 145.34 0 01-24.4-4.2c-13.5-3.6-29.1-10-48.2-21.7-6.6-3.9-12.7-7.4-19.1-9.8 76.2 67.7 175.9 149.7 217.2 175.8l.5-89.9v-.3c-18.2.5-30.5-2.9-41.7-8.5zm0 0c-33.8-44.5-53-38.6-84.3-41.4a145.34 145.34 0 01-24.4-4.2c-13.5-3.6-29.1-10-48.2-21.7-6.6-3.9-12.7-7.4-19.1-9.8 76.2 67.7 175.9 149.7 217.2 175.8l.5-89.9v-.3c-18.2.5-30.5-2.9-41.7-8.5zm0 0c-33.8-44.5-53-38.6-84.3-41.4a145.34 145.34 0 01-24.4-4.2c-13.5-3.6-29.1-10-48.2-21.7-6.6-3.9-12.7-7.4-19.1-9.8 76.2 67.7 175.9 149.7 217.2 175.8l.5-89.9v-.3c-18.2.5-30.5-2.9-41.7-8.5zm0 0c-33.8-44.5-53-38.6-84.3-41.4a145.34 145.34 0 01-24.4-4.2c-13.5-3.6-29.1-10-48.2-21.7-6.6-3.9-12.7-7.4-19.1-9.8 76.2 67.7 175.9 149.7 217.2 175.8l.5-89.9v-.3c-18.2.5-30.5-2.9-41.7-8.5zm42.7-243.9a54.18 54.18 0 004.2-5.8c.1-.2.3-.4.4-.6-.1.2-.3.4-.4.6a27.38 27.38 0 01-4.2 4.6c-.2.2-.4.3-.6.5-5.5 4.5-11.9 4.9-24.7 4.7 3-2.8 6.4-6.5 9.9-10.5l1.5-1.8c.7-.8 1.4-1.6 2.1-2.3l-2-.6c-.8.8-1.6 1.5-2.4 2.3l-1.7 1.7c-1.4 1.5-2.8 2.9-3.9 4.3.4-2-1.6-4.2-3.5-6.5a23.48 23.48 0 01-1.9-2.5 7.68 7.68 0 01-1.4-3.7l-.5-.2a9.69 9.69 0 001.3 3.7c.4.8.9 1.5 1.4 2.3a20.93 20.93 0 013.1 7.3c-10.6 5.6-23.6-.6-36.3 3.1 5.3-4.1 10.4-9.9 15.5-15.8.4-.4.7-.8 1.1-1.2.8-1 1.7-1.9 2.5-2.9l-1-.3c-1 .9-2 1.8-3 2.8a15.38 15.38 0 01-1.3 1.2c-6.4 6-13 12.3-20 17.9-.5-5.5 3-13.7-1.5-19.6 9.3 31.9-28.6 48.7-54.5 58 27.7-57.6 24.8-4.8 53.8-49-9.2 6.6-9.5 21.1-26.6 16 22.8-18.7 17.1-25 18.8-32.2.1-.4.2-.7.3-1.1a11.52 11.52 0 012-3.5l-1.7-.5-.4.4c0-.2.1-.3.1-.5l-1-.3a26.93 26.93 0 01-.3 4 4.25 4.25 0 01-.2 1.1c-2 13-10.8 25-24.6 31.5 5.7-5.4 9.1-22.5 7.4-36.6 0-.3-.1-.7-.1-1-.2-1.3-.4-2.6-.7-3.8.2 1.2.3 2.4.4 3.7a3.75 3.75 0 00.1 1c.7 13.8-3.4 30.1-14.4 40.8-.7.8-.8-1-5.7 3.9-2.9-6.5-22-12.8-11.1-22.7-10.7 7.8 3.8 15.3 9.9 25.1l.2-.2c0 .1-.1.3-.1.4 0-.1 0-.1-.1-.2-5.4 6.4-11.3 19.5-15.7 27.6a270.88 270.88 0 01-46.8 14.2c3.3-6.1 2-14.4 1.9-23.1 7.9-.5 19.2-7.3 24.5-15.6-4.9 6.2-14.6 12.6-24.2 13.8 6.4-13.1 21.4-23.7 37.1-27.7a89.42 89.42 0 00-11 2c5.7-4.8 11.2-9.5 18.3-15.3 7.7-2.3 19.6-7.2 29.4-9-7.6 0-13.9 3.8-24.9 5.3 5.5-4 10.9-11.7 18.8-14.3-9.3 2.7-18.1 12.4-28.1 18.6-3.8 2.6-8.5 6.1-13.7 9.8 2.5-6.3 10.8-12.2 12.1-20.8-2.8 7.4-19.6 28.1-28 32.1 2.9-5.1 9.5-11.4 10.7-19.2-3.7 11.7-15.9 21.4-25 31.5-3.9-9.3 3.3-22.7-2-32.8 3.3 7.2-1.9 18.2-1.1 27.6-.2 6.9 4.1 29.5-7.1 39-25.3 4.6-50.9-1.5-76.5-1.3a185.28 185.28 0 016.6-31.7c3.7-.1 14.1.3 22-.8 6.2 1.8 3.1 10 22.6 2.7-4.9-1.2-10.4 7.8-19.9-3.1a43.44 43.44 0 0012.8-4.5c3.5.2 13.4-.2 19.5-1.7a86.82 86.82 0 01-17.2.4c6.2-6.2 14.2-4.7 22.7-5.7-3.1-.6-6.8-2.2-13-.5 5.4-3.7 10.7-9.9 15-15.5-5 5.4-11.1 12-19.9 16.4.3-4.6-5.6-11.2-.6-16.8-4.5 4.3-1.1 10.6-.6 17.5a78.21 78.21 0 01-11.3 5.1c4.1-5.4 2.4-7.2 0-10.2 1.5 2.2 2.1 5.3-1.6 10.7-7.1 2.2-21.4 1.4-28.8.9 8.3-29.8 65.5-47.2 92.1-58 12.1 1.7 24.7-1.2 37.3-5 .4-.1.9-.3 1.3-.4 2.4-.8 4.8-1.5 7.3-2.3l-13.9-4.1c-2.6.3-6.1.8-10.5 1.4a7.72 7.72 0 01-1.5.2c-.5.1-1.1.2-1.7.3.3-.2.5-.3.8-.5a3 3 0 00.7-.5c1.6-1 3.1-2.1 4.7-3.2l-31.9-9.4-58.2-16.8a80.34 80.34 0 006.7 6.3c.5.4.9.8 1.4 1.2a88.55 88.55 0 0010.2 7.3 181.35 181.35 0 00-54.6 26.5c-2.3 1.6-3.3 2.2-7.5 5.2a55.94 55.94 0 00-4.7-11.8c9.8-3.8-.8-7.7 23.6-13.3-5.7.9-14 .7-18.1 6.2a22.92 22.92 0 001.9-8.3c1.6-1.2 9.4-9.4 13-13.3-2.5 2.5-10.5 9.3-13 11.9-2.1-7.6-2.7-16.5.3-24.5.1-.3.3-.7.4-1a30.21 30.21 0 011.8-3.6 28.38 28.38 0 014-5.3 39.66 39.66 0 00-4.4 5.2c-.7 1-1.4 2.2-2.2 3.5a9.29 9.29 0 00-.5 1 34.62 34.62 0 00-1.9 4.3 40.3 40.3 0 00-1-5.1c-.1-.4-.2-.8-.3-1.3l-.9-3.9c.2 1.3.4 2.5.5 3.8 0 .4.1.8.1 1.2.4 6.8-.3 14 1.1 22.9-4.5-2.6-8-7.9-9.5-14.3a25.58 25.58 0 01-.5-2.7c.1.9.3 1.9.5 2.9.9 5.1 2.5 11.3 9.8 16.3 0 5-1.1 9.7-6.8 13.7a54.32 54.32 0 00-6.9-9.6c.1.1.1.2.2.3a9.68 9.68 0 01-.7-.9c-.1-.1-.2-.2-.2-.3l-.1-.1c-1.3-1.6-2.7-3.2-3.9-4.9-1.1-1.5-2.2-2.9-3.2-4.4-1.6 2.7-3.2 5.4-4.7 8 1.1 1.5 2.1 3 3.2 4.5 6.2 9.2 11.9 20 14.8 30.4l-.4.4-.4.4c-2-10.4-10.2-16.3-20-20.4q-2.25-.9-4.8-1.8c-1.6 3-3.2 5.9-4.8 8.8a15.05 15.05 0 00-1.1 2.2c1.6.6 3.2 1.2 4.7 1.9a49.15 49.15 0 014.5 2.4c-3.5 2.5-6 4.7-9 6.3a20.3 20.3 0 01-6.7 2.2c-2.2 4.4-4.2 8.6-6 12.8a25.4 25.4 0 016.3-1.7 22.18 22.18 0 013.7-.3c-1.9 4.6-4.5 12.8-10.4 15.8a2.19 2.19 0 00-.5.3c.2-.1.3-.1.5-.2 5.6-2.2 9.5-9.7 12.3-16.2 5.8-1.4 12.8-5.9 17.3-11.6 1.5 1.9 4 5.7 6.3 9.2-8.8 14-13.8 28.9-18.5 46.1a66.5 66.5 0 00-13.9-9.3 52.81 52.81 0 00-5.9-12 53.38 53.38 0 00-3.5-4.8c-.3-.3-.5-.7-.8-1-1-1.2-2.1-2.4-3.2-3.6-1-1-2-1.9-3-2.8.1.6.2 1.2.3 1.7q1.65 1.8 3.3 3.9a84.22 84.22 0 016 9.1 47.37 47.37 0 013.4 7.8c-1.1-.5-2.3-1-3.5-1.5-.9-.4-1.9-.8-2.8-1.1.6 2.4 1.1 4.8 1.7 7.2a26.81 26.81 0 012.7.7c.7.2 1.4.5 2 .7-.5.3-1 .6-1.6.9a16.27 16.27 0 01-2.3 1.1c.1.5.3 1 .4 1.5.8-.3 1.5-.6 2.3-.9 1.1-.4 2.2-.9 3.3-1.3a52.84 52.84 0 0113.3 11.2 171.81 171.81 0 00-3.7 24.9c-.1 1.6-.2 3.1-.2 4.7s-.1 3.1-.1 4.6a10.47 10.47 0 00.8 1.1c8.9 13 40.1 43.2 80 79.2l-1.2-4.5c-.5-1.6-1-3.1-1.6-4.7-8.2-22.6-24.3-42.6-27-67.4 23.9 3.1 50.6 5.1 76.5-.3 31.1 21.9 32.4-12.6 57.1 25.3 2.8 3.9 7.1 5 11.6 6.2-7.5-2.7-13.6-9-17.8-18.3 3.5 2 14.6 16.8 29.5 9.4-13.1 4.9-19.2-3.4-31.4-14.3 19.9-8.7-2.7 12 34.1 2.4-8.5-1.6-18.6 9.7-24.2-7.5 42.3-7.1 21.2 16.4 67.5 6.6-9.9-.6-22.2 6.4-32.5-4.5 17.6 2 40.1 1.8 56.5-5.5-11.1 4.2-26.9 4.8-41.2 3.4 4 0 7.5-9 20.6-7.5-8.7-3.1-15.9 5.2-25.8 6.9-6.7-.6-14.5-3-22.7-5.1 7.2-4.5 14.6-15.5 25.1-16.1-9.6-2.2-23.2 21.2-54.3 14.5 8-5.2 18.7-9.5 27.1-16.9-17.6 11-41.5 23.6-64.7 17.5 77.1-21.6 39-31.5 98.7-16 2.8 3.7 11.9 4.2 24 4.2-5.6-.5-14.2-.8-21-3.7 10.4 1 23.4-3 33.2-8.4-13.1 5.8-29.6 9.3-45 2a32.78 32.78 0 0016.3-5c-11.4 5.7-28.8 2-37.9-1 14.1-7.4 28.9-14.9 43.7-23.9 21.7 16.4 32.4 3 59 5.3-20.3-7.7-26.4 11.5-54.9-7.8 5.7-3.3 13.3-7.6 21.1-10 13.3 6.9 13.3 9.6 20.2 9.6 3.4 0 8.6-.7 18.1-1.9a1.27 1.27 0 00.6-.1v-1.1a1.27 1.27 0 00-.6.1c-10.8 1.2-21.5 2.8-32.8-7.9 6.3-.1 19.6-2.3 32.8-3.3h.6v-3h-.6c-2.4-.2-4.8-.3-7.3-.5a10.6 10.6 0 007.3-3.7c-.7.1-.5-.1-.3-.4zm-145.5 88.1a1.38 1.38 0 01.4.3 1.38 1.38 0 00-.4-.3zm7.6-4.5c1.4 0 2.8-.1 4.2-.1-2.6 1.1-5 1.5-9.4 3a17.22 17.22 0 00-3.9-2.3 83.38 83.38 0 019.1-.6zm64.6-64.2c1.3-1.8 2.7-4 4.3-6.5a86.65 86.65 0 016.2-8.5c11-5.2 27.2.1 39.6-6.7a6.73 6.73 0 01-.1 1 55.22 55.22 0 01-7 5.7c-14.4.8-28.8 7.7-43 15zm30.6 224.5c-33.8-44.5-53-38.6-84.3-41.4a145.34 145.34 0 01-24.4-4.2c-13.5-3.6-29.1-10-48.2-21.7-6.6-3.9-12.7-7.4-19.1-9.8 76.2 67.7 175.9 149.7 217.2 175.8l.5-89.9v-.3c-18.2.5-30.5-2.9-41.7-8.5zm78.9-239.8c-.2 0-.4.1-.6.1v1.1a1.42 1.42 0 00.6-.2 61.32 61.32 0 0012.4-4.7 57.32 57.32 0 01-12.4 3.7zm0 11.2a17.72 17.72 0 00-.6-1.7v3.2c.1.3.2.7.3 1 .1.1.2.1.3.2 2.8 1.3 6 .4 9.6-.1-8.8.7-8.9-.2-9.6-2.6zm-78.9 228.6c-33.8-44.5-53-38.6-84.3-41.4a145.34 145.34 0 01-24.4-4.2c-13.5-3.6-29.1-10-48.2-21.7-6.6-3.9-12.7-7.4-19.1-9.8 76.2 67.7 175.9 149.7 217.2 175.8l.5-89.9v-.3c-18.2.5-30.5-2.9-41.7-8.5zm0 0c-33.8-44.5-53-38.6-84.3-41.4a145.34 145.34 0 01-24.4-4.2c-13.5-3.6-29.1-10-48.2-21.7-6.6-3.9-12.7-7.4-19.1-9.8 76.2 67.7 175.9 149.7 217.2 175.8l.5-89.9v-.3c-18.2.5-30.5-2.9-41.7-8.5zm0 0c-33.8-44.5-53-38.6-84.3-41.4a145.34 145.34 0 01-24.4-4.2c-13.5-3.6-29.1-10-48.2-21.7-6.6-3.9-12.7-7.4-19.1-9.8 76.2 67.7 175.9 149.7 217.2 175.8l.5-89.9v-.3c-18.2.5-30.5-2.9-41.7-8.5zm0 0c-33.8-44.5-53-38.6-84.3-41.4a145.34 145.34 0 01-24.4-4.2c-13.5-3.6-29.1-10-48.2-21.7-6.6-3.9-12.7-7.4-19.1-9.8 76.2 67.7 175.9 149.7 217.2 175.8l.5-89.9v-.3c-18.2.5-30.5-2.9-41.7-8.5zm0 0c-33.8-44.5-53-38.6-84.3-41.4a145.34 145.34 0 01-24.4-4.2c-13.5-3.6-29.1-10-48.2-21.7-6.6-3.9-12.7-7.4-19.1-9.8 76.2 67.7 175.9 149.7 217.2 175.8l.5-89.9v-.3c-18.2.5-30.5-2.9-41.7-8.5zm79-403.2c-.3-.2-.5-.3-.8-.5v3.1c.3.1.5.2.8.3 5.2 1.7 13.9.6 20.1 2.2-10.8-3.5-11.6.4-20.1-5.1zm-5.1 122.8v1.7c.2 0 .3.1.5.1.7.1 1.4.3 2.1.4l2.9-.8a55.43 55.43 0 01-5.5-1.4zm5.1-97.1a1.7 1.7 0 01-.7.1v.2a1.33 1.33 0 00.7-.3 8.45 8.45 0 001.7-.5 8.45 8.45 0 01-1.7.5zm0 26.4a1.45 1.45 0 01-.7.2c-1.4.5-2.9.9-4.3 1.4v1.6c1.4-.5 2.9-1.1 4.3-1.7a4.88 4.88 0 01.7-.3 88 88 0 0014.2-6.8 127 127 0 01-14.2 5.6zm0-35.4c-.2 0-.5.1-.7.1v.7a6.37 6.37 0 00.7-.2 59.29 59.29 0 018.3-1.2 59 59 0 00-8.3.6zm34.9 93.2c-10.2.4-22.8 3-35 3.7h-.5c-1.5.1-3 .1-4.5.1v3c1.5-.1 3-.3 4.5-.4a.9.9 0 00.5-.1c11.6-1.4 23.2-4.6 35-6.3zm15.5-127.6a107.63 107.63 0 00-22.6-4.2c9.5.5 9.8-11.4 19.3-15.7-12.5 3.7-2 14.3-33.5 15h-4.7c5.6-3.5 14.5-4.4 17.5-16.3-3.9 10.5-14.3 14-26.3 16.1-.3 0-.5.1-.8.1v4.3c.3 0 .5-.1.8-.1l2.5-.3c4.2 3.1 13.9 8.3 21.4 4.7a16.45 16.45 0 01-1.9 1.3c5.9-.1 15 .3 22.3 3.8-9.8-6.4-26.9-3.8-38.1-10.2 15.2-1.3 29.7-1.7 44.1 1.5zm-50.5 131.3v2.7c11.6-1.4 23.3-4.6 34.9-6.3h.1c-10.2.3-22.8 2.9-35 3.6zm0 0v2.7c11.6-1.4 23.3-4.6 34.9-6.3h.1c-10.2.3-22.8 2.9-35 3.6zm0 0v2.7c11.6-1.4 23.3-4.6 34.9-6.3h.1c-10.2.3-22.8 2.9-35 3.6zm0 0v2.7c11.6-1.4 23.3-4.6 34.9-6.3h.1c-10.2.3-22.8 2.9-35 3.6zm0 0v2.7c11.6-1.4 23.3-4.6 34.9-6.3h.1c-10.2.3-22.8 2.9-35 3.6zm122.1-35.6c-38.5-9-36.5 13.1-74.3 8.8 63.4-9 71.1-30.4 100.8-47.8-17.2 7.7-33.2 23.8-53.6 30.1-5.5-23.9-10.5-13 24.3-46.7-5.3 4.8-14.2 11.5-22.1 18.1 3.1-4 9.1-8.3 11.8-14.9-2.7 5.8-11.7 10.5-14.7 17.1-2.3 2-6.1 4.6-6.9 9.6-6.2-5.2-4-9.6-.6-17.4-3.3 4.4-9.2 9.5.6 20 13.7 25.6-26.4 20.3-43.8 23.5 10.5-7.7 15.7-25.9 30.2-31.2-25.7 8.7-21.6 42.2-61.6 27.7 9.9-3.6 2.5-14 14.2-20.1-9.7 1.6-4.7 13.9-16.5 19.3-3.2-1.2-6.5-2.7-9.8-4.3l-.6-.3c-1.5-.7-2.9-1.4-4.4-2.1v13.4c1.4.6 2.9 1.2 4.4 1.7a1.42 1.42 0 00.6.2 183.12 183.12 0 0018.6 6.3c12.9 9 1.8 8.3 23.1 14.9-9.2-6.1-6.5 1.9-21.1-16.1 9.3-.9 16.4 5.2 27.8 6.3 3.8 2.9 4.7 3.4 11.5 7.1a11.27 11.27 0 01.3 1.8 6.15 6.15 0 01.1 1.3 14.48 14.48 0 01-.4 4l8.1-2.2a15.4 15.4 0 00-.9-3.7 5.36 5.36 0 00-.5-1.1c-1.1-2.2-3.3-4.4-8-7l-.6-.3c2.2-.2 5.7-.8 10.1-1.4 6.8-2.2 12.8.2 19 3.1.4.2.9.4 1.3.6 1.9.9 3.9 1.8 5.9 2.6l3.8-1c-2-.8-4-1.7-5.9-2.6-.4-.2-.9-.4-1.3-.6-4.2-2-8.3-4.3-12.3-5.9 19.5-15.8 38.8-5.6 58.4-9.7-4.5.2-9.7-.9-15-1.1zm-122.1 35.6v2.7c11.6-1.4 23.3-4.6 34.9-6.3h.1c-10.2.3-22.8 2.9-35 3.6zm0 0v2.7c11.6-1.4 23.3-4.6 34.9-6.3h.1c-10.2.3-22.8 2.9-35 3.6zm0 0v2.7c11.6-1.4 23.3-4.6 34.9-6.3h.1c-10.2.3-22.8 2.9-35 3.6zm0 0v2.7c11.6-1.4 23.3-4.6 34.9-6.3h.1c-10.2.3-22.8 2.9-35 3.6zm0 0v2.7c11.6-1.4 23.3-4.6 34.9-6.3h.1c-10.2.3-22.8 2.9-35 3.6zm0 0v2.7c11.6-1.4 23.3-4.6 34.9-6.3h.1c-10.2.3-22.8 2.9-35 3.6zm113.5 9.1l-5.5 1.6a34.51 34.51 0 0011.2-3 27.85 27.85 0 01-5.7 1.4zm-35.5 11.3a4.24 4.24 0 01-1.9-.6l-2.2.6a6 6 0 001.9.6c3.4.7 8.2-.1 17 1.6-8.8-2.6-12.4-2-14.8-2.2zm-156.9 269.2c-33.8-44.5-53-38.6-84.3-41.4a145.34 145.34 0 01-24.4-4.2c-13.5-3.6-29.1-10-48.2-21.7-6.6-3.9-12.7-7.4-19.1-9.8 76.2 67.7 175.9 149.7 217.2 175.8l.5-89.9v-.3c-18.2.5-30.5-2.9-41.7-8.5zm5.9-291.9a23 23 0 01-2.8 2.7l.3.1a33.29 33.29 0 002.5-2.8 1.76 1.76 0 00.4-.5c-.1.2-.3.3-.4.5zm-5.9 291.9c-33.8-44.5-53-38.6-84.3-41.4a145.34 145.34 0 01-24.4-4.2c-13.5-3.6-29.1-10-48.2-21.7-6.6-3.9-12.7-7.4-19.1-9.8 76.2 67.7 175.9 149.7 217.2 175.8l.5-89.9v-.3c-18.2.5-30.5-2.9-41.7-8.5zm45.4 8.4c-.8 0-1.5.1-2.2.1h-1.5c-18.2.5-30.5-2.9-41.6-8.5-33.8-44.5-53-38.6-84.3-41.4a145.34 145.34 0 01-24.4-4.2c-13.5-3.6-29.1-10-48.2-21.7-6.6-3.9-12.7-7.4-19.1-9.8a52.23 52.23 0 00-5.6-1.8 38.64 38.64 0 00-4.9-1c79.6 71.2 188.7 161.1 228.8 185.1l3.8 1.9.5-98.4v-.5c-.5.1-.9.1-1.3.2zm32.9-238.8v3.2c.1.3.2.7.3 1 .1.1.2.1.3.2v-2.6a9.42 9.42 0 00-.6-1.8zm0 0v3.2c.1.3.2.7.3 1 .1.1.2.1.3.2v-2.6a9.42 9.42 0 00-.6-1.8zm0 0v3.2c.1.3.2.7.3 1 .1.1.2.1.3.2v-2.6a9.42 9.42 0 00-.6-1.8zm0 0v3.2c.1.3.2.7.3 1 .1.1.2.1.3.2v-2.6a9.42 9.42 0 00-.6-1.8zm0 0v3.2c.1.3.2.7.3 1 .1.1.2.1.3.2v-2.6a9.42 9.42 0 00-.6-1.8zm0 0v3.2c.1.3.2.7.3 1 .1.1.2.1.3.2v-2.6a9.42 9.42 0 00-.6-1.8zm0 0v3.2c.1.3.2.7.3 1 .1.1.2.1.3.2v-2.6a9.42 9.42 0 00-.6-1.8zm45.2 226.7a24.62 24.62 0 00-5.3-.6c-10.6 0-20.7 4.7-38.8 8.5l-1.5.3c1.5-.2 1.5 87.8 1.9 87 12.7-26.6 45-94.9 43.7-95.2zm-45.2-226.7v3.2c.1.3.2.7.3 1 .1.1.2.1.3.2v-2.6a9.42 9.42 0 00-.6-1.8zm0 0v3.2c.1.3.2.7.3 1 .1.1.2.1.3.2v-2.6a9.42 9.42 0 00-.6-1.8zm0 0v3.2c.1.3.2.7.3 1 .1.1.2.1.3.2v-2.6a9.42 9.42 0 00-.6-1.8zm0 0v3.2c.1.3.2.7.3 1 .1.1.2.1.3.2v-2.6a9.42 9.42 0 00-.6-1.8zm0 0v3.2c.1.3.2.7.3 1 .1.1.2.1.3.2v-2.6a9.42 9.42 0 00-.6-1.8zm0 0v3.2c.1.3.2.7.3 1 .1.1.2.1.3.2v-2.6a9.42 9.42 0 00-.6-1.8zm0 0v3.2c.1.3.2.7.3 1 .1.1.2.1.3.2v-2.6a9.42 9.42 0 00-.6-1.8zm0 0v3.2c.1.3.2.7.3 1 .1.1.2.1.3.2v-2.6a9.42 9.42 0 00-.6-1.8zm-313.7-125.1l-.7-.2a43.36 43.36 0 007.7 4.5l.5-.7a36.88 36.88 0 01-7.5-3.6zm0 0l-.7-.2a43.36 43.36 0 007.7 4.5l.5-.7a36.88 36.88 0 01-7.5-3.6zm0 0l-.7-.2a43.36 43.36 0 007.7 4.5l.5-.7a36.88 36.88 0 01-7.5-3.6zm0 0l-.7-.2a43.36 43.36 0 007.7 4.5l.5-.7a36.88 36.88 0 01-7.5-3.6zm-6.8-1.9c-1.8 7-4.1 14.7-11.1 18.8a34.19 34.19 0 00-.3-22.1l-5.1-1.5c2.8 7.5 3.4 15.3-.8 22.8a27 27 0 01-2 3.1c-.3.4-.6.8-1 1.3l6.3 1.8a15.55 15.55 0 002.3-.8 18.69 18.69 0 004.4-2.5c5.9-4.8 6.8-12.8 8.6-20.6zm6.8 1.9l-.7-.2a43.36 43.36 0 007.7 4.5l.5-.7a36.88 36.88 0 01-7.5-3.6zm0 0l-.7-.2a43.36 43.36 0 007.7 4.5l.5-.7a36.88 36.88 0 01-7.5-3.6zm0 0l-.7-.2a43.36 43.36 0 007.7 4.5l.5-.7a36.88 36.88 0 01-7.5-3.6zm0 0l-.7-.2a43.36 43.36 0 007.7 4.5l.5-.7a36.88 36.88 0 01-7.5-3.6zm0 0l-.7-.2a43.36 43.36 0 007.7 4.5l.5-.7a36.88 36.88 0 01-7.5-3.6zm0 0l-.7-.2a43.36 43.36 0 007.7 4.5l.5-.7a36.88 36.88 0 01-7.5-3.6zm0 0l-.7-.2a43.36 43.36 0 007.7 4.5l.5-.7a36.88 36.88 0 01-7.5-3.6zm0 0l-.7-.2a43.36 43.36 0 007.7 4.5l.5-.7a36.88 36.88 0 01-7.5-3.6zm0 0l-.7-.2a43.36 43.36 0 007.7 4.5l.5-.7a36.88 36.88 0 01-7.5-3.6zm-6.8-1.9c-1.8 7-4.1 14.7-11.1 18.8a34.19 34.19 0 00-.3-22.1l-5.1-1.5c2.8 7.5 3.4 15.3-.8 22.8a27 27 0 01-2 3.1c-.3.4-.6.8-1 1.3l6.3 1.8a15.55 15.55 0 002.3-.8 18.69 18.69 0 004.4-2.5c5.9-4.8 6.8-12.8 8.6-20.6zm6.8 1.9l-.7-.2a43.36 43.36 0 007.7 4.5l.5-.7a36.88 36.88 0 01-7.5-3.6zm0 0l-.7-.2a43.36 43.36 0 007.7 4.5l.5-.7a36.88 36.88 0 01-7.5-3.6zm0 0l-.7-.2a43.36 43.36 0 007.7 4.5l.5-.7a36.88 36.88 0 01-7.5-3.6zm0 0l-.7-.2a43.36 43.36 0 007.7 4.5l.5-.7a36.88 36.88 0 01-7.5-3.6zm0 0l-.7-.2a43.36 43.36 0 007.7 4.5l.5-.7a36.88 36.88 0 01-7.5-3.6zm0 0l-.7-.2a43.36 43.36 0 007.7 4.5l.5-.7a36.88 36.88 0 01-7.5-3.6zm0 0l-.7-.2a43.36 43.36 0 007.7 4.5l.5-.7a36.88 36.88 0 01-7.5-3.6zm-6.8-1.9c-1.8 7-4.1 14.7-11.1 18.8a34.19 34.19 0 00-.3-22.1l-5.1-1.5c2.8 7.5 3.4 15.3-.8 22.8a27 27 0 01-2 3.1c-.3.4-.6.8-1 1.3l6.3 1.8a15.55 15.55 0 002.3-.8 18.69 18.69 0 004.4-2.5c5.9-4.8 6.8-12.8 8.6-20.6zm6.8 1.9l-.7-.2a43.36 43.36 0 007.7 4.5l.5-.7a36.88 36.88 0 01-7.5-3.6zm0 0l-.7-.2a43.36 43.36 0 007.7 4.5l.5-.7a36.88 36.88 0 01-7.5-3.6zm0 0l-.7-.2a43.36 43.36 0 007.7 4.5l.5-.7a36.88 36.88 0 01-7.5-3.6zm0 0l-.7-.2a43.36 43.36 0 007.7 4.5l.5-.7a36.88 36.88 0 01-7.5-3.6zm0 0l-.7-.2a43.36 43.36 0 007.7 4.5l.5-.7a36.88 36.88 0 01-7.5-3.6zm-6.8-1.9c-1.8 7-4.1 14.7-11.1 18.8a34.19 34.19 0 00-.3-22.1l-5.1-1.5c2.8 7.5 3.4 15.3-.8 22.8a27 27 0 01-2 3.1c-.3.4-.6.8-1 1.3l6.3 1.8a15.55 15.55 0 002.3-.8 18.69 18.69 0 004.4-2.5c5.9-4.8 6.8-12.8 8.6-20.6zm6.8 1.9l-.7-.2a43.36 43.36 0 007.7 4.5l.5-.7a36.88 36.88 0 01-7.5-3.6zm0 0l-.7-.2a43.36 43.36 0 007.7 4.5l.5-.7a36.88 36.88 0 01-7.5-3.6zm0 0l-.7-.2a43.36 43.36 0 007.7 4.5l.5-.7a36.88 36.88 0 01-7.5-3.6zm-6.8-1.9c-1.8 7-4.1 14.7-11.1 18.8a34.19 34.19 0 00-.3-22.1l-5.1-1.5c2.8 7.5 3.4 15.3-.8 22.8a27 27 0 01-2 3.1c-.3.4-.6.8-1 1.3l6.3 1.8a15.55 15.55 0 002.3-.8 18.69 18.69 0 004.4-2.5c5.9-4.8 6.8-12.8 8.6-20.6zm6.8 1.9l-.7-.2a43.36 43.36 0 007.7 4.5l.5-.7a36.88 36.88 0 01-7.5-3.6zm-6.8-1.9c-1.8 7-4.1 14.7-11.1 18.8a34.19 34.19 0 00-.3-22.1l-5.1-1.5c2.8 7.5 3.4 15.3-.8 22.8a27 27 0 01-2 3.1c-.3.4-.6.8-1 1.3l6.3 1.8a15.55 15.55 0 002.3-.8 18.69 18.69 0 004.4-2.5c5.9-4.8 6.8-12.8 8.6-20.6zm0 0c-1.8 7-4.1 14.7-11.1 18.8a34.19 34.19 0 00-.3-22.1l-5.1-1.5c2.8 7.5 3.4 15.3-.8 22.8a27 27 0 01-2 3.1c-.3.4-.6.8-1 1.3l6.3 1.8a15.55 15.55 0 002.3-.8 18.69 18.69 0 004.4-2.5c5.9-4.8 6.8-12.8 8.6-20.6zm0 0c-1.8 7-4.1 14.7-11.1 18.8a34.19 34.19 0 00-.3-22.1l-5.1-1.5c2.8 7.5 3.4 15.3-.8 22.8a27 27 0 01-2 3.1c-.3.4-.6.8-1 1.3l6.3 1.8a15.55 15.55 0 002.3-.8 18.69 18.69 0 004.4-2.5c5.9-4.8 6.8-12.8 8.6-20.6zm0 0c-1.8 7-4.1 14.7-11.1 18.8a34.19 34.19 0 00-.3-22.1l-5.1-1.5c2.8 7.5 3.4 15.3-.8 22.8a27 27 0 01-2 3.1c-.3.4-.6.8-1 1.3l6.3 1.8a15.55 15.55 0 002.3-.8 18.69 18.69 0 004.4-2.5c5.9-4.8 6.8-12.8 8.6-20.6zm-27.1 18.8a22.24 22.24 0 01-1.2-3.9c-1-5.1-.3-11.1.1-17.2a22.56 22.56 0 00-1.1-6.2c-.4-1.2-.7-2.5-1.1-3.8l-.8-.2c.1 1.1.3 2.3.4 3.5.7 6.3 1.1 13.7-1.3 20.4-3.8-5.9-12.3-12.8-17.5-19.8 4 6.3 11.4 14.1 16.9 22a8.34 8.34 0 01.8 1.2 26.81 26.81 0 00.7 2.7 16.67 16.67 0 00.8 2l4.2 1.2c-.2-.5-.6-1.2-.9-1.9zm-.8-1.6c-.1-.3-.3-.5-.4-.8.2.4.4.6.4.8zm27.9-17.2c-1.8 7-4.1 14.7-11.1 18.8a34.19 34.19 0 00-.3-22.1l-5.1-1.5c2.8 7.5 3.4 15.3-.8 22.8a27 27 0 01-2 3.1c-.3.4-.6.8-1 1.3l6.3 1.8a15.55 15.55 0 002.3-.8 18.69 18.69 0 004.4-2.5c5.9-4.8 6.8-12.8 8.6-20.6zm0 0c-1.8 7-4.1 14.7-11.1 18.8a34.19 34.19 0 00-.3-22.1l-5.1-1.5c2.8 7.5 3.4 15.3-.8 22.8a27 27 0 01-2 3.1c-.3.4-.6.8-1 1.3l6.3 1.8a15.55 15.55 0 002.3-.8 18.69 18.69 0 004.4-2.5c5.9-4.8 6.8-12.8 8.6-20.6zm0 0c-1.8 7-4.1 14.7-11.1 18.8a34.19 34.19 0 00-.3-22.1l-5.1-1.5c2.8 7.5 3.4 15.3-.8 22.8a27 27 0 01-2 3.1c-.3.4-.6.8-1 1.3l6.3 1.8a15.55 15.55 0 002.3-.8 18.69 18.69 0 004.4-2.5c5.9-4.8 6.8-12.8 8.6-20.6zm0 0c-1.8 7-4.1 14.7-11.1 18.8a34.19 34.19 0 00-.3-22.1l-5.1-1.5c2.8 7.5 3.4 15.3-.8 22.8a27 27 0 01-2 3.1c-.3.4-.6.8-1 1.3l6.3 1.8a15.55 15.55 0 002.3-.8 18.69 18.69 0 004.4-2.5c5.9-4.8 6.8-12.8 8.6-20.6zm6.8 1.9l-.7-.2a43.36 43.36 0 007.7 4.5l.5-.7a36.88 36.88 0 01-7.5-3.6zm0 0l-.7-.2a43.36 43.36 0 007.7 4.5l.5-.7a36.88 36.88 0 01-7.5-3.6zm-6.8-1.9c-1.8 7-4.1 14.7-11.1 18.8a34.19 34.19 0 00-.3-22.1l-5.1-1.5c2.8 7.5 3.4 15.3-.8 22.8a27 27 0 01-2 3.1c-.3.4-.6.8-1 1.3l6.3 1.8a15.55 15.55 0 002.3-.8 18.69 18.69 0 004.4-2.5c5.9-4.8 6.8-12.8 8.6-20.6zm6.8 1.9l-.7-.2a43.36 43.36 0 007.7 4.5l.5-.7a36.88 36.88 0 01-7.5-3.6zm0 0l-.7-.2a43.36 43.36 0 007.7 4.5l.5-.7a36.88 36.88 0 01-7.5-3.6zm0 0l-.7-.2a43.36 43.36 0 007.7 4.5l.5-.7a36.88 36.88 0 01-7.5-3.6zm0 0l-.7-.2a43.36 43.36 0 007.7 4.5l.5-.7a36.88 36.88 0 01-7.5-3.6zm-6.8-1.9c-1.8 7-4.1 14.7-11.1 18.8a34.19 34.19 0 00-.3-22.1l-5.1-1.5c2.8 7.5 3.4 15.3-.8 22.8a27 27 0 01-2 3.1c-.3.4-.6.8-1 1.3l6.3 1.8a15.55 15.55 0 002.3-.8 18.69 18.69 0 004.4-2.5c5.9-4.8 6.8-12.8 8.6-20.6zm6.8 1.9l-.7-.2a43.36 43.36 0 007.7 4.5l.5-.7a36.88 36.88 0 01-7.5-3.6zm0 0l-.7-.2a43.36 43.36 0 007.7 4.5l.5-.7a36.88 36.88 0 01-7.5-3.6zm0 0l-.7-.2a43.36 43.36 0 007.7 4.5l.5-.7a36.88 36.88 0 01-7.5-3.6zm0 0l-.7-.2a43.36 43.36 0 007.7 4.5l.5-.7a36.88 36.88 0 01-7.5-3.6zm0 0l-.7-.2a43.36 43.36 0 007.7 4.5l.5-.7a36.88 36.88 0 01-7.5-3.6zm0 0l-.7-.2a43.36 43.36 0 007.7 4.5l.5-.7a36.88 36.88 0 01-7.5-3.6zm-6.8-1.9c-1.8 7-4.1 14.7-11.1 18.8a34.19 34.19 0 00-.3-22.1l-5.1-1.5c2.8 7.5 3.4 15.3-.8 22.8a27 27 0 01-2 3.1c-.3.4-.6.8-1 1.3l6.3 1.8a15.55 15.55 0 002.3-.8 18.69 18.69 0 004.4-2.5c5.9-4.8 6.8-12.8 8.6-20.6zm6.8 1.9l-.7-.2a43.36 43.36 0 007.7 4.5l.5-.7a36.88 36.88 0 01-7.5-3.6zm0 0l-.7-.2a43.36 43.36 0 007.7 4.5l.5-.7a36.88 36.88 0 01-7.5-3.6zm0 0l-.7-.2a43.36 43.36 0 007.7 4.5l.5-.7a36.88 36.88 0 01-7.5-3.6zm0 0l-.7-.2a43.36 43.36 0 007.7 4.5l.5-.7a36.88 36.88 0 01-7.5-3.6zm0 0l-.7-.2a43.36 43.36 0 007.7 4.5l.5-.7a36.88 36.88 0 01-7.5-3.6zm0 0l-.7-.2a43.36 43.36 0 007.7 4.5l.5-.7a36.88 36.88 0 01-7.5-3.6zm0 0l-.7-.2a43.36 43.36 0 007.7 4.5l.5-.7a36.88 36.88 0 01-7.5-3.6zm0 0l-.7-.2a43.36 43.36 0 007.7 4.5l.5-.7a36.88 36.88 0 01-7.5-3.6zm-6.8-1.9c-1.8 7-4.1 14.7-11.1 18.8a34.19 34.19 0 00-.3-22.1l-5.1-1.5c2.8 7.5 3.4 15.3-.8 22.8a27 27 0 01-2 3.1c-.3.4-.6.8-1 1.3l6.3 1.8a15.55 15.55 0 002.3-.8 18.69 18.69 0 004.4-2.5c5.9-4.8 6.8-12.8 8.6-20.6zm6.8 1.9l-.7-.2a43.36 43.36 0 007.7 4.5l.5-.7a36.88 36.88 0 01-7.5-3.6zm0 0l-.7-.2a43.36 43.36 0 007.7 4.5l.5-.7a36.88 36.88 0 01-7.5-3.6zm0 0l-.7-.2a43.36 43.36 0 007.7 4.5l.5-.7a36.88 36.88 0 01-7.5-3.6zm0 0l-.7-.2a43.36 43.36 0 007.7 4.5l.5-.7a36.88 36.88 0 01-7.5-3.6zm0 0l-.7-.2a43.36 43.36 0 007.7 4.5l.5-.7a36.88 36.88 0 01-7.5-3.6zm277-239.1a87.16 87.16 0 01-36.3 19.1c4.1-3.4 10.8-13.3 18.3-15.1-6.9 1.4-15.2 9.3-21 15.9-7.9 2.3-17 3.8-25.9 7.2 11.6-25.5 36.3-21.7 53.8-38.7-9.1 8.1-29 12.2-39.5 17.5 10.5-15.6 29.1-28.3 47.3-36-6.9.4-24.8 12-36.8 18.8a58.74 58.74 0 0010.3-27c-1.4 11.2-10.4 24.3-18.1 34l-.5.5c2.9-5.7 3.8-14.1 5.3-22.1 27.7-32.2 24.5-15.9 42-26.5-6.1 2.5-14.2 2.6-20.7 3.9 7.8-7.2 15.2-16.9 21.3-26.6l2.4-3.9c.8-1.3 1.5-2.5 2.2-3.7a36.17 36.17 0 01-2.2 3.2c-.8 1.1-1.6 2.3-2.4 3.4a185.87 185.87 0 01-28.9 30.2c.8-2.6 1.6-4.7 2.3-6.4 2.2-5 4.2-7.5 4.8-12.7-1 1.1-2.1 2.3-3.1 3.5-1.6 4.4-3.6 8.8-5.1 13.1a46.69 46.69 0 00-1.4 5l.1-.1v-.2c0-.1 0-.1.1-.2v-.1l.1-.1.3-.3a.35.35 0 01.2-.1l.2-.2c.2-.1.3-.3.5-.4l.1-.1.1-.1.3-.3-.3.3-.2.2-.1.1-.1.1c-.1.1-.2.2-.2.3l-.5.5-.7.7-.4.4a117.65 117.65 0 01-11.3 10.6 10.79 10.79 0 00.3-1.9 33.65 33.65 0 00.2-7.8c-1.1 1.2-2.1 2.4-3.2 3.6a40 40 0 01-2 9.6c-2.9 2.1-6 4.2-9.8 6.7a22.62 22.62 0 00.9-4.1c-12.8 14.5-26.8 30.5-41.4 47.7 6-4.5 12.6-9 18.8-14.2s12.3-11.2 16.9-18.5a5.74 5.74 0 00.4-.7v-.1c0-.1.1-.1.1-.2a.1.1 0 01.1-.1c0-.1.1-.1.1-.2s.1-.3.3-.4c0-.1.1-.2.2-.3s.1-.2.2-.3c0 .3 0 .2-.1 1.6 3.3-2.1 6-4 10-7l.1-.1c.3-.2.5-.4.8-.6s.5-.4.7-.6c.7-.6 1.5-1.2 2.3-1.8 1.1-.8 2.1-1.7 3.3-2.7-1.9 7.6-4.4 18.3-9.7 27.3-5 5.9-10.6 13.5-16.3 20.6 1.7-11.3 6.9-22.3 8.7-35-.3.2-.7.4-1 .6-6.5 17.3-9.7 41.2-27 53.3a69.49 69.49 0 01-8.1 4.3c-4.9.9-7.1 1.5-11.6 4.5a109.87 109.87 0 01-10.6 3.5c-2.7.8-5.5 1.5-8.4 2.2-4.1 4.9-8.2 9.8-12.3 14.8 2.6-.4 5.2-1 7.8-1.6 15.7-3.7 31.5-10.6 45.5-19 21-2 45.1-6.2 67.2-9-18.7 1.5-40.4 2-60.8 4.1a61.53 61.53 0 006.4-6.7c1.6-1.1 1.9-1.4 5.5-3.7 22.8-.5 46.4 3.5 66.4-12.6-15.7 12.5-38.8 8.7-58.4 8.7 20.1-7.1 44.5-13.4 60.4-30.5.6-.6 1.1-1.2 1.7-1.8a21 21 0 001.4-1.7c-.5.4-.9.9-1.4 1.3.2.2-.3.7-.9 1.2zm-59.8-20.5c0 .1 0 .1-.1.2s-.1.2-.1.3a1.42 1.42 0 00-.4.2v-.2a.1.1 0 01.1-.1c0-.1 0-.1.1-.2v-.1c0-.1.1-.2.1-.3a.35.35 0 01.1-.2 2.09 2.09 0 01.4-.6.22.22 0 01.2-.2 1.76 1.76 0 01.4-.5c.1-.1.1-.2.2-.2a2.65 2.65 0 01.6-.5 9.17 9.17 0 00-1.6 2.4zm-154.5 185.6l-1.7 2.3c5.2-2.8 13-5.5 14.7-13.3-1.3 5.2-7 8.6-13 11zm252.1 19.1c3.2-1.1 11.4-1.6 21.7-5.6a90.75 90.75 0 01-22 3.3h-.8v3.8a2.2 2.2 0 01.8.1c6 .6 12.4 1.8 19.5.9-5.4.3-12.4-1.7-19.2-2.5zm-32.2 120.3v-6.5a28.78 28.78 0 01-4.5-4.1 2.65 2.65 0 01-.5-.6 32.64 32.64 0 01-4.6-7c1.4.5 3 1 4.6 1.5a4.33 4.33 0 01.5.1 29.85 29.85 0 004.5.9v-1.3a26.4 26.4 0 01-4.5-1.5c-.2-.1-.4-.1-.6-.2-9-3.9-17.4-11.7-26.8-18.8 10.4-3.2 19-4.1 26.7-3.6h.6c1.5.1 3 .3 4.4.5v-15.1l-4.4-.6c-.2 0-.4-.1-.6-.1a81.53 81.53 0 00-20.3.5c-.1-1.1 10.4-10 20.3-14.4.2-.1.5-.2.7-.3a44.34 44.34 0 014.3-1.5v-1a28.9 28.9 0 00-4.3 1c-.2.1-.5.1-.7.2a66.5 66.5 0 00-15.6 7.7c2.2-7.6 8-13.6 15.6-17.6a2.51 2.51 0 00.7-.4v-3.7c-.2.1-.5.2-.7.3-5 2.1-11.3 4.5-15.5 10.3 3.2-13 11-10.5 12.2-30.4a11.12 11.12 0 013.3 2 5.55 5.55 0 00.8.6 14.7 14.7 0 001.3 1 17.38 17.38 0 00-1.3-1.5 5.55 5.55 0 00-.8-.6c-5-3.7-13.3-2.6-21.1-2.9 2.7-.5 5.6-1.2 8.6-2a105 105 0 0112.4-2.6c.3 0 .5-.1.8-.1v-2.1h-.8a63.46 63.46 0 00-13 1.7c3.2-1 7.6-3.8 13-5.2.3-.1.5-.1.8-.2v-11.2c-.3.1-.5.3-.8.4a26.94 26.94 0 00-2.9 1.6 24.77 24.77 0 012.9-4.7 10.47 10.47 0 00.8-1.1v-3.5a3.63 3.63 0 00-.8.9c-3.2 3.9-6.8 13.2-23.3 17.7-9.9 3.2-28 2.6-37.4 1.5 16.5-14.3 38.5-21.6 60.7-26.7.3-.1.6-.1.8-.2v-21.1c-.3 0-.6.1-.9.1-7.1 1-14.4 2.2-22.2 3.9a48.05 48.05 0 005.7-17.5c3.6-6.2 9.9-9.8 16.5-13.3a9.29 9.29 0 011-.5v-2.4a10.37 10.37 0 01-1 .4c-5.8 2.6-11.6 5.4-16 10.4 0-.8 0-.2.1-1.9a226 226 0 0013.2-21.5c.8-.6 1.7-1.2 2.7-1.9l1-.7v-1.8a7.63 7.63 0 00-1.1.8 10.59 10.59 0 00-1.2 1 12.68 12.68 0 011.2-2.3 13.44 13.44 0 011.1-1.4l.1-35.9-.1 33.5-1.1 1.1c-4.3 4.5-7.6 10.8-15.9 22.5-7.7-41.8 2.5-44.6 15.8-55.9a15 15 0 011.3-1.1v-3.1l-1.3 1c-5.4 4.2-11.2 8.3-15.9 13.2 2.9-7 5.7-19.9 5.6-29 0 9.4-5.7 21.2-8 31.8a27.3 27.3 0 00-4.1 8.1c-1.9-9.2-8.8-19.5-10.2-30 .5 9.9 7.7 24.5 8.9 35.9-1.2 9.8 1.5 19.8.7 31.2-12.3-5.5-18.2-21.7-23.6-34.4 3 8.3 4.4 19.5 10.6 27.7-2.3-.9-24.7 2.5-25.2-4.8-3.4 5.8 25 7.4 26.9 6.5 3.1 2.7 7.6 5.6 10.8 10-.5 10.1-5.9 21.7-13.8 28.5-35.4 9.3-64.4 37.2-82.8 69.2-.5-6.8-1-13.3-4.5-22.1 7.2-9.1 11.6-21.2 14-34.7 10.8-13 27.9-17.8 44.3-24.6-7.9 2.6-17.6 3.9-25.3 6.5 7.5-7.2 16.2-11.3 20.8-20.5-9.8 11.8-25.7 21.3-38.9 33 .4-2.7.7-5.5.9-8.5 13.8-31.7 20.5-37.8 26.3-39.5s10.9 1.1 21.2-12.6c-19.7 24.2-24-9.2-47.3 42.2-10.6-55.4 18.3-44.9 32.8-71.4-6.8 9.1-20.4 14-29 23.7 4.5-7.3 14.3-15.8 13.7-27.2-.1 12.8-19.5 26.1-24.5 43.6-3.8-8.2-10.2-18.4-4.5-29.2-6.6 9.8-.5 22 3.4 34.1-.5 4.2-.1 9.2.5 14.5a.76.76 0 00-.4.1 65.55 65.55 0 00-13.4-15.4c.9-5.4 1.3-13 5.4-18.1-3 2.9-5.7 10.7-6.7 17.1-2.3-2-6.6-3.8-8.1-8.8.9 3.3 3.2 6.2 7.9 9.9-1.3 6-4.1 13.8-12 15.8-.6-3.5-1.6-7.8-1.5-12.6a69.33 69.33 0 00.6 12.9 76 76 0 00-9.9 4.7c.1-7 1.7-17.9 1.7-27.8-.1 7.6-3.9 18.8-3.2 28.7a24.16 24.16 0 00-7.4 8 79.47 79.47 0 01-8-22.2c-.4-2.3-.8-4.5-1-6.8-5.6 7-11.2 14.1-16.7 21.2-.7 1-1.5 1.9-2.2 2.8.5 2 1.1 3.9 1.8 5.9a143.15 143.15 0 0025.7 45.8c.7.9 1.4 1.8 2 2.6-9.4 2.3-16.1-3-19.3-12.9.9 2.9 2.4 7.5 4.5 10.4-6.1-4.1-14.7-8.9-19.1-16.4 4.4 7.9 12.6 14.8 22.3 20.5-3.3.9-4 8.4-13 7.6 3.4.9 6.1 1.7 14.2-7.1-.1 0-.2-.1-.3-.1.1 0 .2.1.3.1s.2-.1.2-.2v.1c21.9-2.3 24.2 24.3 20.3 42.4-4.7 3.9-9.7 10.6-14.1 16.5 0-8.1-.8-17.9-5.4-26.6 2.4 0 7 .3 10.3.7a100.31 100.31 0 00-10.7-1.5c-2-4.3-6.5-8.9-7.6-14.5.4 3.8 3.2 8.3 6.2 14.4-2-.1-4.1-.2-6.3-.1-1.5-2-6.7-3.6-7.8-7.6.3 2.2 1.5 2.9 6.7 7.6-5.8.2-12.7 2.5-18.9 6.6 7.8-12.3-.2-32.6 13.7-44-13.4 9-8.7 26.7-16 41.2.7-7.8 4.9-21.7-3.2-29.9 7.5 8.5 1.4 21.2 1.1 32.6a19.91 19.91 0 01-8.4 5.4c-6.5-12.5-10.4-28.3-14.8-43.8-.4-1.5-.9-3.1-1.3-4.6v-.4c0 .1.1.2.1.3a35.05 35.05 0 011.9-4.6c-2.5 3.4-4.9 6.7-7.3 10 .3 1.6.7 3.3 1.1 5.1a26.45 26.45 0 01-2.9-2.5c-.3.4-.5.7-.8 1.1 1 1 2.2 2.2 3.6 3.5l.6.6c.6 3.1 1.6 8 2.6 12.6-1.1-.6-2-1-4.4-2.2-.6-2-1.4-4.1-2.2-6.3-.7-1.8-1.4-3.6-2.3-5.4q-10.5 14.7-20.1 28.5a48.26 48.26 0 015 1.6l2.1.9c.8 4.2 1.6 8.8 2.7 13.4.1.3.2.7.3 1 .4 1.5.8 3.1 1.3 4.6l34.4 9.7c.6-1.3 1.2-2.6 1.7-4a1.45 1.45 0 00.2-.7 25.11 25.11 0 00.1-14.4c10-3.2 18.5-13.8 31.5-14.8 4.2 7.7 13.6 16 9.4 33.3-1.7-10.6-17-14-17.9-25.9v2c5.1 16.2 18.3 15 15.4 30.6 0 .2-.1.3-.1.5-.3 1.3-.6 2.8-1.1 4.3l5.5 1.5c.3-1.4.6-2.9.9-4.4a4.33 4.33 0 01.1-.5c1.2-5.9 2.7-12.2 6.3-16.8a53.9 53.9 0 00-5.1 6.1v-1.2c4.2-5.3 7.5-12.3 14-18.8-2.2 10.6-3.3 22-7.1 32.9-.1.2-.1.4-.2.6a27.73 27.73 0 01-1 2.6c-.5.3-1.2.7-1.9 1.2l41.9 11.6c3.7 0 8.6-.1 13.8-.5.8-.1 1.7-.1 2.5-.2h.3a.1.1 0 00-.1.1 8.79 8.79 0 01-1 .6 21.76 21.76 0 00-3.5 3.3l1.3.3c1-1.1 2-2.3 3.1-3.4l.7-.7.3-.3c4.9-.4 9.6-.9 18.6-2.1a36.12 36.12 0 00-2.5 3c-1.4 1.6-1.6 2.1-2.5 3.2-.2.2-.4.5-.7.8-.5.6-1.3 1.3-2.3 2.4-1.8 0-3.6-.2-5.5-.3l11.1 3.1 20.7 5.6a83.14 83.14 0 00-24-8c.6-.7 1.2-1.5 1.7-2.2.2-.3.4-.5.6-.8 1.2-1.8 2.5-3.9 4.8-6.8 31.7-.5 38.9-22.1 69 6.4 1.6 5.3-.3 14.2 2.2 21a12.64 12.64 0 001.3 2.6c.4.6.8 1.1 1.2 1.6a6 6 0 01-.9-1.5 10.43 10.43 0 01-.8-2.5c-.9-4.5-.2-10.8-1-19.1 3.5 4.5 10.5 8.7 11.6 16.7a25.84 25.84 0 01-1.8 4.8 21.16 21.16 0 01-1.1 2.1c-.5.8-1 1.6-1.5 2.3l1.8.5a17.68 17.68 0 001.6-2.2 15.45 15.45 0 001.2-2.2c.2-.4.4-.8.6-1.3.1-.1.1-.3.2-.4.1.3.2.5.3.8a6.35 6.35 0 01-.7 6.2l4.5 1.2a106.35 106.35 0 01-1.9-13.9 8.38 8.38 0 002.1 1.3zm-18.2-112.2a6.1 6.1 0 01-1.5.3 11.59 11.59 0 001.5-.3zm-2.1.4zm-216.9 21.1c1 .6 1.7 1.1 3.3 2.2.9 10.4 10.5 21.8 7.6 33.8-5.9-9.6-8.2-23.4-11.9-36.6.4.3.7.4 1 .6zm53.7 9.6a51.69 51.69 0 015.4-.3 45.77 45.77 0 013.4 12.8c-2.3-3.2-1.5-1.9-8.8-12.5zm62.1-98.4c0 .3.1.5.1.8-.2-.3-.1-.2-.4-.7a.37.37 0 00.3-.1zm-18.8-1.8a24.81 24.81 0 004.7-12.3 70.91 70.91 0 0110.8 14.4c-4.4.3-11.3-.7-17.9.3a27.15 27.15 0 002.4-2.4zm-7.3 5.1c5.6-1.8 15.3-2.3 23-2.7 4.1 8.9 3 20.1.4 30.7-11.3-12.7-23.5-2.6-24.2-27.7a6.89 6.89 0 00.8-.3zm-18.2 16.3c2.5-6.6 8-11.7 16.3-15.4-4.3 35.4 41.8 10.6 14.3 55.6-8.8-14.1-22.3-24.3-30.6-40.2zm86.4 113.9c12.5-12.1 23.8-12.5 41.7-17.2-9 1.4-19.3.2-28.6 5.1 4.1-6.4 10.6-9.7 17.4-14.3-2.8 1.1-6.4 1.9-10.8 4.8.3-8 2.3-20.6 13.2-23.2-15.4 1.4-10.8 21.3-21.1 29.8.4-5.6 2.5-11.9-1.8-18.2 3 5.1 1.9 12.2-.1 19.7-.5.3-.8.6-6.3 6.1l-.1.1-.1.1c-.1.1-.4.3-1.2 1l-.1.1-.1.1a.1.1 0 00-.1.1c-.1 0-.1.1-.2.1a.1.1 0 00-.1.1.1.1 0 00-.1.1l-.1.1a.35.35 0 01-.2.1.1.1 0 00-.1.1.1.1 0 00-.1.1c-.2.2-.4.3-2.7 1.3.4-.2 1.4-.7 2.7-1.3a85.53 85.53 0 01-33.5 8.1c10.1-20.9 19.9-44.6 36.4-63.2 20.7 3.2 44.1.2 67.3.6-.5 9.5-6.8 16.9-13.2 26.2-.1-5.6-7.4-10.9-13.5-16.7 2.8 4.8 11.1 7.4 12.4 19.4a30.11 30.11 0 00-2 8.6c-7.9 19.7-35.1 18.6-54.9 22.2zm7.4-9.6zm60.9 36.9c-.2-.3-.5-.6-.7-.9a18.61 18.61 0 012 1.4 6.94 6.94 0 00-1.3-.5z"/>
  <path d="M910.33 7.73c-164 46-391 18-391 18h-3.7s-425 449-355 551c32.9 47.9 354 281 354 281h5.7zm-408.8 469.5l-.2 157.7-.3 98.3-.5 94.4c-62.6-37.5-289.8-232.6-316-270.8-21.4-31.1-31.9-102.6-36.5-182.9l43.9 12.3 44.3 12.6 88.6 25.5 88.4 26 44.2 13.1 42.1 12.8.9.3.9.3v.4zm.1-33.5l-1-.3-1-.3-42.5-11.3-44.5-12.1-88.8-24.5-88.7-25-44.3-12.7-44.2-12.8c-5.8-144.8 4.9-305 4.9-305 122 34.2 297.1 15.7 349 9.1l.5 94.7.3 98.3.2 196.6zm385.2-69.8c-4.6 80.2-15.2 151.7-36.5 182.9-26.2 38.1-253.4 233.3-316 270.7l-.5-94.4-.3-98.3-.2-157.7v-.4l.9-.3.9-.3 42.1-12.8 44.2-13.1 88.4-26 88.6-25.5 44.3-12.6 44.1-12.2zm1.4-29.1l-44.2 12.8-44.3 12.7-88.7 25-88.8 24.5-44.4 12.1-42.5 11.4-1 .3-1 .3v-5.4l.2-196.6.3-98.3.5-94.7c51.9 6.6 227 25.1 349-9.1 0-.1 10.8 160.1 4.9 305z"/>
  <g clip-path="url(#a)">
    <path d="M1045.33 832.93c-6.3-2.1-15.8-12.7-36.9-23.2-22-11-47.4 6.3-63.3-10.5-5.8-6.2-13-8.6-26.1-13.2-19.2-6.8-50.5-1.7-71.9-14.2-12.7-7.4-32.7-3.2-52.7-8.4-32.6-8.6-72.2-5.7-75.9-9.5-6.3-6.3-16.9-8.4-29.5-15.8-10.2-5.9-42.2 1.1-60.1 1.1s-38-19-53.8-19-30.6 10.5-72.8 12.7c-20.2 1-33.5-2.4-45.4-8.3-33.7-44.5-53-38.6-84.3-41.4a145.34 145.34 0 01-24.4-4.2c-13.4-3.6-29.1-10-48.2-21.7-12.3-7.4-23.1-13.1-36.3-13.1v.2c-.1-.1-.2-.2-.3-.2h.2c-4.3-29.5-27.7-52.8-31.1-83.3 23.9 3.1 50.6 5.1 76.6-.3 31.1 21.9 32.4-12.6 57.1 25.3 2.8 3.9 7.1 5 11.6 6.2-7.5-2.7-13.6-9-17.8-18.3 3.5 2 14.6 16.8 29.5 9.4-13.1 4.9-19.2-3.4-31.4-14.3 19.9-8.7-2.7 12 34.1 2.4-8.5-1.6-18.6 9.7-24.2-7.5 42.3-7.1 21.2 16.4 67.5 6.6-9.9-.6-22.2 6.4-32.5-4.5 17.6 2 40.1 1.9 56.5-5.5-11.1 4.2-26.9 4.8-41.2 3.4 4 0 7.5-9 20.6-7.5-8.7-3.1-15.9 5.2-25.8 6.9-6.7-.6-14.5-3-22.7-5.1 7.2-4.4 14.6-15.4 25.1-16.1-9.6-2.2-23.2 21.2-54.3 14.5 8-5.2 18.7-9.5 27.1-16.9-17.6 11-41.5 23.6-64.7 17.5 77.1-21.6 39-31.5 98.7-16 2.8 3.7 11.9 4.2 24 4.2-5.6-.5-14.2-.8-21-3.7 10.4 1 23.4-3 33.2-8.4-13.1 5.7-29.6 9.3-45 2a32 32 0 0016.3-5.1c-11.4 5.7-28.8 2-37.9-1 14.1-7.4 28.9-14.9 43.7-23.9 21.7 16.4 32.4 3 59 5.3-20.2-7.7-26.4 11.5-54.9-7.8 5.7-3.3 13.3-7.6 21.1-10 13.3 6.9 13.3 9.6 20.2 9.6 4.7 0 12.8-1.3 30.7-3.4-15.4-1.6-29.7 7.3-45.4-7.5 14.6-.3 65.5-11.4 69.3 6.5 2.8 1.6 6.2.6 9.9 0-16.1 1.6-3.1-3-17.7-10.9a70 70 0 0020.5-6.4c-9.8 4.1-20.7 5.1-32.1 5.1h-2.7c-7.1-.2-14.4-.7-21.7-1.2 6.1-.4 8.8-5.5 12.5-10.6-7.3 9.9-13 10.6-29.9 10.4 8.1-7.4 18.5-22.2 28.7-29a130.1 130.1 0 00-25.1 22.1c.8-4.8-11.2-10.3-5-17-6.1 5 2.2 9.3 3.6 17.5-10.6 5.6-23.6-.6-36.3 3.1 9.3-7.2 17.8-19.7 27.3-28.4-10.2 8.7-21.4 20.3-33.4 30-.5-5.5 3-13.7-1.4-19.6 9.3 31.9-28.6 48.7-54.5 58 27.7-57.6 24.8-4.8 53.8-49-9.2 6.6-9.5 21.1-26.6 16 33-27.1 6.1-28.3 28.9-43.4-3.1 1.6-7 2.9-9.9 6.7.8-2.4-.8-5.8-1.6-9.3 3.8 17.6-5.7 36.4-24.3 45.1 6.3-6.1 9.9-26.7 6.5-41.4 2 14.6-1.6 33.5-14 45.4-.7.9-.8-1-5.6 4-2.9-6.5-22-12.7-11.1-22.7-10.7 7.8 3.8 15.3 9.9 25.1l.2-.2c0 .1-.1.3-.1.4 0-.1 0-.1-.1-.2-5.4 6.4-11.3 19.5-15.7 27.6a270.88 270.88 0 01-46.8 14.2c3.3-6.1 2-14.4 1.9-23.1 7.9-.5 19.1-7.3 24.5-15.6-4.9 6.1-14.6 12.6-24.2 13.8 6.4-13.1 21.4-23.7 37.1-27.7a89.42 89.42 0 00-11 2c5.7-4.8 11.2-9.5 18.3-15.3 7.7-2.3 19.7-7.2 29.4-9-7.6 0-13.9 3.8-24.9 5.3 5.5-4 10.9-11.7 18.8-14.3-9.3 2.7-18.1 12.4-28.1 18.6-3.8 2.6-8.5 6.1-13.7 9.8 2.5-6.3 10.8-12.2 12.1-20.8-2.8 7.4-19.6 28.1-28 32.1 3-5.1 9.5-11.4 10.7-19.2-3.7 11.7-15.9 21.4-25 31.5-3.9-9.3 3.3-22.6-2.1-32.8 3.3 7.2-1.9 18.2-1.1 27.6-.2 6.9 4.1 29.5-7.1 39-25.3 4.6-50.9-1.5-76.5-1.3a185.28 185.28 0 016.6-31.7c3.7-.1 14.1.3 22-.8 6.2 1.8 3.1 10 22.6 2.7-4.9-1.2-10.4 7.8-19.9-3.1a44.41 44.41 0 0012.8-4.5c3.5.2 13.4-.2 19.5-1.7a86.82 86.82 0 01-17.2.4c6.2-6.2 14.2-4.7 22.7-5.7-3.1-.6-6.8-2.2-13.1-.5 5.4-3.7 10.7-9.9 15-15.5-5 5.4-11.1 12-19.9 16.4.3-4.6-5.6-11.1-.6-16.8-4.5 4.3-1.1 10.6-.6 17.5a78.21 78.21 0 01-11.3 5.1c4.2-5.4 2.4-7.2 0-10.2 1.5 2.2 2.1 5.3-1.6 10.7-7 2.2-21.4 1.4-28.8.9 8.3-29.8 65.5-47.2 92.1-58 20 2.8 41.1-6.9 61.8-12.8 8.6-1.5 16.6 7 26.4 8.2-10.4-3.2-19.4-13.4-32.8-10 9.5-14.1 37.3-3.2 61 7.8 2.5-.5 11.8 8.1 15.2 3.3-2.1 2.8-6.4-.6-10.5-2.7 3.4-1 6.7-4 9.4-7.7-12.6 16.2-21.2-5.8-55-11.8 2.2-2.6 3.4-5.2 7.1-9.9 31.7-.5 38.9-22.1 69 6.4 2 6.5-1.4 18.6 4.8 25.2-3.4-4.3-1.7-12-2.7-23.1 3.4 4.5 10.5 8.7 11.6 16.7-2.1 7.5-7.6 16.5-21.4 19.3 6.2-.8 17.6-4.1 22.3-15.7 4.7 10.5-12.2 10.9-14.8 23.4 2.6-6.3 2.6-6.3 15.8-14.5 4.8 15.9 14.9 12.4 29.4 15.4-16.7-6.5-25.4 4.9-28.2-30 2.8 1.5 3.3 2.2 8.7 3.7 5.2 5.8 13 7.6 21.2 9.2s16.6 3 23 7.9c-8.8-9-26.1-7.4-37.6-15.9 18.1 2.2 36-4.1 54.1-6.7-24.2.9-61.4 14.5-76.5-15 8 2.9 20.3 5.3 28.7-1.7-19.8 10.8-33.8-4.6-50.8-17.5 35.4-10.8 49.9 4.4 82.1 13.5 12.9 9 1.8 8.3 23.1 14.9-9.2-6.1-6.5 2-21.1-16.1 9.3-.9 16.4 5.2 27.8 6.3 3.8 2.9 4.7 3.4 11.5 7.1 2.5 11.3-6.6 6.8 6.7 22.8 7 15.3 8.4 8.7 26.2 12.1-21.9-6.3-11.6 6.8-30.5-22.3.4-2.3.7-2.7 1.4-5.7 2.3 15.4 39.7 20.8 55.4 13.2-8.7 3.8-42 2.5-50.2-11.2-2-5.9.4-10-10.3-15.7l-.6-.3c2.2-.2 5.7-.8 10.1-1.4 15.7-5.1 27.1 14.5 46.7 7-11.6 3.4-24.7-6.1-36.1-10.9 19.5-15.8 38.8-5.6 58.4-9.7-4.4.2-9.7-.8-15-1.1-38.5-9-36.5 13.1-74.3 8.8 63.4-9 71.1-30.5 100.7-47.8-17.2 7.7-33.2 23.8-53.6 30.1-5.5-23.9-10.5-13.1 24.3-46.7-5.3 4.8-14.2 11.5-22.1 18.1 3.1-4 9.2-8.3 11.8-14.9-2.7 5.8-11.7 10.5-14.7 17.1-2.3 2-6.1 4.6-6.9 9.6-6.2-5.2-4-9.6-.6-17.4-3.3 4.4-9.2 9.5.6 19.9 13.7 25.6-26.4 20.3-43.8 23.5 10.5-7.7 15.7-25.9 30.2-31.2-25.6 8.7-21.6 42.2-61.6 27.7 9.9-3.6 2.6-14 14.2-20.1-9.7 1.6-4.7 13.9-16.5 19.3-9-3.4-17.9-8.7-28.2-12.9 9.5-5.3 22.2-8.1 32.7-14.7-10.9 5.1-23.7 8.3-37.2 13-9.2-3.1-22-4.2-34.2-2.3-.2-1.6 22.1-19.7 32.4-16.4 2.1.3 3.5 1.7 6.2-.7-4 2.1-10.2-6.2-33.9 8.8 2.8-9.9 11.7-16.9 22.7-20.7 9-4 20.6 1.4 31.6-3-5.9 2.2-14.8.4-22.9-.7 8.9-4 19.4-7.7 29.4-8.4-12-.2-26 4.6-39.4 9.3 3-8.3 13.4-11.5 20.5-18.3-3.2 2.6-8.2 4.5-12.4 7.1 1.6-3.6 2.1-2.4 4.2-10.2 2.8.7 6 1.7 9.6.7-2.5.4-4.8.3-9.3-1.4a8.15 8.15 0 013.3-3c-1.4.7-1.6.5-3.7 2.9-8.2-5-20.3-5-31.1-2.4 4.1-1.3 10-5.5 17.6-5.9 7.5 2.8 18.5-.9 28.1 2.7.4 8.7 15.2 5 24.4 7.4-13.4-4.4-11.3 2.7-27.9-11 8.3-.6 17.2 2.5 27.3 1.1-5.2.3-12.2-1.7-19.1-2.5 3.2-1.1 11.4-1.6 21.7-5.6-17.4 5.1-35.4 3-56 3.6 6-3.4 14.6-6.2 23.2-7.7.8-.2 1.8-.3 2.8-.5h.4c3-.5 6.5-1 10.1-1.3 4.2 3.1 13.9 8.3 21.4 4.7a10.14 10.14 0 01-1.9 1.3c5.9-.1 15 .3 22.3 3.8-9.8-6.4-26.9-3.8-38.1-10.2 15.2-1.3 29.8-1.7 44.1 1.5a107.63 107.63 0 00-22.6-4.2c9.4.5 9.7-11.4 19.3-15.7-12.5 3.7-2 14.3-33.5 15h-4.7c5.6-3.5 14.5-4.4 17.5-16.3-8.3 22.6-46.4 12.9-66.2 25.2.9-1.7 1.2-2.6 4.9-7.4 6.9-.6 16.8-2.8 26.1-5.5-5.6 1.1-15.6 3.1-24.3 3.6 5-4.9 14.8-6.5 22.1-9.9-6.7 2.9-15.4 2.4-23.3 8.4.7-2.2.6 0 2.5-6.2 20.2-4 42.8-8.6 62.7-17.7 2.6-.1 5.3-.4 8.2-.8 12.4-.9 16.5 6.2 22.7 13.4a.1.1 0 00-.1-.1c.2.2.4.3.6.5-.1-.1-.1 0-.2-.1 4.6 5.3 10.5 10.7 21.6 13.1-5.6-1.5-12.3-3.8-16.5-10.7 4.1 1.6 5.4 1.4 13.3.8-1-1.7-12.7 5.8-23.3-13 8.7 4 20.8 5.7 30.9 10.9-.9 1.4-4.2 3.5-6.3 5.7 2-2 2.6-1.2 7.1-5.5a23.28 23.28 0 004.5.2 23.16 23.16 0 01-4.2-.5c.6 0 .2-2.1 5.7-5.8-.6.7.2.5-1.5 6.2h.2c.8-1.8 1.6-4.1 3.1-7.5.3-.8 1 .4 3.1-4.5 1.3 2.4 2.6 8 9.1 6.8 5.7 1.9 6.3 10.3 13.7 11.4-7.3-1.8-3.7-5.1-11.7-11.5 3.5-.7 6.6 1.1 15.5 4.5-9.7-8.7-26 1.4-26.1-21.6 14.4 3.8 29 12.9 46 11.8-13.8.2-28.9-9.1-42.5-14.3 16.5 2.2 31.8 2.8 50.6 6.3 15.6 4.2 8.8 7.5 22.4 2.7-11.2 1.9-22.5-6.3-34.8-8a171.9 171.9 0 0024.2-8.1c-14 4.4-31.8 9.7-48.8 4.7 20.5-2.6 25.5-.2 37.8-17.2-16.1 19.9-49.2 14.1-73 12.3a159.36 159.36 0 0016-11.4c10.8-3.2 23.1-7.4 35.6-14.4 5.4-4.4 5.5-10.8 18.7-7.1-15.5-6-9.4 4.6-35.5 11.7 2.2-1.8 2.4-1.8 8.6-10.6 21-8.6 45.9.7 67.5-12.1-13 6.5-28.6 5-45 4.7 10.2-5.5 20.9-13 34-15.6-17.2 2.2-29.9 13.3-57.1 17.7l.9-.3a3.09 3.09 0 01-.8.2c-.2.1-.3.1-.4.2a.35.35 0 00-.2.1c-.1 0-.2.1-.3.1s-.4.1-.5.2c-.1 0-.1 0-.2.1s-.1 0-.2.1-.1.1-.2.1-.1.1-.2.1a6.31 6.31 0 00-.9.4c-.1 0-.1.1-.2.1h-.3c24.2-17 50.1-38.7 82.3-39.6 0 0-.6-.1-1.8-.2-8.6-.4-18.6 2.4-28.7 5.1 4.4-1.4 8.3-5.6 12.9-8.9-5.4 3.4-11.9 6.8-19 10.5-15.9 4.6-30.9 15.7-45.9 26.1 12.8-29.5 43-23.7 40.9-34.2-1.1 7.1-28.2 9.4-33.2 17.4 3.5-12.3.5-27.2 26.4-27.4-29.8.2-19.8 7.3-34.4 35.4 1.6-4.4-.1-10.2-4.4-15.3 8.5-12.1 18.5-28 33.7-31-8.6-.7-27 14.7-34.5 26.5a11.64 11.64 0 011.6-5.1c-.6.8-1.5 1.7-2.2 5.7-3.3 4.2-8.9 8.1-14.1 12 10.7-35.6 15.2-70.6 52.6-81.1-28.2 5.5-39.9 25.9-49.9 50.7-1.7-11.4.3-29.3-.9-42.2-2.4 23.4 1.1 49.8-10.4 72.4-3.3-10.9-.9-23.3-2.7-36.2-1.6 22.3 5.2 48.2-15 66.5-3.5-14 4.8-22.3 5.7-35.6-1.4 8-8.8 9.5-10 40.1a108.63 108.63 0 01-22.6 17 30.19 30.19 0 003.1-15.2c12.3-15.4.2-43.2 11.4-60.4-9.8 7.8-4.9 43-12.4 53.6-7-23.1-6.8-52.2 10.6-72.1-20.3 21.3-21.5 47.8-15.9 76.2a12.51 12.51 0 01-1.5-3.3c-4.4-20.9-14.4-13.4-11-48.1-1.5 7.1-3.8 14.9-2.7 23-6.8-8.6-13.6-22.2-15.6-34 .9 15.5 10.8 32.4 20.2 46.4a36.29 36.29 0 00-12.4-6.5 10.52 10.52 0 012.2-2.9c-.8.5-.8.2-2.5 2.8-2.4-.6-.3.3-7.1-1.6a90.45 90.45 0 008.6-8.8 96 96 0 01-9.6 8.5 16.34 16.34 0 01-2.7-1.1c3.3-14.6-1-31.4 6-46.7a77.56 77.56 0 00-7.1 34.8c-5.7-10.4-9.7-25.1-16.2-36.3 5.4 12.4 9.8 28.1 15.1 42.7-.2.9-.3 1.4-1 3.8-4.8-2.9-10.4-8.8-14.1-14.1 3.1 4.8 6.9 10.8 13.6 15.6a106.45 106.45 0 01-3.9 10.2c-.1-3.3-1.4-5.9-2.8-9.3 2.2 8.7.7 17.6-5.3 26.9.5-7.9-2.8-17.1-9.4-24 14.4 16.3 5.8 45.3-9.2 60.7-11.1 1.3-22.6 2.8-35.2 5.5a48.05 48.05 0 005.7-17.5c7.7-13.3 27.6-14.6 36.3-28.9-7.2 11.7-25.4 11.8-35.8 23.5 0-.8 0-.2.1-1.9a226 226 0 0013.2-21.5c5.1-3.6 13.4-9.5 20.8-13.2-5.3 2.6-13.5 5.7-19.4 10.5 3.3-7.9 16.1-12.9 23.5-17.1-25.1 9.7-21.5 11.2-38.2 34.7-10.4-56.6 11.9-41.6 30.4-73.3-7 10.4-20.9 17.4-30.5 27.3 2.9-7 5.7-19.9 5.6-29 0 9.4-5.7 21.2-8 31.8a27.3 27.3 0 00-4.1 8.1c-1.9-9.2-8.8-19.5-10.2-30 .5 9.9 7.7 24.5 8.9 35.9-1.2 9.8 1.5 19.8.7 31.2-12.3-5.5-18.2-21.7-23.6-34.3 3 8.3 4.4 19.5 10.6 27.7-2.4-.9-24.7 2.5-25.2-4.8-3.4 5.8 25 7.3 26.9 6.5 3.1 2.7 7.6 5.6 10.8 10-.5 10.1-5.9 21.7-13.8 28.5-35.4 9.2-64.4 37.2-82.8 69.2-.5-6.8-1-13.3-4.5-22.1 7.2-9.1 11.6-21.2 14-34.7 10.8-13 27.9-17.8 44.3-24.6-7.9 2.6-17.6 3.9-25.3 6.5 7.5-7.2 16.2-11.3 20.8-20.5-9.8 11.8-25.7 21.3-38.9 33 .4-2.7.7-5.5.9-8.5 13.8-31.7 20.5-37.8 26.3-39.5s10.9 1.1 21.2-12.6c-19.7 24.2-24-9.2-47.3 42.2-10.6-55.4 18.3-44.9 32.9-71.4-6.8 9.1-20.4 14-29 23.7 4.5-7.2 14.3-15.8 13.7-27.2-.1 12.8-19.5 26.1-24.5 43.6-3.7-8.2-10.2-18.4-4.5-29.2-6.6 9.8-.5 22 3.4 34.1-.5 4.2-.1 9.2.5 14.5a.76.76 0 00-.4.1 65.55 65.55 0 00-13.4-15.4c.9-5.4 1.3-13 5.4-18.1-3 3-5.7 10.7-6.7 17.1-2.3-2-6.6-3.8-8.1-8.8.9 3.4 3.2 6.2 7.9 9.9-1.3 6-4.1 13.8-12 15.8-.6-3.5-1.6-7.8-1.5-12.6a69.33 69.33 0 00.6 12.9 64.8 64.8 0 00-9.9 4.7c.1-7.1 1.7-17.9 1.7-27.8-.1 7.6-3.9 18.8-3.2 28.7a24.16 24.16 0 00-7.4 8c-10.8-19.9-14.6-47.3 2.4-67.2 24.2 1.3 51.3-8.4 73.8-21.8 21-2 45.1-6.2 67.2-9-18.7 1.5-40.3 2-60.8 4.1a61.53 61.53 0 006.4-6.7c1.6-1.1 1.9-1.4 5.5-3.7 22.8-.5 46.4 3.5 66.4-12.6-15.7 12.5-38.8 8.7-58.4 8.7 21.4-7.6 47.7-14.2 63.5-34a87.77 87.77 0 01-39.4 21.9c4.1-3.4 10.8-13.3 18.3-15.1-6.9 1.4-15.2 9.3-21 15.9-7.9 2.3-16.9 3.8-25.9 7.2 11.6-25.5 36.3-21.7 53.7-38.7-9.1 8.1-29 12.2-39.5 17.5 10.5-15.6 29.1-28.2 47.3-36.1-6.9.4-24.8 12-36.7 18.8a59.18 59.18 0 0010.3-27c-1.4 11.2-10.4 24.3-18.1 34l-.5.5c2.9-5.7 3.8-14.1 5.3-22.1 27.7-32.2 24.5-15.9 42-26.5-6.1 2.4-14.2 2.6-20.7 3.9 9.8-9.2 19.1-22.2 25.9-34.2-8.4 13-20.1 25.4-33.5 36.8 3.9-13.4 8.8-12.5 6.8-28.8.2 10.4-7.1 20.9-9.3 31.2l.1-.1v-.2a.1.1 0 01.1-.1c0-.1 0-.1.1-.2v-.1l.1-.1.3-.3c.1-.1.1-.1.2-.1l.2-.2c.2-.1.3-.3.5-.4l.1-.1.1-.1.3-.3-.3.3-.2.2-.1.1-.1.1-.2.2-.5.5-.7.7-.4.4a117.65 117.65 0 01-11.3 10.6c2.9-13-5.4-29.9 2.5-43.4a10.53 10.53 0 01-.9.8q.15-.45 1.8-3.9c-3.7 6.8-13.4 13.9-18 27.2-.4-26.1 5.5-50.2 27.6-68.9-9.9 7.8-21 18.4-25.8 32.3-2.3-13.1-10-28.2-18.2-39 9.5 15.4 19.2 37 12.9 57.4-4.8-14.4-17.7-28-26.7-41.4 12.9 22.3 27.2 35.1 24.5 66.4-5.1-16.9-31.1-13.3-37.4-30.4 2.8 17.5 29.5 10.6 37.6 40.2-.4 19.3-18 31.5-34 41.4-.6-28-14.2-26.9 3.4-51.1-3.5 3.3-7.5 6.9-10.2 11.2-.6-8.6-.6-27.8-1-34.8-.2 5.4-1.1 19-1.5 28-2.1-3.6-1.5-11.1-5-15.6 5.1 12 4.1 30.5 7.9 45.1a62.81 62.81 0 00-5.3-6c-.4-12.7-13.6-33.2-10.4-57.1-3.6 16.4 1.7 35.4 6.2 53-5-4.7-12.4-11.5-17.6-18.1.4-.4 0 0 1.7-1.9-.1.1-.4.3-1.8 1.7-14.6-20.5-12-32.5 9.2-46.7-5.5 3.2-12.2 6.8-16.7 11.9a61.46 61.46 0 0111.4-22.5c-8.8 9.5-17.8 25.5-15.5 41.5-7-5.5-16.3-16.3-20-26.3 4.6 16.5 20.7 28.2 28.2 45.9-1.4 1.8-2.9 3.9-4.4 6.1-.5-.3-.9-.5-1.4-.8.1-4.3-4.7-8.4-6.1-15.8-.2 3.7 3.8 9.4 5 15.1-7.4-5.8-13.8-1.8-18.4-16.3.5 5.7-1.4 8.3 19.5 20-.8 1.3-1.5 2.6-2.2 3.8a107 107 0 01-15.3-6.6 117.86 117.86 0 0014.7 7.7c-1.5 2.6-5.2 8.9-6.2 11.8-6.5-17-22.2-30.5-27.6-48.4 3.4 16.9 18.8 33.2 24.3 51.7-8.7-6.3-13.6-19-22.8-27 16.2 28.2 35.7 28.4 18 65.4a45.93 45.93 0 01-6.3-10.8 31.93 31.93 0 00-1.3-8.6c1.9-.2 5.6-.3 8.1-.4-2 0-3.7-.2-8.3-.2-1.9-6.8-4.2-15.3-7.4-22.2 1.9 5.1 4.2 14.6 5.6 22.3a53.17 53.17 0 00-12.4 2.1c-.2-.3-.7-1-2.7-3.8 3.3-4.8 7.9-11.8 4.5-19.3 2 5 0 11.8-5.4 17.9-1-3.4-1.7-9.6-3.3-17 .5 4 .6 9.6 2.3 18.1-3.2 3.7-8.4 7.3-13.8 11.3 4.8-5 10.1-14.4 11-22.6-1.2 9.4-9.9 17.7-15.6 26.5a36.93 36.93 0 00-6.7 8.6c-1.5-10.8-1.5-28.8 8.5-37.9-13.9 10.4-10.1 31.5-12.4 47.8-13-32.5-2.3-65 13.8-90.2-5.4 8-12 17.4-17 28.9 4.6-18.2 0-42.5-7.6-59.4 12.5 36.2 3.5 51.4-1.2 80.6-3.2-9.6-8.5-22.9-12.1-33.1 2-3.7 5.6-8.2 7.9-14.5-1.4 3.4-4.9 8.3-8.4 13-.3-1-.6-1.6-.6-1.7 0 .1.2.8.5 1.9-2 3-4.9 7.2-5.7 12.8-2.4-6.5-8.7-14.9-11.7-22.8 4 11 12.9 25.3 11.2 38.6-11-14.5-26.4-27.1-27.8-46.8-.5 16.1 11.7 31.9 22.2 46-29-9.8-16.8-9.2-29.7-22.8 7.4 9 .1 15.1 32.4 28.1 0-.1.1-.2.1-.3a.37.37 0 01-.1.3c5.9 6.4 7.6 16.1 9.8 26.2-1.8-2-5-5.3-8.4-8.8-1.1-4.1-3.7-10.4-1.4-17.4-1.2 3.8-2.6 10.1-.2 15.8-8.1-7.5-16.7-19.4-24-28 7.6 11.2 18.4 26.7 28.5 37.8-23.2.4-16.3-4.1-26.9-8.7 4.4 3.6 7.4 11.3 29.2 11.5 11.7 14.8 17.7 34 32.1 48.6-1.6-.2-5 0-8.9-1-4.1-4.2-10.2-9.4-12.6-16.9 1.1 5.2 5 10.7 9.7 16a50.81 50.81 0 01-10.7-5.4c-1.1-2.5-5.5-5.6-9.7-8.8.1-.7.2-1.1.2-1.3a4.91 4.91 0 01-.3 1.2 9.07 9.07 0 01-2.2-2.7 22.44 22.44 0 002.5-5.2 21.63 21.63 0 01-2.7 4.7c-1.1-1.9-.8-6.8-3.7-10.5 1.6 2.3 1.2 4.2 3 11.4-.4.6-.9 1.3-1.3 2-2.2-1.3-4.4-2.6-6.5-3.7.4-7.6 3.4-17.2 2.7-26.4.2 7-2.9 15.8-4.6 25.3-5.9-2.7-12.5-7.1-18.5-10.7 4.6 3.2 10.1 7.9 17.2 11.8-4.7.3-9.1-4-15.6-3.9 4.7.1 10.4 5.1 16.5 5.2-.3 1.6-.6 3.3-1 5.1-4.6-.3-7.4.6-14.7-4.5 2.5 2.3 6.4 6 14.4 5.9a191.77 191.77 0 01-6.9 24c-3.6-8.1-17.7-29.7-16.3-41.2-2.8 20.7 22.8 41.5 8.2 63.5-.7-2.7-7.5-9-6-17.1-1.9 2.8 1 10.6 5.4 19.1-3.8 9.1-4.9 22.5-2.7 33.2-5.9-4.5-12.5-9.3-19.8-15.2.4-1.4-6.7-4.9 2.4-15 2-.3 2.8-.6 3.8-1.9s2.5-3.4 6-7.4c-2.1.3-1.5 3.9-8.9 8.2 6.3-7.4 13.2-17.1 1-26.9 6.4 5.1 8.3 15.1-.2 22.7.5-4.7-6.1-6.9-8.7-11.5 1.1 4.2 8.9 6.1 7.5 12.8-.4 1.3-8.8 6-8.2 14.8l-3.9-3.3c-7.4-28.7-21.5-38.5-.7-63.8-6.8 7-15.3 14.4-13.1 26.5a116.13 116.13 0 01-4.6-31.2c4.1-2.7 9.1-9.6 9.6-16.7-1 4.4-3.4 11.3-9.5 14.9.5-15.1 10.5-34.3 4.1-50 5.6 24.5-15 44.5-6.7 79.3-3.9-7.4-12.9-19.5-18.2-26.8 10.2 15.5 21.9 37 27.2 56.3-40.1-35.6-56.2-74.1-40.2-125.2-4.6 11.4-6.5 26.4-10.3 40.3-5.8-14.8-18.2-38.5-24.3-50.6 9.5 22.3 21.4 51.7 27.4 78.2a285.87 285.87 0 00-34.1-29.2 301.54 301.54 0 0127.2 26.4c-9.3-3.6-14.4-4.2-25.5-12 8.8 9.3 26.4 10.9 34.7 22.8 3.9 11.5 7.6 23.6 16.2 34.7-11.2-6.4-20.7-20.4-29.6-29.9 30.7 44.6 24.5 20.8 59 63.7a122.28 122.28 0 01-18.2-2.7c-11.2-13.4-27.6-26.3-42.8-37.7 10.3 11.6 26.4 19.6 34.9 35.6-22.6-6.1-44.5-23.3-49.3-48.3-.4 9.4 6.7 20.1 12.7 28.7-12.9-8.9-20.8-26.6-30.6-38.5 10.9 18.4 22.2 41.5 43.5 53.5-12.6 4.5-27.9-2.5-39.1-10.8 5.1 4.6 13.3 9.6 21.4 13.3-3.5.5-9 2.2-13.9 1.8 14.7 1.8 32.9-5.7 47.2 4.4-12.3.3-25.2 11.2-38.9 7.1 19.2 5.8 31.4-10.6 58.1-.6-12.4 7.7-15.3 9.8-31.1 6.5 12 4.8 23.1 1.3 35.3-5.6a77.9 77.9 0 0019.8 1.9c7.6 7.4 18.7 16 27.2 24.8-1.5.3-2.2.4-5.8 1.2-3.8-2.2-6-2-14.7-7.5 2.3 1.5 8.3 5.9 13 7.7-2.5.2-4.6.2-8.9.5-6-1.2-15-2.8-18.6-10.9 1.4 4.6 7.3 9.5 13.3 11.2-6.2.1-14-.1-20.1-4.8 6 5.3 16 6.8 26.3 6.5-3.4 4-11.4.4-17.7 1.1 6.3-.5 12.7 5.2 20.8-1.1 4.1.4 9.9-.5 15.1-1 5.9 7.6 10.5 17.6 14.9 28-1.8-1.3-6.1-1.5-8.6-3.2 1.9 1.7 5.6 1.8 9.1 4.3a121.45 121.45 0 016.6 20.1c-5.3-1.4-11.8-1.7-20.1-3.5a49 49 0 00-8.7-13c-.2-5.2-6.6-12.8-5.2-20-1.8 4.8 2.1 11.9 3.4 18.3-8.2-6.3-20.4-16.1-30.4-20.6 7.4 3.9 15.3 10.9 23.3 17.9-4.9-1.1-12.1 0-18.7-2.7 4.8 2.7 14.2 2.9 20.9 4.5 3.9 3.1 8 8.8 11 14.3-10.8-3.8-25-7.2-37.3-11.7-1.1-2.5-8.1-11-9.6-13.7 1.9 3.8 3.9 5.7 7.9 13-1.3-.5-1.7-.7-5.7-2.4-2.5-11.1-16.8-20.4-19-33.8.4 10.5 12 22.1 15.9 32.3-17.6-8.4-28-25.4-41.6-39.1 10.2 11.8 19.6 29.4 34.4 39.7-14.1.1-27.4-8.4-42-12.7 42.5 21.9 28.6 8.1 61.1 23.1l.9 2.1c-15.2 1.3-35.6-8-47.6-16.1 10.9 8.5 30.5 20 46.7 19.9a.1.1 0 00.1-.1l-.1.1c1.1.1 2 .2 2.9.3 9.7 14.6 20.2 32.2 4.7 48.3-8.3-5.7-6.7-16.3-5.9-26.9.3-5.5-6-15.2-1.7-21.7-5 3.9 2.9 21.1-2.2 35.5-3.8-5.9-12.3-12.7-17.5-19.8 4.2 6.6 12.2 14.9 17.8 23.2.9 4.2 3.2 9.3 8.1 12.3-3.3 6.6-1.5 17.8 3 25.1-6.3.8-9.7-1-18.3-12-2.8-5.7-1.1-12.5-2.6-19.7.4 4.9-1.9 11.1.4 16.6-3.4-4.9-7.1-11.8-12.6-16.3 6 5.7 9.6 16.1 16.2 24.7-2.9-.9-7.5-1.2-14-3.5.1-.5.5-1.1 1.4-4.2a39.62 39.62 0 01-1.7 4.1 14.69 14.69 0 01-2.4-1.2 12.3 12.3 0 002.3 1.4 51.85 51.85 0 00-2.9 7.3c-10.7-14.6-2.6-27.6-3-45.3 0 6.6-2.6 15.6-4.3 23.8-1.7-10.1-2.1-26.7-14.1-31.9 10.9 5.7 10.7 22 11.5 34.5-1.5-2.3-9.4-12.4-11.5-14.7 1.6 2 10.7 15.6 11.8 17.8.2 6.9 7.7 23.2 10.8 27.1-15.6-10.4-21.7-33-31.9-49.7.9-15.7-11.2-14.2-6.9-34.8-3 8.6-5.3 6.1 3.9 30.3-4.5-6.3-8.2-9.9-16.2-16.2-2.1-3.9-8.2-13.2-8-20.8-.6 4.2 2.2 13.3 5.1 18.5-12.9-9-22.3-20.7-32.7-32.9 8.7 12.1 18.2 25.9 31.6 36.8-13.5-2.3-24.7 12.2-38.7-3.8 12.2 16.4 21.1 4.4 42.3 7.2 8.7 7.3 16.1 20.3 20.6 32.8a92.93 92.93 0 00-14.4-4.7c-5.2-4.9-11.8-15.3-20.5-18.6 6.7 3 11.8 11.3 17.4 18-9.8-1-21.2-6.5-32-11.3 5.5 3.6 11.6 5.8 19.6 9.9-13.7.4-32.4.2-45.3-3.3 21.5 7.7 53.8 4.1 75.4 15.5-14.6 4.4-29.6 10.2-44.9 2.8 12.9 7.9 33.4 5 47.7-.7 5.7 14.5 13.3 30.5 29.6 38.5-8.9 2.5-18.3-4.3-28.8-6 9.4 1.8 20 11.6 32.1 7.6 8.1 3.7 18.2 5.1 26.3 10.2-7.9 5.7-10.9 10-25.3 8.5-4.5-5.5-13.8-8.9-19.2-14.1 3.1 4.9 11.3 6.9 16 13.5a86.77 86.77 0 01-10.4-3.1c-8.4-7.9-18.4-21.9-30.2-29.2 5.9 4.8 14.4 16.1 24.3 27.2a108.63 108.63 0 00-15.5-3.9c-2.9-5.2-9-9.3-16-13.2-.9-7-15.8-18.2-6.5-26.3-5.9 4.8-5.2 6.1 3.8 24.8-15.4-7.1-31.1-17.1-37.9-35 7.4 19.4 14.2 25.6 34.9 37.8-5.9-1.3-12.8 3.4-20.4 3-2.9-3.9-2.4-15.5-9.1-17.4 4 1.5 5.2 9.2 6.8 16.1a5.84 5.84 0 01-1.2-1.5c0 .2.1.6 1.3 1.8a9.25 9.25 0 004.8 5.7c-3.9 1.1-6.9 4.7-11.9 8-4.2-3.4-22.3-11.2-33.2-15.4 9.3 4.9 19.7 9 30.4 16.8a56.5 56.5 0 01-22.4 4.2c6.9.4 15.2.4 24.1-3 2.8 1.9 6.7 4.8 11.1 5.9-3.1 13.1-52.4-4.8-59.2-9.6 11 8.5 36.6 15.4 51.8 19.9-12.1 12-24.2 15.1-41.7 19.2 17.5-2.2 38.8-7.3 51.1-24.3a5.93 5.93 0 00-.8.8c.7-.9 1.4-1.7 1.9-2.3-2.8 17.8-24.3 27.7-43 35.4 18.6-6 45.6-14.6 49-41.1 8.3-8.9 30.5-3.3 42.6 1.3-4.6 2.8-11.7 9.7-18.5 14.1-2.9-3.1-7.6-6.3-10.8-8.5 2.2 2 6.3 4.9 9.9 9.1-7.8 4.7-19.6 6.7-28.3 12.8 8.2-5.1 19.4-5.8 29.9-10.9a46 46 0 0011.8 10.4c-8.2 8.1-21.1 13.2-30.7 21.6 6.2-4.5 18.6-8.6 33.6-19.7 6.3 4.2 12.1 9.1 21.1 12.7-12.4.4-28.5 9.1-41.7.4 13.8 11.8 35.7-2 51.7 4.7-4.5 2.8-15.2 7.2-22.9 6.4 8 1 14.1-.6 25.1-5.1a52.84 52.84 0 0113.3 11.2c-5.6 24.8-6.3 52.3 4.5 76.6.7 12.6 6.5 29.8 11.7 42.2-168.6 84.8-105.5 81.7-147.3 99.9h1.3c-13.2 6.8-25 11.6-32.2 18.5-16.1 15.4-22.4 16.7-24.3 15.9v87.4h1054.4v-28.5c.1.1-3.6-.1-9.4-2.1zm-691.1-264.3a1.38 1.38 0 01.4.3 1.38 1.38 0 01-.4-.3zm7.5-4.5c1.4 0 2.8-.1 4.2-.1-2.6 1.1-5.1 1.5-9.4 3a17.22 17.22 0 00-3.9-2.3 85.11 85.11 0 019.1-.6zm68.9-70.6a86.65 86.65 0 016.2-8.5c11-5.2 27.2.1 39.6-6.7a6.73 6.73 0 01-.1 1 55.22 55.22 0 01-7 5.7c-14.5.7-28.9 7.6-43.1 15 1.3-1.9 2.8-4.1 4.4-6.5zm63.8-77.4c-.4-.2-.9-.3-1.3-.5-.2-.3-.5-.6-.7-.9a18.61 18.61 0 012 1.4zm163.3-191.2c.5-.3 1-.5 2.9-1.4-4.3 5.6-10.8 12.5-19.7 14.1 2.5-2.3 6-5.5 9.5-9.1l.3-.3c.1 0 .1 0 .1-.1h.4c.1 0 .1-.1.2-.1 1.6-.8 1.7-.7 6.3-3.1zm-6-36c4.2 6.8 5.4 8.6 1.4 19.8-5.8 7.1-8 15.9-17.2 21.5a5.5 5.5 0 01-.9.7l-.2.2a2.19 2.19 0 01-.5.3c-.7.5-1.6 1.2-3.3 2.5a142.05 142.05 0 01-27 15.7c34-32.3 16.8-35.2 47.7-60.7zm-23.9 72.6c1.1.4 2.1 1 5.7 2.4 0 2.5.1 4.3 1.4 9.3-2.1 5.9-5.2 4.8-10.7 13.4-8.7-5.4-21.1-8.4-31.1-13.7 11.3 5.1 21.8-4.9 34.1-1.5-9.8-6-9.4 5.5-40-2.3 11.9-5.2 25.3-9.7 40.6-7.6zm-81.9-55.2c.4.3 0 0 1.4.7l-2.1 1.8c.2-.8.5-1.7.7-2.5zm-6.1 18.1c1.1-2.9 3-7.7 4.5-12.5 1-1.1 1.9-2.1 4.2-4.3a43.17 43.17 0 007.7 2.4c-1.7 5.6-4.3 12.8-10.8 17.4 3.4-3.6 5.4-10.3 6.6-16.3a41.8 41.8 0 01-16.1 23.9c1.1-3.5 2.5-7 3.9-10.6zm11.8-.9c1.4.7 3.2-5 12.1-6.6-2.8.2-8.5 1.9-11.5 5.8 2-3 3.4-7.7 4.5-12.6 5.6 1.6 10.7 6.4 15.9 10.8-.3 8.1 11.3 16.6 4.1 25.1-9.4 16.1-36 17.3-52.1 21.1 12.7-28.5 2.3-20 27-43.6zm-189.9-142.5a18.65 18.65 0 011 2 18.65 18.65 0 01-1-2zm80.7 10.9c-2.5-12.2 3.9-26.3 13.7-36.5-6.2 12.8-.1 29.8-5.3 45.1-2.9 2.1-6 4.2-9.8 6.7a44.82 44.82 0 001.4-15.3zm-4.3 18.1a.35.35 0 01.1-.2c0-.1.1-.1.1-.2v-.1c0-.1.1-.2.1-.3a.35.35 0 01.1-.2 2.09 2.09 0 01.4-.6c.1-.1.1-.2.2-.2a1.76 1.76 0 01.4-.5c.1-.1.1-.2.2-.2a2.65 2.65 0 01.6-.5 9.17 9.17 0 00-1.8 2.6c0 .1-.1.1-.1.2s-.1.2-.1.3c0-.2.1-.3-.2-.1zm-38.2 41.3c12.3-9.3 27.1-18.4 36.2-33.1a5.74 5.74 0 00.4-.7v-.1c0-.1.1-.1.1-.2a.1.1 0 01.1-.1c0-.1.1-.1.1-.2s.1-.3.3-.4c.1-.1.1-.2.2-.3s.1-.2.2-.3c0 .3 0 .2-.1 1.6 3.3-2.1 6-4 10-7l.1-.1c.3-.2.5-.4.8-.6s.5-.4.7-.6c.7-.6 1.5-1.2 2.3-1.8q1.5-1.2 3.3-2.7c-1.9 7.6-4.4 18.3-9.7 27.3-5 5.9-10.6 13.5-16.2 20.6 1.7-11.3 6.9-22.3 8.7-35-.3.2-.7.4-1 .6-6.5 17.3-9.6 41.2-27 53.4a69.49 69.49 0 01-8.1 4.3c-4.9.9-7.1 1.5-11.6 4.5-10.5 4.1-27.9 8.4-39.7 9.3 14.9-13.9 32.7-25.6 49.9-38.4zm-35.6-57.1a165.58 165.58 0 0012.1 14.6c-4.2-2.1-9.7-5-15.8-8.4 1.2-2.2 2.5-4.4 3.7-6.2zm-5 8.7c3.2 2.1 6.4 4.2 9.4 6a91.67 91.67 0 01-11.2-2.4c.6-1.2 1.2-2.5 1.8-3.6zm-7.7 16.4c.9-2.4 2.9-6.9 5.3-11.6a84.86 84.86 0 0017.2 4.4c.6.4 1.2.7 1.8 1.1-3.7 8.2-13.3 17.3-21.9 23.1a49.53 49.53 0 00-3.5-14.2c.3-.8.7-1.8 1.1-2.8zm-4.4 46.5c.7-9.8 7.5-13 11.9-23.6a38.25 38.25 0 01-8.6 11.5c.9-2.6 3.5-8.7 3.5-14.2 7.2-5.5 18.4-15.8 22.1-26.2 44.2 24.8-12 41.6-30.3 57.4.5-1.6.9-3.2 1.4-4.9zm-76.1-1c-4.7-10.3-6.2-23.7-13.8-34.5.5-8.9-3-20.1 3.7-31 8.6 22.4 11 48.3 14.8 73.2a56.72 56.72 0 01-4.7-7.7zm-88.6 59.6a8.17 8.17 0 00-.1-1.4 2.36 2.36 0 01.1 1.4zm3.9 159a5.9 5.9 0 01.4.8 5.9 5.9 0 00-.4-.8zm-86.1 71c-.4.3-2.7 1.3-7.3 7a34 34 0 01-10.4-4.3c5.8-3.1 10-10.4 18.6-3.2zm5.7-2.6l-1.5.5c-.9-.5-.1.1-3.7-2.4 2.1.3 4.5.8 7.3 1.4-.7.2-1.4.3-2.1.5zm19-1a74.22 74.22 0 00-9.7-.4c-5.4-4.5-17.9-.3-25.2-7 8.5 1.9 17.9-9.4 35.2 7.4zm136.9 235.1a106.35 106.35 0 0017 8.1c-4.2.7-8 1.3-11.5 1.9-2.3-2.5-4.5-5.1-6.7-7.6.3-.5.1.1 1.2-2.4zm49.1-323.2c6.4 20.3 25.6 13.3 9.6 46.5-1.1.4-3.6 1.5-6.8 2.5-9.5-6.3-19.3-13.4-28.6-23.1a26 26 0 002.8-20.5c10-3.2 18.5-13.8 31.5-14.8 4.2 7.7 13.6 16 9.4 33.3-1.6-10.6-17-14-17.9-25.9a5.78 5.78 0 000 2zm9.6-9.5a51.69 51.69 0 015.4-.3 45.77 45.77 0 013.4 12.8c-2.3-3.2-1.5-1.9-8.8-12.5zm17.9 46.9a98.43 98.43 0 01-9.4 5.2.37.37 0 00.1-.3c2.6-7.6 2.8-19.6 8.7-27a53.9 53.9 0 00-5.1 6.1v-1.2c4.2-5.3 7.5-12.3 13.9-18.8-2.3 11.6-3.4 24.2-8.2 36zm73.4 12.9c-2.3 2.7-1.3 2.3-5.5 6.4-5.8-.1-12.6-2.1-19 2.5a78.05 78.05 0 018.4-9.8c4.9-.4 9.6-.9 18.6-2.1-.8 1-1.7 2-2.5 3zm74.6-87.8c9.5-2.4 19.2-5.1 30.1 0-2.1 7.2-9.4 15.4-16.8 23.2-5.1 2.2-11.9 4.6-16.3 10.6 3.2-13 11-10.4 12.2-30.4 1.5.4 3 1.7 5.3 3.6-4.4-6.2-14.2-4.6-23.1-5 2.7-.6 5.6-1.3 8.6-2zm-2.8-2.7zm.1 0l2.1-.3a11.47 11.47 0 01-2.1.3zm19.7-31.9a5.63 5.63 0 01-.7 1.8c0 .5-1.5 1.5-2.6 5.4-3.9 2.5-5.8 13.8-24.7 19-9.9 3.2-28 2.6-37.4 1.5 17.7-15.3 41.6-22.6 65.4-27.7zm-75.1 37.4c20.7 3.2 44.1.2 67.3.6-.5 9.4-6.8 16.9-13.2 26.1-.1-5.6-7.4-10.9-13.5-16.7 2.8 4.8 11.1 7.4 12.4 19.4a30.11 30.11 0 00-2 8.6c-7.5 19.7-34.8 18.7-54.6 22.2 12.5-12.1 23.8-12.5 41.7-17.2-9 1.4-19.3.2-28.6 5.1 4.1-6.4 10.6-9.7 17.4-14.3-2.8 1.1-6.4 1.9-10.8 4.8.3-8 2.3-20.6 13.2-23.2-15.4 1.4-10.8 21.3-21.1 29.8.4-5.6 2.5-11.9-1.8-18.2 3 5.1 1.9 12.2-.1 19.7-.5.3-.8.6-6.3 6.1h-.1l-.1.1-.1.1c-.1.1-.4.3-1.2 1h-.1l-.1.1-.1.1-.1.1c-.1 0-.1.1-.2.1a.1.1 0 00-.1.1l-.1.1-.1.1a.35.35 0 01-.2.1.1.1 0 00-.1.1 82.27 82.27 0 01-33.6 8.1c10-20.7 19.7-44.4 36.3-63zm-5.6 56.4c.4-.2 1.4-.7 2.7-1.3-.2.2-.4.3-2.7 1.3zm9.4-5.7zm-55.6 35.9c.5-.6 1-1.1 1.5-1.7 4.4 0 10.5-.2 16.8-.7-8 4.7-9.8 16.9-20.8 19.7 2.3-2.8 8.4-8.1 8-13.6-.7 4.3-7.1 11.9-11.5 14.5-.8.4-6.9.7-19.5 2.7a128.32 128.32 0 0025.5-20.9zm6.1-159.8c0 .3.1.5.1.8-.1-.3-.1-.1-.4-.7a.37.37 0 00.3-.1zm-18.8-1.8a24.81 24.81 0 004.7-12.3 70.91 70.91 0 0110.8 14.4c-4.4.3-11.3-.7-17.9.3a18.1 18.1 0 002.4-2.4zm-7.3 5.1c5.6-1.8 15.3-2.3 23-2.7 4.1 8.9 3 20.1.4 30.7-11.3-12.7-23.5-2.6-24.2-27.7a6.89 6.89 0 00.8-.3zm-1.9.9c-4.3 35.4 41.8 10.6 14.3 55.6-8.8-14.1-22.3-24.3-30.6-40.2 2.5-6.5 7.9-11.7 16.3-15.4zm-19.6 56.9c.7.9 1.4 1.8 2 2.6-9.4 2.3-16.1-3-19.3-12.9.9 2.9 2.4 7.4 4.5 10.4-6.1-4.1-14.7-8.9-19.1-16.4 4.4 7.9 12.6 14.8 22.3 20.5-3.3.9-4 8.4-13.1 7.6 3.4.9 6.1 1.7 14.2-7.1-.1 0-.2-.1-.3-.1.1 0 .2.1.3.1l.2-.2v.1c21.9-2.3 24.2 24.3 20.3 42.4-4.7 3.9-9.7 10.6-14.1 16.5-.1-8.1-.8-17.8-5.4-26.6 2.4 0 7 .3 10.3.7a100.31 100.31 0 00-10.7-1.5c-2-4.3-6.5-8.9-7.6-14.5.4 3.8 3.2 8.3 6.2 14.4-2-.1-4.1-.2-6.3-.1-1.5-2-6.7-3.6-7.8-7.6.3 2.2 1.5 2.9 6.7 7.6-5.8.2-12.7 2.5-18.9 6.6 7.8-12.3-.2-32.6 13.7-44-13.4 9-8.7 26.7-16 41.2.7-7.8 4.9-21.6-3.2-29.9 7.5 8.5 1.3 21.2 1.1 32.6a19.91 19.91 0 01-8.4 5.4c-7.1-13.7-11.2-31.5-16.2-48.4v-.4c0 .1.1.2.1.3.7-2.3 2.9-7.8 9.8-16.9 4.8-3.4 15.1-5.7 17.1-14.8-1.5 5.9-8.6 9.5-15.2 11.9 5.6-9.1 8.6-22 13.3-32.9-4.3 7.8-7.8 18.9-13.5 28.3 0-6.5 4-14.1 3.7-22.5a83.88 83.88 0 01-17 41 6.37 6.37 0 01.2.7c-.1-.2-.2-.3-.3-.5l.1-.1a82.73 82.73 0 01-2.6-30.5c.8-1.5 13.5-16.7 19-21.9-6.5 5.3-9.7 9.1-18.5 17.9.3-12.3 12.1-21.1 16-33.5 7.5.3 16.1 4.4 22.4 10.4 3.4 22.8 14.7 45.6 30 64.1zm-68.2 27.7c1 .6 1.7 1.1 3.3 2.2.9 10.4 10.5 21.8 7.6 33.8-5.9-9.6-8.2-23.4-11.9-36.6a3.74 3.74 0 001 .6zm-2.1-4.5a141.7 141.7 0 00-8.5-20.3c2.2 1.5 4.3 4.5 10.3 9.9.6 3 1.6 8 2.6 12.6a42.85 42.85 0 00-4.4-2.2zm21.5-106.6c.4.8-.3.1 1.9 3.2-4.4-.8-9-6.5-18.2-12.1 5.1-.4 11.2-.9 18.3-1.4.1.1.1.1.1.2v-.2a33.82 33.82 0 0116 2.1h.2c.3.1.5.2.8.3v.2a82.78 82.78 0 00-1.2 21.1 62.24 62.24 0 00-12.4-8.5c-1.2-1.2-2.4-1.6-4.8-5.3-.6-2.4-.1-2.8 1.2-9.5-.1 1.1-1.8 3.6-1.9 9.9zm25.2-32.8c-.2 3.4 1.4 5.7-1.3 10.4-2.5-2.8-4.4-4.9-8.1-9.2 1.4-5.6 8.7-10.6 10.9-18.2.7 3.4-2.2 12.6-1.5 17zm-14.2 45c-.7-.5-.1.3-2.8-2.2 1 .7 1.9 1.5 2.8 2.2zm43.1-82.7a1.38 1.38 0 00.3.4c-.2.1-.3.1-.5.2-2.2 6.7-4.2 12.9-7.4 18.5-.5.4-1.6 1.4-2.9 2.6s-2.8 2.6-4 3.8c-.3.4-1.8.5-8.2 5.1 1-7.8 6.8-15.2 10.3-24.3 3-1.7 6.4-3 12.3-5.7-.1-.1 0-.3.1-.6zm-6.7-8.2a13 13 0 00.8-3.4 44.78 44.78 0 005 10.2c-2.1.9-6.7 2.3-10.2 3.8 1.1-2.9 2.2-5.4 4.4-10.6zm-12.9-9.9a53.62 53.62 0 0110.6-2.5c3.1 9.8-4.3 18.1-8.8 28.9.4-7.5.9-16.9-2.9-26a4.87 4.87 0 011.1-.4zm-9.6.7a40.79 40.79 0 004-4.4c.4.8 0-.1 1.9 3.1-1.3.5-2.6.8-7.6 3zm-21.4 32.6c.7-5.9 2.5-14.9 8.3-20.7a78.94 78.94 0 0119.8-11.5c3.1 11.1 2.6 27.7-3 38.4.2-5.6-2.9-17.7-6.4-23.5 1.3 3.5 4.5 11.1 4.5 17.6a5.61 5.61 0 00-3.6-2.6c10.6 4.4-5.3 17.3-8.9 23.9-4-5.5-10.9-12.3-10.7-21.6zm-13.6 32.3a34.64 34.64 0 0017.8 2.5c1.2 1.8 1.7 2.5 4 5.7-9.5-.5-20.1 2-31.3 3.7-.9-.6-3-2.1-5-3.5.7.6 1.5 1.3 4.4 3.7-4.6.3-12.9 3.8-17.5-1.8a28.48 28.48 0 007.1-9.2c5.3-.9 13.1 0 19.8-.9a6.37 6.37 0 01.7-.2zm-3.2-1.5c-4.4.7-10.4.4-16.9 1.7.7-2.2 1.9-4.8 1.1-12.7h.4c2 1.5 3.9 3 5.8 4.5a56 56 0 009.6 6.5zm-15.5-15.2c.9.8 1.4 1.2 3.6 3.1-1.2-.8-2.5-1.6-3.7-2.4 0-.2.1-.4.1-.7zm-2.5-3.1c.6.7-.5 0 2.4 3a6.37 6.37 0 00-.2.7c-.8-.5.1 0-3.1-1.9a5.08 5.08 0 01.9-1.8zm-2 4.6c0-.2.1-.3.1-.5.6.4.3.2 1.3.9-.4 0-.9-.1-1.6-.1.1-.1.1-.2.2-.3zm-6.3-4.9q2.85 1.8 5.7 3.9c-.1.2-.1.3-.5 1.3-1.2-.1-2.6-.2-5.8-.5.2-1.6.4-3.2.6-4.7zm-1.3 9.6c.2-1.1.3-2.2.5-3.3 2 .3.8.1 5.2.8-.8 2-2.5 4.9-6.9 9.9.4-2.5.9-5 1.2-7.4zm-4.9 22.4l1.8-6.9a44.66 44.66 0 012.2-4.7 7.76 7.76 0 00-.3-1.9c0 .2.2.7.4 1.7 1.7-3.7 4.9-5.1 7.6-12.9 1.7.1 1 .2 4.4.3-.2 4 .5 7.6-2.4 13.1a21.16 21.16 0 01-7.5.2 21.2 21.2 0 007.2.5 27.74 27.74 0 01-6.5 7.1 37.57 37.57 0 01-2.7-8.2c0 .1-.1.1-.1.2a33.81 33.81 0 002.2 8.5c-1.5 1.1-2.5 1.6-6.6 4.9a5 5 0 01.3-1.9zm2.8 74.7c-1.7-11.2 7.8-23 4.6-35.9 2.3 9.6-5.8 20.7-7.1 32.3-7-7.4-8.2-19.3-9.3-31.5 2.1-1.6 2-.8 6.2-5.3 2.7-.9 2.5-2.8 8.7-6.4-.1-.1-2 .6-7.6 5a33.62 33.62 0 003.6-6.5c.3-.5 3.8-2.7 5.3-5.3-.1.1-.6 1.2-4.8 4.2.4-.5-.3-3.5 4.9-8.4-3 2.1-2.6 1.9-8.2 12.7-.3-1.6-4.1-4.3-1.6-7.1-1.9 1.9-.6 3.7 1.2 7.8a26.4 26.4 0 01-7.6 7c-.7-8.3 6.7-17.4 6.8-28.8a.1.1 0 01-.1.1l-.1.1.1-.5v.4c1.8-2.7 5.2-6 9.6-9.4 3.8 5.6 13.4 4.4 21 3.3 4.3 2.2 11.7 11.7 21.7 16.2-2-.2-1.6-.7-7.6-.9a20.55 20.55 0 000-2.5 19.67 19.67 0 01-.2 2.5c-8.8 2.3-18.7 2.5-27.5-2.1a35.43 35.43 0 0011.2 5.5c3.8.8 10.1-.6 15.7-.8-2.6 7.6-10.1 13.7-15.1 22.1.8-3.8 0-11.9-.3-18 .4 16.9-6.7 35.1-5.4 53.5-4.6-5.5-12.7-12.4-12.8-21.8-.7 9 6.9 17.1 13.2 25.7.9 7.6 2.6 13.8 4.5 22.9-2.1-1.3-3.4-3.7-10.3-8.4a236.36 236.36 0 00-12.7-21.7zm-53.6 43.5c-.5 0-1.1-.1-1.6-.1-.2-.4-.4-.7-.6-1.1 1 .4 1.9.8 2.9 1.2zm8.9 14.8c-1.9-2.8-5.1-6.9-7.8-10.6a26.69 26.69 0 009.6-.4c7.7 2.7 14.2 5.6 22.2 8.5-9.5 3-4.9 25.5-18.9 33.9 3.3-9.8 1.5-21.7-5.1-31.4zm1.8 37c19.2-5 10.8-27.4 23-39.2 7.1 2.3 15.7 2.4 23.9 6.3 1.8 9.6 3.8 20.9 8.7 30.6-12.1-5.9-18.5-9.8-19-28.1-1 1.7.3 3.6.4 9.9-1.8-3.4-9.1-7.7-13.7-10.9 4.4 4.2 12.1 7.3 14.5 16.2-4.7-3.1-13.7-3.9-19.4-9.4 4.4 5.1 13.1 7.3 20.1 11.4 3.2 8.1 12.8 11.8 20.5 17 5.5 8.8 16.6 19.1 26.2 24.8a181.35 181.35 0 00-54.6 26.5c-2.3 1.6-3.3 2.2-7.5 5.2a55.94 55.94 0 00-4.7-11.8c9.8-3.8-.8-7.7 23.6-13.3-5.7.9-14 .7-18.1 6.2a22.92 22.92 0 001.9-8.3c1.6-1.2 9.4-9.4 13-13.3-2.5 2.5-10.5 9.3-13.1 11.9-3-11-2.9-24.7 6.5-34.4a38.81 38.81 0 00-9 13.9c-.2-2.1-1.3-6.3-2.2-10.3 1.5 8.4-.1 16.8 1.6 27.9-5.1-2.9-8.9-9.4-10.1-17.1.9 5.5 1.5 13.1 10.2 19.1 0 5-1.1 9.7-6.8 13.7a54.32 54.32 0 00-6.9-9.6c.1.1.1.2.2.3-.3-.4-.2-.3-.7-.9-.1-.1-.2-.2-.2-.3l-.1-.1c-8.2-10.1-17.7-21.5-8.2-33.9zm-31 40.6c-2.3-4.3-4.9-7.7-8.8-14.2a44.37 44.37 0 012.4-8.4c3 1.5 9.4 3.3 15.2 4.8 4.1 5.2 7.3 9.6 17.9 9 7.5 10.2 15.1 23.3 18.6 35.8l-.4.4-.4.4c-3.6-18.7-27.3-22.9-44.5-27.8zm-30.9 56.5l-.3.3a49.19 49.19 0 01-12.7-9.4c5.8-3.1 16-11.1 21.3-14 5.4 2.2 9.5 4.2 16.5 6q-4.5 2.7-9.3 5.7a25 25 0 01-.9-6.7 24.12 24.12 0 00.5 7c-1.7 1.1-1.5.9-7 4.4-2.4 1.7-4.9 3.9-8.1 6.7zm18.8 10.7c-4.7-1.4-9.9-5.1-15.8-8.5 1.4-1 4.1-3.2 7-5a37.82 37.82 0 0010 14 6.12 6.12 0 00-1.2-.5zm3.9 1.5c-2.8-3.9-9.6-8.2-12.5-15.2 1.4-.8 3.6-2 7-3.7 5.1 5 11.9 14.7 14.3 22.6-2.7-1.3-5.7-2.5-8.8-3.7zm26.3 14.6a66.5 66.5 0 00-13.9-9.3c-2.3-7.4-8.9-18.1-17.1-24.7 8-3.8 13.9-8.9 24.1-9.3-1.9 4.7-4.6 13.3-11 16 5.8-1.9 9.9-9.7 12.8-16.4 5.8-1.4 12.8-5.9 17.3-11.6 1.5 1.9 4 5.7 6.3 9.2-8.8 14-13.8 28.9-18.5 46.1zm16.4 165.8a30.58 30.58 0 002-2.5 17.23 17.23 0 01-.7 2.1 132.37 132.37 0 01-7.5 18.3c-5.9.7-11.7 1.4-17.2 2.2a154.3 154.3 0 0023.4-20.1zm-43 13.7a119.27 119.27 0 00-14 11.9c-11 3.7-21.9 6.1-32 8.4a55.21 55.21 0 005.6-8.6c12.4-5.4 25.7-7.4 40.4-11.7zm-45 13.6a38.73 38.73 0 01-4.1 7.5 156.86 156.86 0 00-21.2 6.2c8.4-6.4 16.9-12.2 25.3-13.7zm106.4-11.2a124.75 124.75 0 018.8-11.5c.9 3.6 1.9 7.5 2.9 11.5a114 114 0 00-11.7 0z" fill="#fff"/>
  </g>
  <path d="M910.33 7.73c-164 46-391 18-391 18h-3.7s-425 449-355 551c32.9 47.9 354 281 354 281h5.7zm-408.8 469.5l-.2 157.7-.3 98.3-.5 94.4h0c-62.6-37.5-289.8-232.6-316-270.8-21.4-31.1-31.9-102.6-36.5-182.9h0l43.9 12.3 44.3 12.6 88.6 25.5 88.4 26 44.2 13.1 42.1 12.8.9.3h0l.9.3v.4zm.1-33.5l-1-.3h0l-1-.3-42.5-11.3-44.5-12.1-88.8-24.5-88.7-25-44.3-12.7-44.2-12.8h0c-5.8-144.8 4.9-305 4.9-305 122 34.2 297.1 15.7 349 9.1h0l.5 94.7.3 98.3.2 196.6zm385.2-69.8c-4.6 80.2-15.2 151.7-36.5 182.9-26.2 38.1-253.4 233.3-316 270.7h0l-.5-94.4-.3-98.3-.2-157.7v-.4l.9-.3h0l.9-.3 42.1-12.8 44.2-13.1 88.4-26 88.6-25.5 44.3-12.6 44.1-12.2zm1.4-29.1l-44.2 12.8-44.3 12.7-88.7 25-88.8 24.5-44.4 12.1-42.5 11.4-1 .3h0l-1 .3v-5.4l.2-196.6.3-98.3.5-94.7h0c51.9 6.6 227 25.1 349-9.1 0-.1 10.8 160.1 4.9 305z" fill="none" stroke="#000" stroke-miterlimit="10" stroke-width="10"/>
  <path d="M518.03 860.33h-4.3l-.7-.5c-13.1-9.5-321.8-233.9-354.6-281.6-11.5-16.8-10.8-43.4 2-79.3-7-31.8-12-73.5-15-124.8v-3.4l3.2.9 43.9 12.3 24.5 7c4-6.3 8.3-12.8 12.7-19.4l-39.6-11.5-46-13.3v-1.9c-5.8-143.2 4.8-303.6 4.9-305.2l.2-3.1 3 .8c115.7 32.5 280.5 17.1 339.9 10 13.4-14.6 21.3-23 21.6-23.3l.7-.8h5.1c.6.1 57.5 7 133.8 8.2 70.3 1.1 171.8-2.5 256.2-26.2l5.2-1.5-27.6 60.2c2.7 50.5 7.9 170.7 3.5 280.8l-.1 1.8-45.9 13.3-44.3 12.7-62.9 17.7-12.4 27 72.8-21 44.3-12.6 47.1-13.2v3.4c-5.5 94.4-17.9 156.3-37 184.1-26.7 38.9-253.6 233.4-316.3 271.2l-14.1 30.8h-1.6a5.11 5.11 0 01-2.2.4zm-2.6-5.1h3.3l13.1-28.5-.5-93.6-.3-98.3-.2-160 3.7-1.1 42.2-12.8 44.2-13.1 88.4-26 9.5-2.7 12.4-27-19.4 5.5-88.8 24.5-44.5 12.1-47.6 12.7v-8.7l.2-196.6.3-98.3.5-97.2h2.8c50.9 6.5 226.5 25.1 348-9l3-.8.2 3.1c0 .3.3 5.1.8 13.8l19.2-41.8c-83.9 22.6-183.3 26-252.5 24.9-74.5-1.2-130.8-7.8-134.1-8.2h-2.5c-2 2.1-7.9 8.4-16.8 18.1a.6.6 0 00.4-.1h2.8l.1 2.5.5 94.7.3 98.3.2 196.6v8.7l-47.6-12.7-44.5-12.1-89.1-24.5-88.3-24.9c-4.4 6.6-8.6 13.1-12.7 19.4l14.8 4.2 88.6 25.5 88.4 26 44.2 13.1 45.8 13.9v2.3l-.1 157.8-.3 98.3-.5 98.4-3.8-1.9c-62-37.1-290-232.5-316.8-271.5-7.7-11.2-14.3-28-19.8-50.2-9.8 30.4-9.9 53-.1 67.3 31.7 46 336.6 268.1 352.9 279.9zm-349.7-356c5.7 25.3 12.7 44.1 20.9 56.1 26.1 38 244.8 225.7 311.5 267.8l.4-89.9.3-98.3.2-156.3h-.1l-42.1-12.8-44.2-13.1-88.4-26-88.6-25.5-16.2-4.6c-25.4 40-43.4 74.4-53.7 102.6zm556.7-75.9l-182.6 397.8c70.1-45.7 282.7-228.3 308.4-265.8 18.3-26.7 30.4-86.6 35.9-178.1l-40.5 11.3-44.3 12.6zm-186.6 55.3l.2 156.3.3 98.3.4 82.8 179.3-390.8-5.3 1.5-88.4 26-44.2 13.1zm-385.1-101.4q4.05 68.4 13.1 113a434.5 434.5 0 0120.5-43.8q12.75-23.85 30-51.3l-23.1-6.6zm386-325.6l-.5 91.9-.3 98.3-.2 196.6v2.2l41.4-11.1 44.4-12.1 88.8-24.5 23.5-6.6 148.3-323.2c-.5-9.5-.9-16.4-1.2-20.1-120.1 32.6-290.1 15.4-344.2 8.6zm-298.9 316.8l86.7 24.4 88.8 24.5 44.4 12.1 41.3 11.1v-2.2l-.2-196.6-.3-98.3-.5-91.8c-1.1.1-2.3.3-3.5.4-36.6 39.9-111.3 123.3-180.8 212.5q-43.95 56.55-75.9 103.9zm644.9-294.6l-142.5 310.6 58.8-16.6 44.3-12.6 42.4-12.3c4.1-103.1-.2-214.5-3-269.1zm-733.6 269.1l42.5 12.3 41.2 11.8c21.6-32.1 47.4-67.4 77.1-105.5 67.2-86.2 139.3-167 177.1-208.5-33.1 3.8-91.5 9.3-155.9 9.3-59.1 0-123.2-4.6-177.2-19.3-1.5 22.8-10 168.2-4.8 299.9z" stroke="#000" stroke-miterlimit="10" stroke-width="3"/>
  <path d="M1044.63 833.43c-6.3-2.1-15.8-12.6-36.9-23.1-22-11-47.4 6.3-63.2-10.5-5.8-6.2-13-8.5-26.1-13.2-19.2-6.8-50.5-1.7-71.9-14.2-12.6-7.4-32.7-3.2-52.7-8.4-32.6-8.6-72.1-5.7-75.9-9.5-6.3-6.3-16.9-8.4-29.5-15.8-10.2-5.9-42.2 1.1-60.1 1.1s-37.9-18.9-53.8-18.9-30.6 10.5-72.7 12.6c-20.2 1-33.5-2.3-45.3-8.3-33.7-44.4-53-38.5-84.2-41.3a145.34 145.34 0 01-24.4-4.2c-13.4-3.6-29.1-9.9-48.1-21.6-12.3-7.3-23.1-13-36.3-13.1v.2c-.1-.1-.2-.2-.3-.2h-.3c-4.3-29.6-27.8-52.9-31.2-83.4 23.9 3.1 50.7 5.1 76.7-.3 31.1 21.9 32.4-12.6 57.2 25.3 2.8 3.9 7.1 5 11.6 6.2-7.5-2.7-13.7-9-17.9-18.3 3.5 2 14.6 16.8 29.6 9.4-13.1 4.9-19.3-3.4-31.5-14.3 19.9-8.7-2.7 12.1 34.2 2.5-8.5-1.6-18.7 9.7-24.2-7.5 42.4-7.1 21.2 16.5 67.6 6.7-9.9-.6-22.3 6.4-32.6-4.5 17.7 2 40.2 1.9 56.7-5.5-11.1 4.2-27 4.8-41.2 3.4 4 0 7.5-9.1 20.7-7.5-8.7-3.1-15.9 5.3-25.9 6.9h0c-6.8-.6-14.6-3-22.8-5.1 7.2-4.5 14.6-15.5 25.2-16.1-9.6-2.2-23.2 21.2-54.4 14.5 8.1-5.3 18.7-9.5 27.1-16.9-17.7 11-41.5 23.7-64.8 17.6 77.2-21.6 39.1-31.5 98.9-16 2.8 3.7 11.9 4.2 24 4.2-5.6-.5-14.3-.8-21.1-3.7 10.4 1 23.4-3 33.3-8.4-13.2 5.8-29.7 9.3-45.1 2a31.69 31.69 0 0016.3-5.1c-11.4 5.7-28.9 2-38-1 14.1-7.4 28.9-14.9 43.8-23.9 21.7 16.4 32.5 3 59.1 5.3-20.3-7.7-26.4 11.5-55-7.8 5.7-3.3 13.4-7.6 21.2-10 13.3 6.9 13.4 9.6 20.2 9.6 4.8 0 12.8-1.3 30.7-3.4-15.4-1.6-29.8 7.3-45.5-7.6 14.6-.3 65.6-11.4 69.5 6.6 2.9 1.6 6.2.6 9.9 0-16.1 1.6-3.1-3-17.7-10.9a70.47 70.47 0 0020.6-6.4c-9.8 4.1-20.8 5.1-32.1 5.1h-2.8c-7.2-.2-14.4-.7-21.7-1.2 6.1-.4 8.8-5.5 12.5-10.7-7.3 10-13 10.7-29.9 10.4 8.2-7.4 18.6-22.2 28.7-29.1a130.1 130.1 0 00-25.1 22.1c.8-4.8-11.2-10.3-5-17-6.2 5 2.2 9.3 3.6 17.5-10.6 5.6-23.6-.6-36.4 3.1 9.3-7.2 17.9-19.7 27.4-28.5-10.3 8.7-21.4 20.4-33.4 30.1-.5-5.5 3-13.7-1.4-19.7 9.3 32-28.6 48.8-54.6 58.1 27.8-57.8 24.8-4.8 53.9-49.1-9.2 6.6-9.5 21.2-26.7 16 33.1-27.1 6.1-28.4 28.9-43.5-3.1 1.6-7 2.9-9.9 6.7.8-2.4-.8-5.8-1.6-9.4 3.8 17.6-5.7 36.5-24.3 45.2 6.3-6.1 9.9-26.8 6.6-41.4 2 14.6-1.6 33.6-14 45.5-.7.9-.8-1-5.7 4-2.9-6.5-22-12.8-11.2-22.8-10.7 7.8 3.8 15.3 9.9 25.2l.2-.2c0 .1-.1.3-.1.4 0-.1 0-.1-.1-.2-5.4 6.4-11.3 19.5-15.7 27.6a271.93 271.93 0 01-46.9 14.2c3.3-6.1 2-14.4 1.9-23.2 7.9-.5 19.2-7.3 24.5-15.6-4.9 6.2-14.6 12.7-24.3 13.8 6.5-13.1 21.5-23.8 37.2-27.7a94.27 94.27 0 00-11.1 2c5.7-4.8 11.2-9.5 18.3-15.3 7.7-2.3 19.7-7.2 29.4-9-7.6 0-13.9 3.8-25 5.3 5.5-4 10.9-11.8 18.9-14.3-9.3 2.7-18.1 12.4-28.2 18.6-3.8 2.6-8.5 6.1-13.8 9.8 2.5-6.3 10.8-12.3 12.1-20.9-2.8 7.4-19.6 28.1-28.1 32.2 3-5.1 9.5-11.5 10.8-19.2-3.7 11.7-16 21.5-25.1 31.6-3.9-9.3 3.3-22.7-2.1-32.9 3.3 7.2-1.9 18.2-1.1 27.7-.2 6.9 4.1 29.6-7.1 39.1-25.3 4.6-51-1.5-76.7-1.3a184.33 184.33 0 016.6-31.8c3.7-.1 14.1.3 22.1-.8 6.2 1.8 3.1 10 22.6 2.7-4.9-1.2-10.4 7.8-19.9-3.1a43.44 43.44 0 0012.8-4.5c3.5.2 13.4-.2 19.5-1.7a86.82 86.82 0 01-17.2.4c6.2-6.2 14.2-4.7 22.7-5.7-3.1-.6-6.8-2.2-13.1-.5 5.4-3.7 10.8-9.9 15-15.5-5 5.4-11.1 12-19.9 16.4.3-4.6-5.6-11.2-.6-16.8-4.5 4.3-1.1 10.6-.6 17.5a78.21 78.21 0 01-11.3 5.1c4.2-5.4 2.4-7.2 0-10.2 1.5 2.3 2.1 5.3-1.6 10.7-7.1 2.2-21.5 1.4-28.8.9 8.3-29.9 65.6-47.3 92.3-58.1 20 2.8 41.2-6.9 62-12.8 8.6-1.5 16.7 7 26.5 8.2-10.4-3.2-19.5-13.4-32.9-10 9.6-14.1 37.4-3.2 61.1 7.8 2.5-.5 11.8 8.1 15.2 3.3-2.1 2.8-6.4-.6-10.5-2.7 3.4-1 6.7-4 9.4-7.7-12.6 16.3-21.2-5.8-55.1-11.8 2.3-2.6 3.4-5.2 7.1-9.9 31.8-.5 38.9-22.1 69.1 6.4 2 6.5-1.4 18.6 4.8 25.2-3.4-4.3-1.7-12-2.7-23.1 3.5 4.5 10.6 8.7 11.6 16.7-2.1 7.6-7.6 16.6-21.5 19.3 6.2-.8 17.7-4.1 22.4-15.7 4.7 10.5-12.2 10.9-14.8 23.4 2.6-6.3 2.6-6.3 15.8-14.5 4.8 15.9 15 12.4 29.4 15.4-16.8-6.6-25.4 4.9-28.2-30.1a30.69 30.69 0 008.7 3.8c5.2 5.8 13.1 7.7 21.2 9.3s16.6 3 23.1 7.9c-8.9-9-26.2-7.5-37.7-16 18.2 2.2 36.1-4.1 54.2-6.7-24.2.9-61.5 14.6-76.7-15.1 8 2.9 20.3 5.3 28.7-1.7-19.8 10.8-33.9-4.6-50.9-17.6 35.5-10.8 50 4.4 82.3 13.5 12.9 9 1.8 8.3 23.2 14.9-9.2-6.1-6.5 2-21.1-16.1 9.3-.9 16.4 5.2 27.9 6.3 3.8 2.9 4.7 3.4 11.6 7.1 2.5 11.3-6.7 6.8 6.7 22.8 7 15.3 8.4 8.7 26.2 12.1-22-6.4-11.6 6.8-30.5-22.4.4-2.3.7-2.7 1.4-5.7 2.3 15.4 39.8 20.8 55.5 13.2-8.8 3.9-42.1 2.5-50.3-11.3-2-5.9.4-10.1-10.3-15.7h-.4l-.6-.3c2.2-.2 5.7-.8 10-1.4 15.7-5.1 27 14.5 46.6 7-11.6 3.4-24.7-6.1-36-10.9 19.4-15.8 38.7-5.6 58.2-9.7-4.4.2-9.7-.8-15-1.1-38.4-9-36.4 13-74 8.8 63.2-9 70.9-30.4 100.5-47.7-17.2 7.7-33.1 23.8-53.5 30-5.5-23.8-10.5-13 24.2-46.5-5.3 4.8-14.2 11.4-22 18.1 3.1-4 9.1-8.3 11.8-14.8-2.7 5.8-11.6 10.5-14.7 17.1-2.3 2-6.1 4.5-6.9 9.6-6.2-5.2-4-9.6-.6-17.3-3.3 4.4-9.1 9.5.6 19.9 13.6 25.5-26.3 20.2-43.7 23.5 10.4-7.7 15.6-25.8 30.1-31.1-25.6 8.7-21.6 42.1-61.4 27.6 9.9-3.6 2.5-14 14.2-20.1-9.6 1.6-4.6 13.8-16.5 19.2-8.9-3.4-17.8-8.7-28.2-12.9 9.4-5.3 22.1-8.1 32.6-14.6-10.9 5.1-23.6 8.3-37.1 13-9.2-3.1-21.9-4.2-34.1-2.3-.2-1.6 22-19.7 32.3-16.3 2.1.3 3.5 1.7 6.2-.7-4 2.1-10.2-6.2-33.8 8.7 2.8-9.8 11.6-16.8 22.6-20.6 9-4 20.6 1.4 31.5-3-5.9 2.2-14.8.4-22.8-.7 8.9-4 19.4-7.7 29.3-8.4-12-.2-25.9 4.6-39.3 9.3 2.9-8.3 13.3-11.5 20.4-18.2-3.2 2.5-8.2 4.4-12.3 7.1 1.6-3.6 2.1-2.4 4.2-10.1 2.7.7 6 1.7 9.6.7-2.5.4-4.7.3-9.3-1.4a8.15 8.15 0 013.3-3c-1.4.7-1.6.5-3.6 2.9-8.1-5-20.3-5-31-2.4 4.1-1.3 10-5.5 17.5-5.9 7.5 2.7 18.4-.9 28 2.7.4 8.7 15.1 5 24.3 7.4-13.3-4.4-11.3 2.7-27.8-10.9 8.3-.6 17.1 2.4 27.2 1.1-5.2.3-12.2-1.7-19-2.5 3.2-1.1 11.4-1.6 21.6-5.6-17.3 5-35.3 3-55.8 3.6 6-3.4 14.6-6.2 23.1-7.7.8-.2 1.7-.3 2.8-.5h.4c2.9-.5 6.5-1 10.1-1.3 4.2 3 13.8 8.3 21.4 4.7a10.14 10.14 0 01-1.9 1.3c5.9-.1 14.9.3 22.3 3.8-9.7-6.4-26.8-3.8-38-10.2 15.2-1.3 29.7-1.7 44 1.5a107.63 107.63 0 00-22.6-4.2c9.4.5 9.7-11.4 19.2-15.7-12.5 3.7-2 14.2-33.4 15h-4.7c5.6-3.5 14.5-4.4 17.5-16.2-8.3 22.5-46.3 12.9-66 25.2.9-1.7 1.2-2.6 4.9-7.4 6.9-.6 16.8-2.8 26-5.5-5.6 1.1-15.6 3.1-24.3 3.6 5-4.9 14.8-6.5 22.1-9.8-6.7 2.9-15.4 2.4-23.2 8.4.7-2.2.6 0 2.5-6.2 20.1-4 42.7-8.5 62.5-17.6h0c2.6-.1 5.3-.4 8.2-.8 12.4-.9 16.4 6.2 22.6 13.4a.1.1 0 00-.1-.1c.2.2.4.3.6.5-.1-.1-.1 0-.2-.1 4.6 5.3 10.4 10.7 21.6 13.1-5.5-1.5-12.3-3.8-16.5-10.7 4.1 1.6 5.4 1.4 13.2.8-1-1.7-12.6 5.8-23.2-13 8.7 4 20.7 5.7 30.8 10.9-.9 1.4-4.2 3.4-6.3 5.6 2-2 2.5-1.2 7.1-5.5a23.28 23.28 0 004.5.2h0a23.16 23.16 0 01-4.2-.5c.6 0 .2-2.1 5.7-5.7-.6.7.2.5-1.5 6.2h.2c.8-1.9 1.7-4.4 3.4-8h.1c.3-.8 1 .4 3-4.5 1.3 2.4 2.6 7.9 9 6.7 5.6 1.9 6.2 10.2 13.6 11.3-7.3-1.8-3.7-5-11.7-11.5 3.5-.7 6.6 1.1 15.4 4.5-9.7-8.6-25.9 1.4-26-21.4 14.4 3.7 28.8 12.8 45.7 11.7-13.7.2-28.8-9-42.3-14.2 16.4 2.1 31.6 2.8 50.3 6.2 15.5 4.2 8.7 7.4 22.3 2.7-11.1 1.9-22.4-6.2-34.6-7.9a177.72 177.72 0 0024-8c-13.9 4.4-31.6 9.7-48.5 4.7 20.3-2.6 25.4-.2 37.6-17.1-16 19.8-48.9 14-72.6 12.2a189.36 189.36 0 0015.9-11.3 161.09 161.09 0 0035.4-14.3c5.4-4.4 5.5-10.8 18.6-7.1-15.4-6-9.3 4.6-35.3 11.6 2.2-1.8 2.4-1.8 8.6-10.5 20.8-8.6 45.6.7 67.2-12-13 6.4-28.5 5-44.7 4.7 10.1-5.4 20.7-12.9 33.9-15.5-17.1 2.2-29.8 13.3-56.7 17.6l.9-.3a3.09 3.09 0 01-.8.2h0c-.2.1-.3.1-.4.2a.35.35 0 00-.2.1c-.1 0-.2.1-.3.1s-.4.1-.5.2h0c-.1 0-.1 0-.2.1s-.1 0-.2.1-.1.1-.2.1-.1.1-.2.1a6.31 6.31 0 00-.9.4c-.1 0-.1.1-.2.1v-.4h-.3c24.2-17.1 50.1-38.9 82.4-39.8 0 0-.6-.1-1.8-.2-8.6-.4-18.6 2.4-28.8 5.1 4.5-1.4 8.3-5.6 12.9-8.9-5.4 3.4-11.9 6.9-19.1 10.6-15.9 4.6-30.9 15.7-45.9 26.2 12.8-29.7 43.1-23.8 40.9-34.3-1.2 7.1-28.2 9.4-33.2 17.5 3.5-12.4.5-27.3 26.5-27.5-29.8.2-19.8 7.3-34.4 35.6 1.6-4.5-.1-10.3-4.4-15.4 8.5-12.2 18.5-28.2 33.7-31.2-8.6-.7-27 14.8-34.5 26.7a11.64 11.64 0 011.6-5.1c-.6.8-1.5 1.7-2.2 5.8-3.3 4.2-8.9 8.1-14.1 12.1 10.8-35.9 15.3-71 52.6-81.6-28.2 5.6-40 26.1-49.9 51-1.7-11.5.3-29.5-.9-42.5-2.4 23.6 1.2 50-10.4 72.8-3.3-11-.9-23.5-2.7-36.4-1.6 22.4 5.2 48.4-15.1 66.9-3.5-14.1 4.8-22.4 5.8-35.8-1.4 8.1-8.9 9.6-10 40.3a107.06 107.06 0 01-22.7 17.1 30.59 30.59 0 003.1-15.3c12.3-15.5.2-43.4 11.4-60.7-9.8 7.8-4.9 43.2-12.4 53.9-7-23.2-6.8-52.5 10.6-72.5-20.3 21.4-21.5 48.1-16 76.6a14.68 14.68 0 01-1.5-3.4c-4.4-21.1-14.4-13.5-11-48.3-1.5 7.1-3.8 15-2.7 23.1-6.8-8.7-13.6-22.4-15.6-34.2.9 15.6 10.8 32.6 20.3 46.7a36 36 0 00-12.5-6.5 10.52 10.52 0 012.2-2.9c-.8.5-.8.2-2.5 2.8-2.4-.6-.3.3-7.1-1.6a92.18 92.18 0 008.6-8.9 96 96 0 01-9.6 8.5 16.34 16.34 0 01-2.7-1.1c3.3-14.6-1-31.6 6-47a78.45 78.45 0 00-7.1 35c-5.7-10.4-9.7-25.2-16.2-36.5 5.4 12.5 9.8 28.3 15.1 42.9-.2.9-.3 1.4-1 3.8-4.8-2.9-10.4-8.8-14.2-14.2 3.1 4.8 7 10.9 13.7 15.7a106.45 106.45 0 01-3.9 10.2c-.1-3.3-1.4-5.9-2.8-9.3 2.2 8.7.7 17.7-5.3 27.1.5-7.9-2.8-17.2-9.4-24.2h0c14.4 16.4 5.8 45.6-9.2 61-11.1 1.4-22.6 2.8-35.3 5.6a48.61 48.61 0 005.7-17.6c7.7-13.4 27.6-14.6 36.3-29.1-7.2 11.8-25.5 11.8-35.9 23.6 0-.8 0-.2.1-1.9a201.68 201.68 0 0013.2-21.7c5.1-3.7 13.4-9.5 20.8-13.3-5.3 2.6-13.5 5.7-19.4 10.5 3.3-7.9 16.1-13 23.6-17.2h0c-25.1 9.7-21.5 11.2-38.2 34.9-10.4-56.9 11.9-41.9 30.5-73.7-7 10.5-20.9 17.5-30.5 27.5 2.9-7.1 5.7-20.1 5.6-29.1 0 9.5-5.7 21.4-8 32a27.3 27.3 0 00-4.1 8.1c-1.9-9.2-8.8-19.6-10.2-30.2.5 9.9 7.7 24.6 8.9 36.1-1.2 9.9 1.5 20 .7 31.4-12.3-5.5-18.2-21.8-23.6-34.5 3 8.4 4.4 19.6 10.7 27.9-2.4-.9-24.7 2.5-25.2-4.9-3.4 5.8 25 7.4 26.9 6.5 3.1 2.7 7.6 5.6 10.8 10-.5 10.2-5.9 21.8-13.8 28.7-35.4 9.3-64.5 37.4-82.9 69.6-.5-6.8-1-13.3-4.5-22.2 7.2-9.2 11.6-21.3 14-34.9 10.8-13.1 28-17.9 44.3-24.7-7.9 2.6-17.6 3.9-25.3 6.6 7.5-7.2 16.2-11.3 20.8-20.6-9.8 11.8-25.7 21.4-38.9 33.2.4-2.7.7-5.6.9-8.5 13.8-31.8 20.5-38 26.4-39.7s10.9 1.1 21.2-12.7c-19.7 24.3-24.1-9.3-47.4 42.4-10.6-55.7 18.3-45.2 32.9-71.8-6.8 9.1-20.4 14-29.1 23.8 4.5-7.3 14.3-15.9 13.7-27.3-.1 12.9-19.5 26.2-24.5 43.8-3.7-8.2-10.2-18.5-4.5-29.4-6.6 9.9-.5 22.1 3.4 34.3-.5 4.2-.1 9.3.5 14.6a.76.76 0 00-.4.1 65.93 65.93 0 00-13.4-15.5c.9-5.4 1.3-13.1 5.4-18.2-3 3-5.7 10.7-6.7 17.2-2.3-2-6.6-3.8-8.1-8.9.9 3.4 3.2 6.3 7.9 9.9-1.3 6-4.1 13.8-12 15.9-.6-3.5-1.6-7.8-1.5-12.6a70.34 70.34 0 00.6 13 66.66 66.66 0 00-9.9 4.8c.1-7.1 1.7-18 1.7-27.9-.1 7.6-3.9 18.9-3.2 28.9a25.19 25.19 0 00-7.4 8c-10.8-20.1-14.7-47.5 2.4-67.6 24.2 1.3 51.4-8.5 73.9-22 21-2 45.1-6.2 67.2-9.1-18.7 1.5-40.4 2-60.9 4.1a61.53 61.53 0 006.4-6.7c1.6-1.1 1.9-1.4 5.5-3.7 22.8-.5 46.4 3.5 66.4-12.7-15.7 12.5-38.8 8.8-58.5 8.7 21.4-7.6 47.8-14.3 63.6-34.2a87.51 87.51 0 01-39.4 22c4.1-3.4 10.8-13.4 18.3-15.2-6.9 1.4-15.2 9.3-21 16-7.9 2.3-17 3.8-25.9 7.2 11.6-25.6 36.3-21.8 53.8-38.9-9.1 8.2-29 12.2-39.6 17.6 10.5-15.7 29.1-28.4 47.3-36.3-6.9.4-24.8 12-36.8 18.9a59.57 59.57 0 0010.3-27.1c-1.4 11.3-10.5 24.4-18.1 34.2-.1-.1-.1 0-.2-.1 2.6-5.7 3.6-13.9 5-21.6 27.8-32.4 24.6-15.9 42.1-26.7-6.1 2.5-14.2 2.7-20.7 3.9 9.8-9.2 19.1-22.3 25.9-34.4-8.4 13.1-20.1 25.6-33.5 37 3.9-13.5 8.8-12.6 6.8-28.9.2 10.4-7.1 21.1-9.3 31.4l.1-.1v-.2h0a.1.1 0 01.1-.1c0-.1 0-.1.1-.2v-.1h0l.1-.1h0l.3-.3c.1-.1.1-.1.2-.1l.2-.2h0c.2-.1.3-.3.5-.4l.1-.1h0l.1-.1.3-.3-.3.3-.2.2-.1.1-.1.1-.2.2-.5.5-.7.7-.4.4a132 132 0 01-11.3 10.7c2.9-13.1-5.4-30.1 2.5-43.7a10.53 10.53 0 01-.9.8c.1-.3.7-1.6 1.8-4-3.7 6.8-13.4 14-18 27.4-.4-26.3 5.5-50.5 27.6-69.3-9.9 7.9-21 18.5-25.9 32.4-2.3-13.1-10-28.4-18.2-39.2 9.5 15.4 19.2 37.2 12.9 57.8-4.8-14.5-17.7-28.2-26.8-41.7 12.9 22.4 27.2 35.3 24.5 66.8-5.1-17-31.1-13.4-37.5-30.5 2.8 17.6 29.6 10.7 37.7 40.4-.4 19.4-18 31.7-34.1 41.6-.6-28.1-14.3-27.1 3.4-51.4-3.5 3.4-7.5 6.9-10.3 11.2-.6-8.6-.6-28-1-35-.2 5.4-1.1 19.1-1.5 28.1-2.1-3.6-1.5-11.1-5-15.7 5.1 12 4.1 30.7 7.9 45.4a62.81 62.81 0 00-5.3-6c-.4-12.8-13.6-33.4-10.4-57.4-3.6 16.5 1.7 35.6 6.2 53.3-5-4.7-12.4-11.6-17.7-18.2.4-.4 0 0 1.7-1.9-.1.1-.4.3-1.8 1.7-14.6-20.6-12-32.7 9.2-47-5.5 3.3-12.2 6.9-16.7 12a63.48 63.48 0 0111.4-22.6c-8.8 9.6-17.8 25.7-15.5 41.7-7-5.5-16.3-16.4-20-26.5 4.6 16.6 20.7 28.4 28.2 46.2-1.4 1.8-2.9 3.9-4.4 6.2-.5-.3-.9-.5-1.4-.8.1-4.3-4.7-8.5-6.1-15.9-.2 3.7 3.8 9.4 5 15.2-7.4-5.8-13.8-1.9-18.4-16.4.5 5.8-1.4 8.4 19.5 20.1-.8 1.3-1.5 2.6-2.2 3.8a102.36 102.36 0 01-15.3-6.6 105.75 105.75 0 0014.7 7.7c-1.5 2.6-5.2 8.9-6.2 11.8-6.5-17.1-22.2-30.7-27.7-48.7 3.4 17 18.8 33.4 24.3 52-8.8-6.3-13.6-19.2-22.9-27.1 16.2 28.3 35.8 28.6 18 65.8a45.93 45.93 0 01-6.3-10.8 30.09 30.09 0 00-1.4-8.7c1.9-.2 5.6-.3 8.1-.4-2 0-3.7-.2-8.3-.2-1.9-6.9-4.2-15.4-7.4-22.3 1.9 5.1 4.2 14.6 5.6 22.4a53.17 53.17 0 00-12.4 2.1c-.2-.3-.7-1-2.7-3.8 3.3-4.8 7.9-11.9 4.5-19.4 2 5 0 11.9-5.4 18-1-3.4-1.7-9.6-3.3-17.1.5 4 .6 9.6 2.3 18.2-3.2 3.8-8.4 7.4-13.9 11.3 4.8-5 10.1-14.5 11-22.8-1.2 9.5-10 17.8-15.6 26.6h0a38.49 38.49 0 00-6.8 8.7c-1.5-10.9-1.5-28.9 8.5-38.1-14 10.5-10.1 31.6-12.5 48-13.1-32.6-2.3-65.3 13.8-90.7-5.4 8-12 17.5-17.1 29 4.6-18.3 0-42.7-7.6-59.7 12.6 36.4 3.5 51.7-1.2 81-3.2-9.6-8.5-23-12.1-33.3 2-3.7 5.6-8.2 7.9-14.5-1.4 3.4-4.9 8.4-8.4 13.1-.3-1-.6-1.6-.6-1.7 0 .1.2.8.5 1.9-2 3-4.9 7.2-5.7 12.9-2.4-6.6-8.7-15-11.7-22.9 4 11.1 12.9 25.4 11.2 38.8-11-14.6-26.4-27.3-27.9-47.1-.5 16.2 11.7 32.1 22.2 46.2-29-9.9-16.8-9.2-29.7-23 7.4 9.1.1 15.2 32.4 28.3 0-.1.1-.2.1-.3a.37.37 0 01-.1.3c5.9 6.5 7.6 16.2 9.8 26.3-1.8-2-5-5.3-8.4-8.9-1.1-4.1-3.7-10.4-1.4-17.5h0c-1.2 3.9-2.6 10.1-.2 15.8-8.1-7.6-16.7-19.5-24-28.2 7.6 11.3 18.4 26.8 28.6 38-23.2.4-16.3-4.1-26.9-8.7 4.4 3.6 7.4 11.4 29.2 11.5 11.8 14.9 17.7 34.2 32.1 48.9-1.6-.2-5 0-8.9-1-4.1-4.2-10.2-9.4-12.6-17 1.1 5.2 5 10.8 9.7 16.1a50.81 50.81 0 01-10.7-5.4c-1.1-2.5-5.5-5.7-9.7-8.8.1-.7.2-1.1.2-1.3a6.57 6.57 0 01-.3 1.3 9.07 9.07 0 01-2.2-2.7 24.93 24.93 0 002.5-5.2 24 24 0 01-2.7 4.8c-1.2-1.9-.8-6.8-3.7-10.5 1.6 2.3 1.2 4.2 3.1 11.5-.4.6-.9 1.3-1.3 2-2.2-1.3-4.4-2.6-6.5-3.7.4-7.7 3.4-17.3 2.7-26.5.2 7-2.9 15.9-4.6 25.5-5.9-2.7-12.6-7.1-18.5-10.8 4.6 3.2 10.1 7.9 17.2 11.9-4.7.3-9.1-4-15.7-3.9 4.7.1 10.5 5.1 16.5 5.2-.3 1.7-.6 3.4-1 5.1-4.6-.3-7.4.6-14.7-4.5a18.51 18.51 0 0014.4 5.9 218.91 218.91 0 01-6.9 24.2c-3.6-8.1-17.7-29.8-16.3-41.4-2.8 20.8 22.9 41.7 8.2 63.8-.7-2.7-7.5-9.1-6-17.2-1.9 2.8 1 10.7 5.4 19.2-3.8 9.2-4.9 22.6-2.7 33.4-5.9-4.5-12.5-9.4-19.8-15.3h0c.4-1.4-6.7-4.9 2.4-15.1 2-.3 2.8-.6 3.8-1.9s2.5-3.5 6-7.4c-2.1.3-1.5 3.9-8.9 8.2 6.3-7.4 13.2-17.2 1-27.1 6.4 5.1 8.3 15.1-.2 22.8.5-4.7-6.1-6.9-8.7-11.6 1.1 4.2 8.9 6.1 7.5 12.9-.4 1.3-8.8 6.1-8.2 14.9l-3.9-3.3c-7.4-28.8-21.5-38.7-.7-64.2-6.8 7-15.3 14.4-13.1 26.6a117 117 0 01-4.6-31.4c4.1-2.7 9.1-9.6 9.6-16.8-1 4.4-3.4 11.3-9.5 15 .5-15.1 10.5-34.5 4.1-50.3 5.6 24.6-15 44.8-6.8 79.8-3.9-7.4-13-19.6-18.2-27 10.2 15.6 21.9 37.2 27.3 56.6-40.2-35.8-56.3-74.5-40.3-126-4.6 11.5-6.6 26.6-10.3 40.5-5.8-14.9-18.2-38.7-24.3-50.9 9.5 22.5 21.4 52 27.4 78.7-9.2-9.6-22.9-21.1-34.1-29.4a319.73 319.73 0 0127.3 26.6c-9.3-3.6-14.4-4.2-25.5-12 8.8 9.3 26.5 11 34.8 22.9 3.9 11.6 7.6 23.7 16.2 34.9-11.2-6.4-20.7-20.6-29.6-30.1 30.7 44.8 24.6 21 59.1 64a122.28 122.28 0 01-18.2-2.7c-11.2-13.5-27.6-26.5-42.8-37.9 10.3 11.6 26.4 19.7 34.9 35.8-22.6-6.1-44.5-23.4-49.4-48.6-.4 9.5 6.7 20.2 12.7 28.9-12.9-8.9-20.8-26.7-30.6-38.7 10.9 18.5 22.2 41.8 43.6 53.8-12.6 4.5-27.9-2.5-39.1-10.8 5.1 4.6 13.3 9.6 21.4 13.4-3.5.5-9 2.2-13.9 1.8 14.7 1.8 32.9-5.7 47.2 4.5-12.3.3-25.2 11.3-39 7.2 19.2 5.9 31.4-10.6 58.1-.6-12.4 7.7-15.3 9.8-31.1 6.6 12 4.8 23.1 1.3 35.3-5.6a77.9 77.9 0 0019.8 1.9c7.6 7.4 18.7 16.1 27.2 24.9-1.5.3-2.2.4-5.8 1.2-3.8-2.2-6-2-14.7-7.5 2.3 1.5 8.3 5.9 13 7.8-2.5.2-4.6.2-8.9.6-6-1.2-15-2.8-18.6-11 1.4 4.7 7.3 9.6 13.4 11.2-6.2.1-14-.1-20.1-4.8 6 5.3 16 6.8 26.3 6.6-3.4 4-11.4.4-17.8 1.1 6.3-.5 12.7 5.2 20.8-1.1 4.1.4 9.9-.6 15.1-1 5.9 7.7 10.5 17.7 14.9 28.1-1.8-1.3-6.1-1.5-8.6-3.2 1.9 1.7 5.6 1.8 9.1 4.3a119.76 119.76 0 016.6 20.2c-5.3-1.5-11.8-1.7-20.1-3.5a49.12 49.12 0 00-8.7-13.1c-.2-5.2-6.6-12.9-5.2-20.1-1.8 4.8 2.1 12 3.4 18.4-8.2-6.4-20.5-16.2-30.4-20.7 7.4 3.9 15.3 11 23.3 18-4.9-1.1-12.1 0-18.8-2.7 4.8 2.7 14.2 3 20.9 4.5 3.9 3.1 8 8.8 11 14.4-10.8-3.8-25.1-7.2-37.3-11.8-1.1-2.5-8.1-11.1-9.7-13.7 1.9 3.8 3.9 5.7 7.9 13.1-1.3-.5-1.7-.7-5.7-2.4-2.5-11.2-16.8-20.5-19-34 .4 10.6 12.1 22.3 16 32.5-17.6-8.4-28-25.5-41.6-39.4 10.2 11.8 19.6 29.6 34.4 39.9-14.1.1-27.5-8.5-42-12.7 42.6 22.1 28.6 8.1 61.2 23.2l.9 2.1c-15.3 1.3-35.7-8.1-47.7-16.2 11 8.6 30.5 20.1 46.8 20a.1.1 0 00.1-.1l-.1.1c1.1.1 2 .2 2.9.3 9.7 14.7 20.2 32.4 4.7 48.6-8.3-5.7-6.7-16.4-5.9-27 .3-5.6-6-15.3-1.7-21.8h.4s2.9 20.4-2.2 34.8c-3.8-5.9-12.3-12.7-17.5-19.8 4.2 6.6 12.2 14.9 17.8 23.2.9 4.2 3.2 9.3 8.1 12.3-3.3 6.6-1.5 17.8 3 25.1-6.3.8-9.7-1-18.3-12-2.8-5.7-1.1-12.5-2.6-19.7.4 4.9-1.9 11.1.4 16.6-3.4-4.9-7.1-11.8-12.6-16.3 6 5.7 9.6 16.1 16.2 24.7-2.9-.9-7.5-1.2-14-3.5.1-.5.5-1.1 1.4-4.2a39.62 39.62 0 01-1.7 4.1 14.69 14.69 0 01-2.4-1.2 12.3 12.3 0 002.3 1.4 51.85 51.85 0 00-2.9 7.3c-10.7-14.6-2.6-27.6-3-45.3 0 6.6-2.6 15.6-4.3 23.8-1.7-10.1-2.1-26.7-14.1-31.9 10.9 5.7 10.7 22 11.5 34.5-1.5-2.3-9.4-12.4-11.5-14.7 1.6 2 10.7 15.6 11.8 17.9h0c.2 6.9 7.7 23.1 10.8 27-15.6-10.4-21.7-33-31.9-49.7.9-15.7-11.2-14.2-6.9-34.8-3 8.6-5.3 6.1 3.9 30.3-4.5-6.3-8.2-9.9-16.2-16.2-2.1-3.9-8.2-13.2-8-20.8-.6 4.2 2.2 13.3 5.1 18.5-12.9-9-22.3-20.7-32.7-32.9 8.7 12.1 18.2 25.9 31.6 36.8-13.5-2.3-24.7 12.2-38.7-3.8 12.2 16.4 21.1 4.4 42.3 7.2 8.7 7.3 16.1 20.3 20.6 32.8a92.93 92.93 0 00-14.4-4.7c-5.2-4.9-11.8-15.3-20.5-18.6 6.7 3 11.8 11.3 17.4 18-9.8-1-21.2-6.5-32-11.3 5.5 3.6 11.6 5.8 19.6 9.9-13.7.4-32.4.2-45.3-3.3 21.5 7.7 53.8 4.1 75.4 15.5-14.6 4.4-29.6 10.2-44.9 2.8 12.9 7.9 33.4 5 47.7-.7 5.7 14.5 13.3 30.5 29.6 38.5-8.9 2.5-18.3-4.3-28.8-6 9.4 1.8 20 11.6 32.1 7.6 8.1 3.7 18.2 5.1 26.3 10.2-7.9 5.7-10.9 10-25.3 8.5-4.5-5.5-13.8-8.9-19.2-14.1 3.1 4.9 11.3 6.9 16 13.5a86.77 86.77 0 01-10.4-3.1c-8.4-7.9-18.4-21.9-30.2-29.2 5.9 4.8 14.4 16.1 24.3 27.2a108.63 108.63 0 00-15.5-3.9c-2.9-5.2-9-9.3-16-13.2-.9-7-15.8-18.2-6.5-26.3-5.9 4.8-5.2 6.1 3.8 24.8-15.4-7.1-31.1-17.1-37.9-35 7.4 19.4 14.2 25.6 34.9 37.8-5.9-1.3-12.8 3.4-20.4 3-2.9-3.9-2.4-15.5-9.1-17.4 4 1.5 5.2 9.2 6.8 16.1a5.84 5.84 0 01-1.2-1.5c0 .2.1.6 1.3 1.8a9.25 9.25 0 004.8 5.7c-3.9 1.1-6.9 4.7-11.9 8-4.2-3.4-22.3-11.2-33.2-15.4 9.3 4.9 19.7 9 30.4 16.8a56.5 56.5 0 01-22.4 4.2c6.9.4 15.2.4 24.1-3 2.8 1.9 6.7 4.8 11.1 5.9-3.1 13.1-52.4-4.8-59.2-9.6 11 8.5 36.6 15.4 51.8 19.9-12.1 12-24.2 15.1-41.7 19.2 17.5-2.2 38.8-7.3 51.1-24.3a5.93 5.93 0 00-.8.8c.7-.9 1.4-1.7 1.9-2.3-2.8 17.8-24.3 27.7-43 35.4 18.6-6 45.6-14.6 49-41.1 8.3-8.9 30.5-3.3 42.6 1.3-4.6 2.8-11.7 9.7-18.5 14.1-2.9-3.1-7.6-6.3-10.8-8.5 2.2 2 6.3 4.9 9.9 9.1-7.8 4.7-19.6 6.7-28.3 12.8 8.2-5.1 19.4-5.8 29.9-10.9a46 46 0 0011.8 10.4c-8.2 8.1-21.1 13.2-30.7 21.6 6.2-4.5 18.6-8.6 33.6-19.7 6.3 4.2 12.1 9.1 21.1 12.7-12.4.4-28.5 9.1-41.7.4 13.8 11.8 35.7-2 51.7 4.7-4.5 2.8-15.2 7.2-22.9 6.4 8 1 14.1-.6 25.1-5.1a52.84 52.84 0 0113.3 11.2c-5.6 24.8-6.3 52.3 4.5 76.6.7 12.6 6.5 29.8 11.7 42.2-167.4 84.1-104.3 81-146.2 99.1h1.3c-13.2 6.9-25 11.7-32.2 18.5-16.1 15.4-24 15.9-24 15.9v87.7h1054v-28.4a41 41 0 01-9.5-2.1zm-690.9-264.6a1.38 1.38 0 01.4.3 1.38 1.38 0 01-.4-.3zm7.5-4.6c1.4 0 2.8-.1 4.2-.1-2.6 1.1-5.1 1.5-9.4 3a17.22 17.22 0 00-3.9-2.3c2.8-.3 5.9-.5 9.1-.6zm68.7-70.6a86.65 86.65 0 016.2-8.5h0c11-5.2 27.2.1 39.6-6.7a6.73 6.73 0 01-.1 1 55.22 55.22 0 01-7 5.7c-14.5.7-28.9 7.6-43.1 15 1.3-1.8 2.7-4.1 4.4-6.5zm64-77.4c-.4-.2-.9-.3-1.3-.5-.2-.3-.5-.6-.7-.9.6.4 1.3.9 2 1.4zm163.3-191.2c.5-.3 1-.5 2.9-1.4-4.3 5.6-10.8 12.5-19.7 14.1 2.5-2.3 6-5.5 9.5-9.1l.3-.3h0c.1 0 .1 0 .1-.1h.4c.1 0 .1-.1.2-.1 1.6-.8 1.7-.7 6.3-3.1zm-6-36c4.2 6.8 5.4 8.6 1.4 19.8h0c-5.8 7.1-8 15.9-17.2 21.5a5.5 5.5 0 01-.9.7l-.2.2a2.19 2.19 0 01-.5.3c-.7.5-1.6 1.2-3.3 2.5h0a142.05 142.05 0 01-27 15.7c34-32.3 16.8-35.2 47.7-60.7zm-23.9 72.6c1.1.4 2.1 1 5.7 2.4 0 2.5.1 4.3 1.4 9.3-2.1 5.9-5.2 4.8-10.7 13.4-8.7-5.4-21.1-8.4-31.1-13.7 11.3 5.1 21.8-4.9 34.1-1.5-9.8-6-9.4 5.5-40-2.3 11.9-5.2 25.4-9.7 40.6-7.6zm-81.9-55.2c.4.3 0 0 1.4.7l-2.1 1.8c.2-.8.5-1.6.7-2.5zm-6.1 18.1c1.1-2.9 3-7.7 4.5-12.5 1-1.1 1.9-2.1 4.2-4.3a43.17 43.17 0 007.7 2.4c-1.7 5.6-4.3 12.8-10.8 17.4 3.4-3.6 5.4-10.3 6.6-16.3a41.8 41.8 0 01-16.1 23.9c1.1-3.5 2.5-7 3.9-10.6zm11.8-.8c1.4.7 3.2-5 12.1-6.6-2.8.2-8.5 1.9-11.5 5.8 2-3 3.4-7.7 4.5-12.6 5.6 1.6 10.7 6.4 15.9 10.8-.3 8.1 11.3 16.6 4.1 25.1-9.4 16.1-36 17.3-52.1 21.1 12.8-28.5 2.4-20 27-43.6zm-189.9-142.6a18.65 18.65 0 011 2 12.44 12.44 0 01-1-2zm80.7 11c-2.5-12.2 3.9-26.3 13.7-36.5-6.2 12.8-.1 29.8-5.3 45.1-2.9 2.1-6 4.2-9.8 6.7a45.08 45.08 0 001.4-15.3zm-4.3 18h0a.35.35 0 01.1-.2h0c0-.1.1-.1.1-.2v-.1c0-.1.1-.2.1-.3a.35.35 0 01.1-.2h0a2.09 2.09 0 01.4-.6c.1-.1.1-.2.2-.2a1.76 1.76 0 01.4-.5c.1-.1.1-.2.2-.2h0a2.65 2.65 0 01.6-.5 9.17 9.17 0 00-1.8 2.6c0 .1-.1.1-.1.2s-.1.2-.1.3c0-.2.1-.2-.2-.1zm-37.8 41.3c12.3-9.3 27.1-18.4 36.2-33.1a5.74 5.74 0 00.4-.7v-.1h0c0-.1.1-.1.1-.2a.1.1 0 01.1-.1c0-.1.1-.1.1-.2s.1-.3.3-.4h0c.1-.1.1-.2.2-.3s.1-.2.2-.3c0 .3 0 .2-.1 1.6 3.3-2.1 6-4 10-7l.1-.1c.3-.2.5-.4.8-.6s.5-.4.7-.6c.7-.6 1.5-1.2 2.3-1.8q1.5-1.2 3.3-2.7c-1.9 7.6-4.4 18.3-9.7 27.3-5 5.9-10.6 13.5-16.2 20.6 1.7-11.3 6.9-22.3 8.7-35-.3.2-.7.4-1 .6-6.5 17.3-9.6 41.2-27 53.4a69.49 69.49 0 01-8.1 4.3c-4.9.9-7.1 1.5-11.6 4.5-10.5 4.1-27.9 8.4-39.7 9.3 14.9-13.8 32.7-25.5 49.9-38.4zm-36-57a165.58 165.58 0 0012.1 14.6c-4.2-2.1-9.7-5-15.8-8.4a67.73 67.73 0 013.7-6.2zm-5 8.6c3.2 2.1 6.4 4.2 9.4 6a91.67 91.67 0 01-11.2-2.4zm-7.7 16.4c.9-2.4 2.9-6.9 5.3-11.6a84.86 84.86 0 0017.2 4.4h0c.6.4 1.2.7 1.8 1.1-3.7 8.2-13.3 17.3-21.9 23.1a49.53 49.53 0 00-3.5-14.2c.3-.8.7-1.7 1.1-2.8zm-4.4 46.5c.7-9.8 7.5-13 11.9-23.6a38.25 38.25 0 01-8.6 11.5c.9-2.6 3.5-8.7 3.5-14.2 7.2-5.5 18.4-15.8 22.1-26.2 44.2 24.8-12 41.6-30.3 57.4.5-1.5.9-3.2 1.4-4.9zm-76.1-1c-4.7-10.3-6.2-23.7-13.8-34.5.5-8.9-3-20.1 3.7-31 8.6 22.4 11 48.3 14.8 73.2a51.18 51.18 0 01-4.7-7.7zm-88.6 59.7a8.17 8.17 0 00-.1-1.4 2.35 2.35 0 01.1 1.4zm4 159a5.9 5.9 0 01.4.8 3 3 0 01-.4-.8zm-86.2 70.9c-.4.3-2.7 1.3-7.3 7a34 34 0 01-10.4-4.3c5.8-3.1 10-10.4 18.6-3.2zm5.7-2.5l-1.5.5c-.9-.5-.1.1-3.7-2.4 2.1.3 4.5.8 7.3 1.4a16 16 0 00-2.1.5zm19-1a74.22 74.22 0 00-9.7-.4c-5.4-4.5-17.9-.3-25.2-7 8.5 1.9 17.9-9.4 35.2 7.4zm137 235a106.35 106.35 0 0017 8.1c-4.2.7-8 1.3-11.5 1.9-2.3-2.5-4.5-5.1-6.7-7.6a16.8 16.8 0 001.2-2.4zm49-323.2c6.4 20.3 25.6 13.3 9.6 46.5-1.1.4-3.6 1.5-6.8 2.5-9.5-6.3-19.3-13.4-28.6-23.1a26 26 0 002.8-20.5c10-3.2 18.5-13.8 31.5-14.8 4.2 7.7 13.6 16 9.4 33.3-1.6-10.6-17-14-17.9-25.9a6.11 6.11 0 000 2zm9.6-9.4a51.69 51.69 0 015.4-.3 45.77 45.77 0 013.4 12.8c-2.3-3.2-1.5-1.9-8.8-12.5zm17.9 46.9a98.43 98.43 0 01-9.4 5.2.37.37 0 00.1-.3c2.6-7.6 2.8-19.6 8.7-27a53.9 53.9 0 00-5.1 6.1v-1.2c4.2-5.3 7.5-12.3 13.9-18.8-2.3 11.5-3.4 24.1-8.2 36zm73.4 12.9c-2.3 2.7-1.3 2.3-5.5 6.4-5.8-.1-12.6-2.1-19 2.5a78.05 78.05 0 018.4-9.8c4.9-.4 9.6-.9 18.6-2.1-.8.9-1.7 1.9-2.5 3zm74.6-87.8c9.5-2.4 19.2-5.1 30.1 0-2.1 7.2-9.4 15.4-16.8 23.2-5.1 2.2-11.9 4.6-16.3 10.6 3.2-13 11-10.4 12.2-30.4 1.5.4 3 1.7 5.3 3.6-4.4-6.2-14.2-4.6-23.1-5 2.7-.6 5.6-1.3 8.6-2zm-2.8-2.5zm.1-.2l2.1-.3c-.8.2.1-.1-2.1.3zm19.7-31.9a5.63 5.63 0 01-.7 1.8c0 .5-1.5 1.5-2.6 5.4-3.9 2.5-5.8 13.8-24.7 19-9.9 3.2-28 2.6-37.4 1.5 17.7-15.4 41.6-22.7 65.4-27.7zm-75.1 37.4c20.7 3.2 44.1.2 67.3.6-.5 9.4-6.8 16.9-13.2 26.1-.1-5.6-7.4-10.9-13.5-16.7 2.8 4.8 11.1 7.4 12.4 19.4a30.11 30.11 0 00-2 8.6h0c-7.5 19.7-34.8 18.7-54.6 22.2 12.5-12.1 23.8-12.5 41.7-17.2-9 1.4-19.3.2-28.6 5.1 4.1-6.4 10.6-9.7 17.4-14.3-2.8 1.1-6.4 1.9-10.8 4.8.3-8 2.3-20.6 13.2-23.2-15.4 1.4-10.8 21.3-21.1 29.8.4-5.6 2.5-11.9-1.8-18.2 3 5.1 1.9 12.2-.1 19.7-.5.3-.8.6-6.3 6.1h-.1l-.1.1h0l-.1.1h0c-.1.1-.4.3-1.2 1h-.1l-.1.1-.1.1-.1.1c-.1 0-.1.1-.2.1a.1.1 0 00-.1.1l-.1.1-.1.1a.35.35 0 01-.2.1h0a.1.1 0 00-.1.1h0a82.27 82.27 0 01-33.6 8.1c10-20.8 19.7-44.5 36.3-63zm-5.6 56.4c.4-.2 1.4-.7 2.7-1.3a20.18 20.18 0 01-2.7 1.3zm9.4-5.7zm-55.6 35.8c.5-.6 1-1.1 1.5-1.7 4.4 0 10.5-.2 16.8-.7-8 4.7-9.8 16.9-20.8 19.7 2.3-2.8 8.4-8.1 8-13.6-.7 4.3-7.1 11.9-11.5 14.5-.8.4-6.9.7-19.5 2.7a121.73 121.73 0 0025.5-20.9zm6.1-159.7c0 .3.1.5.1.8-.1-.3-.1-.1-.4-.7a.37.37 0 01.3-.1zm-18.7-1.9a24.81 24.81 0 004.7-12.3 70.91 70.91 0 0110.8 14.4c-4.4.3-11.3-.7-17.9.3a27.18 27.18 0 002.4-2.4zm-7.4 5.2c5.6-1.8 15.3-2.3 23-2.7 4.1 8.9 3 20.1.4 30.7-11.3-12.7-23.5-2.6-24.2-27.7a1.6 1.6 0 01.8-.3zm-1.9.9c-4.3 35.4 41.8 10.6 14.3 55.6-8.8-14.1-22.3-24.3-30.6-40.2 2.5-6.6 8-11.7 16.3-15.4zm-19.6 57c.7.9 1.4 1.8 2 2.6-9.4 2.3-16.1-3-19.3-12.9.9 2.9 2.4 7.4 4.5 10.4-6.1-4.1-14.7-8.9-19.1-16.4 4.4 7.9 12.6 14.8 22.3 20.5-3.3.9-4 8.4-13.1 7.6 3.4.9 6.1 1.7 14.2-7.1-.1 0-.2-.1-.3-.1.1 0 .2.1.3.1l.2-.2v.1h0c21.9-2.3 24.2 24.3 20.3 42.4-4.7 3.9-9.7 10.6-14.1 16.5-.1-8.1-.8-17.8-5.4-26.6 2.4 0 7 .3 10.3.7a100.31 100.31 0 00-10.7-1.5c-2-4.3-6.5-8.9-7.6-14.5.4 3.8 3.2 8.3 6.2 14.4-2-.1-4.1-.2-6.3-.1-1.5-2-6.7-3.6-7.8-7.6.3 2.2 1.5 2.9 6.7 7.6-5.8.2-12.7 2.5-18.9 6.6 7.8-12.3-.2-32.6 13.7-44-13.4 9-8.7 26.7-16 41.2.7-7.8 4.9-21.6-3.2-29.9 7.5 8.5 1.3 21.2 1.1 32.6a19.91 19.91 0 01-8.4 5.4c-7.1-13.7-11.2-31.5-16.2-48.4h0v-.4c0 .1.1.2.1.3.7-2.3 2.9-7.8 9.8-16.9h0c4.8-3.4 15.1-5.7 17.1-14.8-1.5 5.9-8.6 9.5-15.2 11.9 5.6-9.1 8.6-22 13.3-32.9-4.3 7.8-7.8 18.9-13.5 28.3 0-6.5 4-14.1 3.7-22.5a83.88 83.88 0 01-17 41 6.37 6.37 0 01.2.7c-.1-.2-.2-.3-.3-.5l.1-.1a82.73 82.73 0 01-2.6-30.5c.8-1.5 13.5-16.7 19-21.9-6.5 5.3-9.7 9.1-18.5 17.9.3-12.3 12.1-21.1 16-33.5 7.5.3 16.1 4.4 22.4 10.4 3.4 22.8 14.7 45.7 30 64.1zm-68.2 27.6c1 .6 1.7 1.1 3.3 2.2.9 10.4 10.5 21.8 7.6 33.8-5.9-9.6-8.2-23.4-11.9-36.6a8.79 8.79 0 011 .6zm-2.1-4.6a141.7 141.7 0 00-8.5-20.3c2.2 1.5 4.3 4.5 10.3 9.9.6 3 1.6 8 2.6 12.6-1.1-.5-1.9-1-4.4-2.2zm21.5-106.7c.4.8-.3.1 1.9 3.2-4.4-.8-9-6.5-18.2-12.1 5.1-.4 11.2-.9 18.3-1.4.1.1.1.1.1.2v-.2a33.82 33.82 0 0116 2.1h.2c.3.1.5.2.8.3v.2h0a82.78 82.78 0 00-1.2 21.1 62.24 62.24 0 00-12.4-8.5c-1.2-1.2-2.4-1.6-4.8-5.3-.6-2.4-.1-2.8 1.2-9.5-.1 1.1-1.8 3.6-1.9 9.9zm25.2-32.7c-.2 3.4 1.4 5.7-1.3 10.4-2.5-2.8-4.4-4.9-8.1-9.2 1.4-5.6 8.7-10.6 10.9-18.2.7 3.5-2.2 12.6-1.5 17zm-14.2 45c-.7-.5-.1.3-2.8-2.2 1 .8 1.9 1.5 2.8 2.2zm43.1-82.6a1.38 1.38 0 00.3.4c-.2.1-.3.1-.5.2-2.2 6.7-4.2 12.9-7.4 18.5-.5.4-1.6 1.4-2.9 2.6s-2.8 2.6-4 3.8h0c-.3.4-1.8.5-8.2 5.1 1-7.8 6.8-15.2 10.3-24.3 3-1.7 6.4-3 12.3-5.7a1.27 1.27 0 01.1-.6zm-6.7-8.2a13 13 0 00.8-3.4 44.78 44.78 0 005 10.2c-2.1.9-6.7 2.3-10.2 3.8 1.1-3 2.2-5.5 4.4-10.6zm-12.9-10a53.62 53.62 0 0110.6-2.5c3.1 9.8-4.3 18.1-8.8 28.9.4-7.5.9-16.9-2.9-26 .4-.1.7-.3 1.1-.4zm-9.6.8a40.79 40.79 0 004-4.4c.4.8 0-.1 1.9 3.1-1.3.5-2.6.8-7.6 3 .6-.6 1.1-1.2 1.7-1.7zm-21.4 32.5c.7-5.9 2.5-14.9 8.3-20.7a78.94 78.94 0 0119.8-11.5c3.1 11.1 2.6 27.7-3 38.4.2-5.6-2.9-17.7-6.4-23.5 1.3 3.5 4.5 11.1 4.5 17.6a5.61 5.61 0 00-3.6-2.6c10.6 4.4-5.3 17.3-8.9 23.9-4-5.5-10.9-12.2-10.7-21.6zm-13.6 32.4a34.64 34.64 0 0017.8 2.5c1.2 1.8 1.7 2.5 4 5.7-9.5-.5-20.1 2-31.3 3.7-.9-.6-3-2.1-5-3.5.7.6 1.5 1.3 4.4 3.7-4.6.3-12.9 3.8-17.5-1.8a28.48 28.48 0 007.1-9.2c5.3-.9 13.1 0 19.8-.9a1 1 0 01.7-.2zm-3.2-1.5c-4.4.7-10.4.4-16.9 1.7.7-2.2 1.9-4.8 1.1-12.7h.4c2 1.5 3.9 3 5.8 4.5a62.46 62.46 0 009.6 6.5zm-15.5-15.2c.9.8 1.4 1.2 3.6 3.1-1.2-.8-2.5-1.6-3.7-2.4 0-.3.1-.5.1-.7zm-2.5-3.2c.6.7-.5 0 2.4 3a6.37 6.37 0 00-.2.7c-.8-.5.1 0-3.1-1.9a7.57 7.57 0 01.9-1.8zm-2 4.6c0-.2.1-.3.1-.5.6.4.3.2 1.3.9-.4 0-.9-.1-1.6-.1.1-.1.1-.2.2-.3zm-6.3-4.9q2.85 1.8 5.7 3.9c-.1.2-.1.3-.5 1.3-1.2-.1-2.6-.2-5.8-.5.2-1.6.4-3.2.6-4.7zm-1.3 9.6c.2-1.1.3-2.2.5-3.3 2 .3.8.1 5.2.8-.8 2-2.5 4.9-6.9 9.9.4-2.5.9-4.9 1.2-7.4zm-4.9 22.4l1.8-6.9a44.66 44.66 0 012.2-4.7 7.76 7.76 0 00-.3-1.9c0 .2.2.7.4 1.7 1.7-3.7 4.9-5.1 7.6-12.9 1.7.1 1 .2 4.4.3-.2 4 .5 7.6-2.4 13.1a21.16 21.16 0 01-7.5.2 21.2 21.2 0 007.2.5 27.74 27.74 0 01-6.5 7.1 37.57 37.57 0 01-2.7-8.2c0 .1-.1.1-.1.2a33.81 33.81 0 002.2 8.5c-1.5 1.1-2.5 1.6-6.6 4.9a10.79 10.79 0 01.3-1.9zm2.3 75.3c-1.7-11.6 8.1-23.7 4.7-36.9 2.4 9.9-5.9 21.3-7.3 33.2-7.2-7.6-8.4-19.8-9.6-32.3 2.2-1.7 2-.8 6.3-5.4 2.8-.9 2.5-2.9 8.9-6.6-.1-.1-2.1.7-7.8 5.1a28.12 28.12 0 003.7-6.7c.3-.5 3.9-2.7 5.5-5.5-.1.2-.6 1.2-4.9 4.3.4-.5-.3-3.6 5-8.7-3 2.2-2.6 1.9-8.4 13.1-.3-1.7-4.2-4.5-1.7-7.3-2 1.9-.6 3.8 1.2 8a27.84 27.84 0 01-7.8 7.2c-.7-8.6 6.9-17.9 7-29.7a.1.1 0 01-.1.1l-.1.1.2-.5h0v1.4h0a1.92 1.92 0 011 .2v.1c1.8-2.7 5.2-5.9 9.5-9.3 3.8 5.6 13.3 4.3 20.9 3.3 4.2 2.2 11.6 11.6 21.5 16.1-1.9-.2-1.6-.7-7.5-.9a20.55 20.55 0 000-2.5 21 21 0 01-.2 2.5c-8.7 2.3-18.6 2.5-27.3-2.1a31.91 31.91 0 0011.1 5.4v-.9c3.9.9 10.4-.6 16.1-.9-2.6 7.8-10.4 14.1-15.6 22.7.8-3.9 0-12.2-.4-18.5.4 17.3-6.8 36-5.6 55-4.7-5.7-13.1-12.7-13.1-22.4-.8 9.2 7.1 17.5 13.5 26.4.9 7.8 2.7 14.2 4.6 23.5-2.1-1.3-3.4-3.8-10.6-8.7a195.25 195.25 0 00-12.7-21.9zm-53.1 42.9c-.5 0-1.1-.1-1.6-.1-.2-.4-.4-.7-.6-1.1 1 .4 1.9.8 2.9 1.2zm8.9 14.8c-1.9-2.8-5.1-6.9-7.8-10.6a26.69 26.69 0 009.6-.4c7.7 2.7 14.2 5.6 22.2 8.5-9.5 3-4.9 25.5-18.9 33.9 3.3-9.8 1.5-21.7-5.1-31.4zm1.8 37c19.2-5 10.8-27.4 23-39.2 7.1 2.3 15.7 2.4 23.9 6.3 1.8 9.6 3.8 20.9 8.7 30.6-12.1-5.9-18.5-9.8-19-28.1-1 1.7.3 3.6.4 9.9h0c-1.8-3.4-9.1-7.7-13.7-10.9 4.4 4.2 12.1 7.3 14.5 16.2-4.7-3.1-13.7-3.9-19.4-9.4 4.4 5.1 13.1 7.3 20.1 11.4 3.2 8.1 12.8 11.8 20.5 17 5.5 8.8 16.6 19.1 26.2 24.8a181.35 181.35 0 00-54.6 26.5c-2.3 1.6-3.3 2.2-7.5 5.2a55.94 55.94 0 00-4.7-11.8c9.8-3.8-.8-7.7 23.6-13.3-5.7.9-14 .7-18.1 6.2a22.92 22.92 0 001.9-8.3c1.6-1.2 9.4-9.4 13-13.3-2.5 2.5-10.5 9.3-13.1 11.9-3-11-2.9-24.7 6.5-34.4a38.81 38.81 0 00-9 13.9c-.2-2.1-1.3-6.3-2.2-10.3 1.5 8.4-.1 16.8 1.6 27.9-5.1-2.9-8.9-9.4-10.1-17.1.9 5.5 1.5 13.1 10.2 19.1 0 5-1.1 9.7-6.8 13.7a54.32 54.32 0 00-6.9-9.6c.1.1.1.2.2.3-.3-.4-.2-.3-.7-.9-.1-.1-.2-.2-.2-.3l-.1-.1c-8.2-10.1-17.6-21.4-8.2-33.9zm-31 40.6c-2.3-4.3-4.9-7.7-8.8-14.2a44.37 44.37 0 012.4-8.4c3 1.5 9.4 3.3 15.2 4.8 4.1 5.2 7.3 9.6 17.9 9 7.5 10.2 15.1 23.3 18.6 35.8h0l-.4.4-.4.4c-3.6-18.7-27.3-22.9-44.5-27.8zm-30.9 56.6l-.3.3a49.19 49.19 0 01-12.7-9.4c5.8-3.1 16-11.1 21.3-14 5.4 2.2 9.5 4.2 16.5 6q-4.5 2.7-9.3 5.7a25 25 0 01-.9-6.7 24.12 24.12 0 00.5 7c-1.7 1.1-1.5.9-7 4.4a74.19 74.19 0 00-8.1 6.7zm18.8 10.7c-4.7-1.4-9.9-5.1-15.8-8.5 1.4-1 4.1-3.2 7-5a37.82 37.82 0 0010 14 3.08 3.08 0 00-1.2-.5zm3.9 1.4c-2.8-3.9-9.6-8.2-12.5-15.2 1.4-.8 3.6-2 7-3.7 5.1 5 11.9 14.7 14.3 22.6-2.7-1.3-5.7-2.5-8.8-3.7zm25.9 14.7a66.5 66.5 0 00-13.9-9.3c-2.3-7.4-8.9-18.1-17.1-24.7 8-3.8 13.9-8.9 24.1-9.3-1.9 4.7-4.6 13.3-11 16 5.8-1.9 9.9-9.7 12.8-16.4 5.8-1.4 12.8-5.9 17.3-11.6 1.5 1.9 4 5.7 6.3 9.2h0c-8.8 13.9-13.8 28.8-18.5 46.1zm16.8 165.4h0a30.58 30.58 0 002-2.5 17.23 17.23 0 01-.7 2.1 132.37 132.37 0 01-7.5 18.3c-5.9.7-11.7 1.4-17.2 2.2a154.3 154.3 0 0023.4-20.1zm-43 14.1a119.27 119.27 0 00-14 11.9c-11 3.7-21.9 6.1-32 8.4a55.21 55.21 0 005.6-8.6c12.4-5.5 25.7-7.5 40.4-11.7zm-45 13.6a38.73 38.73 0 01-4.1 7.5 156.86 156.86 0 00-21.2 6.2c8.4-6.4 16.9-12.3 25.3-13.7zm106.4-11.3a124.75 124.75 0 018.8-11.5c.9 3.6 1.9 7.5 2.9 11.5q-5.4-.15-11.7 0z" stroke="#fff" stroke-miterlimit="10" stroke-width=".25"/>
  <image width="2939" height="2442" transform="matrix(.24 0 0 .24 27.13 4.33)" xlink:href="ai1597349980231.png"/>
</svg>
